ComicNeue_Bold.ufo
<glyph name="numbersign" format="1">
  <advance width="772"/>
  <unicode hex="0023"/>
  <outline>
    <contour>
      <point x="343" y="72" type="curve" smooth="yes"/>
      <point x="378" y="191" type="line"/>
      <point x="287" y="191" type="line"/>
      <point x="242" y="34" type="line" smooth="yes"/>
      <point x="235" y="11"/>
      <point x="214" y="0"/>
      <point x="195" y="0" type="curve" smooth="yes"/>
      <point x="166" y="0"/>
      <point x="147" y="23"/>
      <point x="147" y="46" type="curve" smooth="yes"/>
      <point x="147" y="55"/>
      <point x="149" y="61"/>
      <point x="152" y="71" type="curve" smooth="yes"/>
      <point x="186" y="191" type="line"/>
      <point x="111" y="191" type="line" smooth="yes"/>
      <point x="84" y="191"/>
      <point x="63" y="212"/>
      <point x="63" y="239" type="curve" smooth="yes"/>
      <point x="63" y="264"/>
      <point x="84" y="287"/>
      <point x="111" y="287" type="curve" smooth="yes"/>
      <point x="214" y="287" type="line"/>
      <point x="225" y="327"/>
      <point x="232" y="345"/>
      <point x="244" y="390" type="curve"/>
      <point x="152" y="390" type="line" smooth="yes"/>
      <point x="125" y="390"/>
      <point x="104" y="411"/>
      <point x="104" y="438" type="curve" smooth="yes"/>
      <point x="104" y="463"/>
      <point x="125" y="486"/>
      <point x="152" y="486" type="curve" smooth="yes"/>
      <point x="273" y="486" type="line"/>
      <point x="316" y="637" type="line" smooth="yes"/>
      <point x="322" y="658"/>
      <point x="343" y="671"/>
      <point x="363" y="671" type="curve" smooth="yes"/>
      <point x="392" y="671"/>
      <point x="411" y="649"/>
      <point x="411" y="624" type="curve" smooth="yes"/>
      <point x="411" y="615"/>
      <point x="409" y="610"/>
      <point x="407" y="602" type="curve" smooth="yes"/>
      <point x="373" y="486" type="line"/>
      <point x="464" y="486" type="line"/>
      <point x="508" y="637" type="line" smooth="yes"/>
      <point x="514" y="658"/>
      <point x="534" y="671"/>
      <point x="554" y="671" type="curve" smooth="yes"/>
      <point x="583" y="671"/>
      <point x="602" y="647"/>
      <point x="602" y="623" type="curve" smooth="yes"/>
      <point x="602" y="619"/>
      <point x="601" y="610"/>
      <point x="599" y="603" type="curve" smooth="yes"/>
      <point x="564" y="486" type="line"/>
      <point x="626" y="486" type="line" smooth="yes"/>
      <point x="651" y="486"/>
      <point x="674" y="463"/>
      <point x="674" y="438" type="curve" smooth="yes"/>
      <point x="674" y="411"/>
      <point x="651" y="390"/>
      <point x="626" y="390" type="curve" smooth="yes"/>
      <point x="536" y="390" type="line"/>
      <point x="507" y="287" type="line"/>
      <point x="585" y="287" type="line" smooth="yes"/>
      <point x="611" y="287"/>
      <point x="633" y="264"/>
      <point x="633" y="239" type="curve" smooth="yes"/>
      <point x="633" y="212"/>
      <point x="611" y="191"/>
      <point x="585" y="191" type="curve" smooth="yes"/>
      <point x="479" y="191" type="line"/>
      <point x="433" y="34" type="line" smooth="yes"/>
      <point x="426" y="10"/>
      <point x="406" y="0"/>
      <point x="387" y="0" type="curve" smooth="yes"/>
      <point x="358" y="0"/>
      <point x="339" y="23"/>
      <point x="339" y="48" type="curve" smooth="yes"/>
      <point x="339" y="53"/>
      <point x="340" y="62"/>
    </contour>
    <contour>
      <point x="406" y="287" type="line"/>
      <point x="436" y="390" type="line"/>
      <point x="344" y="390" type="line"/>
      <point x="315" y="287" type="line"/>
    </contour>
  </outline>
</glyph>
<glyph name="ampersand" format="1">
  <advance width="686"/>
  <unicode hex="0026"/>
  <outline>
    <contour>
      <point x="502" y="170" type="curve"/>
      <point x="579" y="76" type="line" smooth="yes"/>
      <point x="585" y="69"/>
      <point x="590" y="57"/>
      <point x="590" y="47" type="curve" smooth="yes"/>
      <point x="590" y="21"/>
      <point x="569" y="0"/>
      <point x="543" y="0" type="curve" smooth="yes"/>
      <point x="529" y="0"/>
      <point x="516" y="6"/>
      <point x="507" y="17" type="curve" smooth="yes"/>
      <point x="449" y="87" type="line"/>
      <point x="405" y="34"/>
      <point x="343" y="-4"/>
      <point x="268" y="-4" type="curve" smooth="yes"/>
      <point x="169" y="-4"/>
      <point x="61" y="70"/>
      <point x="61" y="187" type="curve" smooth="yes"/>
      <point x="61" y="291"/>
      <point x="126" y="344"/>
      <point x="195" y="384" type="curve"/>
      <point x="168" y="419"/>
      <point x="140" y="466"/>
      <point x="140" y="521" type="curve" smooth="yes"/>
      <point x="140" y="600"/>
      <point x="215" y="672"/>
      <point x="296" y="672" type="curve" smooth="yes"/>
      <point x="377" y="672"/>
      <point x="452" y="600"/>
      <point x="452" y="523" type="curve" smooth="yes"/>
      <point x="452" y="448"/>
      <point x="416" y="401"/>
      <point x="345" y="358" type="curve"/>
      <point x="433" y="251" type="line"/>
      <point x="441" y="276" type="line" smooth="yes"/>
      <point x="452" y="310"/>
      <point x="460" y="322"/>
      <point x="490" y="322" type="curve" smooth="yes"/>
      <point x="517" y="322"/>
      <point x="537" y="302"/>
      <point x="537" y="275" type="curve" smooth="yes"/>
      <point x="537" y="250"/>
      <point x="517" y="201"/>
    </contour>
    <contour>
      <point x="234" y="521" type="curve" smooth="yes"/>
      <point x="234" y="491"/>
      <point x="260" y="454"/>
      <point x="281" y="430" type="curve"/>
      <point x="357" y="471"/>
      <point x="359" y="498"/>
      <point x="359" y="521" type="curve" smooth="yes"/>
      <point x="359" y="550"/>
      <point x="328" y="578"/>
      <point x="296" y="578" type="curve" smooth="yes"/>
      <point x="268" y="578"/>
      <point x="234" y="553"/>
    </contour>
    <contour>
      <point x="268" y="91" type="curve" smooth="yes"/>
      <point x="318" y="91"/>
      <point x="359" y="122"/>
      <point x="387" y="161" type="curve"/>
      <point x="261" y="312" type="line"/>
      <point x="203" y="280"/>
      <point x="155" y="247"/>
      <point x="155" y="187" type="curve" smooth="yes"/>
      <point x="155" y="121"/>
      <point x="222" y="91"/>
    </contour>
  </outline>
</glyph>
<glyph name="parenleft" format="1">
  <advance width="395"/>
  <unicode hex="0028"/>
  <outline>
    <contour>
      <point x="219" y="-78" type="curve" smooth="yes"/>
      <point x="187" y="-39"/>
      <point x="58" y="116"/>
      <point x="58" y="342" type="curve" smooth="yes"/>
      <point x="58" y="503"/>
      <point x="130" y="650"/>
      <point x="236" y="750" type="curve" smooth="yes"/>
      <point x="250" y="763"/>
      <point x="262" y="768"/>
      <point x="272" y="768" type="curve" smooth="yes"/>
      <point x="298" y="768"/>
      <point x="320" y="745"/>
      <point x="320" y="719" type="curve" smooth="yes"/>
      <point x="320" y="705"/>
      <point x="315" y="692"/>
      <point x="302" y="682" type="curve" smooth="yes"/>
      <point x="219" y="615"/>
      <point x="154" y="477"/>
      <point x="154" y="342" type="curve" smooth="yes"/>
      <point x="154" y="190"/>
      <point x="228" y="53"/>
      <point x="293" y="-15" type="curve" smooth="yes"/>
      <point x="303" y="-25"/>
      <point x="308" y="-37"/>
      <point x="308" y="-51" type="curve" smooth="yes"/>
      <point x="308" y="-77"/>
      <point x="283" y="-98"/>
      <point x="260" y="-98" type="curve" smooth="yes"/>
      <point x="240" y="-98"/>
      <point x="228" y="-88"/>
    </contour>
  </outline>
</glyph>
<glyph name="plus" format="1">
  <advance width="469"/>
  <unicode hex="002B"/>
  <outline>
    <contour>
      <point x="352" y="203" type="curve" smooth="yes"/>
      <point x="271" y="203" type="line"/>
      <point x="271" y="124" type="line" smooth="yes"/>
      <point x="271" y="98"/>
      <point x="250" y="77"/>
      <point x="224" y="77" type="curve" smooth="yes"/>
      <point x="198" y="77"/>
      <point x="177" y="98"/>
      <point x="177" y="124" type="curve" smooth="yes"/>
      <point x="177" y="203" type="line"/>
      <point x="97" y="203" type="line" smooth="yes"/>
      <point x="70" y="203"/>
      <point x="49" y="224"/>
      <point x="49" y="251" type="curve" smooth="yes"/>
      <point x="49" y="277"/>
      <point x="70" y="298"/>
      <point x="97" y="298" type="curve" smooth="yes"/>
      <point x="177" y="298" type="line"/>
      <point x="177" y="368" type="line" smooth="yes"/>
      <point x="177" y="394"/>
      <point x="198" y="415"/>
      <point x="224" y="415" type="curve" smooth="yes"/>
      <point x="250" y="415"/>
      <point x="271" y="394"/>
      <point x="271" y="368" type="curve" smooth="yes"/>
      <point x="271" y="298" type="line"/>
      <point x="352" y="298" type="line" smooth="yes"/>
      <point x="378" y="298"/>
      <point x="399" y="277"/>
      <point x="399" y="251" type="curve" smooth="yes"/>
      <point x="399" y="224"/>
      <point x="378" y="203"/>
    </contour>
  </outline>
</glyph>
<glyph name="comma" format="1">
  <advance width="287"/>
  <unicode hex="002C"/>
  <outline>
    <contour>
      <point x="202" y="64" type="curve" smooth="yes"/>
      <point x="202" y="43"/>
      <point x="184" y="-7"/>
      <point x="168" y="-45" type="curve" smooth="yes"/>
      <point x="159" y="-66"/>
      <point x="148" y="-84"/>
      <point x="122" y="-84" type="curve" smooth="yes"/>
      <point x="97" y="-84"/>
      <point x="78" y="-65"/>
      <point x="78" y="-42" type="curve" smooth="yes"/>
      <point x="78" y="-35"/>
      <point x="79" y="-31"/>
      <point x="81" y="-26" type="curve" smooth="yes"/>
      <point x="99" y="21" type="line"/>
      <point x="94" y="30"/>
      <point x="91" y="40"/>
      <point x="91" y="52" type="curve" smooth="yes"/>
      <point x="91" y="85"/>
      <point x="119" y="115"/>
      <point x="150" y="115" type="curve" smooth="yes"/>
      <point x="179" y="115"/>
      <point x="202" y="92"/>
    </contour>
  </outline>
</glyph>
<glyph name="five" format="1">
  <advance width="585"/>
  <unicode hex="0035"/>
  <outline>
    <contour>
      <point x="69" y="109" type="curve" smooth="yes"/>
      <point x="66" y="116"/>
      <point x="64" y="124"/>
      <point x="64" y="132" type="curve" smooth="yes"/>
      <point x="64" y="157"/>
      <point x="87" y="180"/>
      <point x="112" y="180" type="curve" smooth="yes"/>
      <point x="135" y="180"/>
      <point x="143" y="170"/>
      <point x="153" y="156" type="curve" smooth="yes"/>
      <point x="181" y="116"/>
      <point x="217" y="94"/>
      <point x="268" y="94" type="curve" smooth="yes"/>
      <point x="339" y="94"/>
      <point x="402" y="166"/>
      <point x="402" y="253" type="curve" smooth="yes"/>
      <point x="402" y="320"/>
      <point x="367" y="388"/>
      <point x="287" y="388" type="curve" smooth="yes"/>
      <point x="222" y="388"/>
      <point x="181" y="344"/>
      <point x="172" y="335" type="curve" smooth="yes"/>
      <point x="161" y="324"/>
      <point x="150" y="320"/>
      <point x="136" y="320" type="curve" smooth="yes"/>
      <point x="104.565" y="320"/>
      <point x="87.6612" y="341.371"/>
      <point x="87.6612" y="368.306" type="curve" smooth="yes"/>
      <point x="87.6612" y="370.503"/>
      <point x="87.7737" y="372.737"/>
      <point x="88" y="375" type="curve" smooth="yes"/>
      <point x="112" y="614" type="line" smooth="yes"/>
      <point x="114" y="638"/>
      <point x="136" y="657"/>
      <point x="160" y="657" type="curve" smooth="yes"/>
      <point x="425" y="657" type="line" smooth="yes"/>
      <point x="450" y="657"/>
      <point x="473" y="634"/>
      <point x="473" y="609" type="curve" smooth="yes"/>
      <point x="473" y="581"/>
      <point x="450" y="560"/>
      <point x="425" y="560" type="curve" smooth="yes"/>
      <point x="204" y="560" type="line"/>
      <point x="194" y="466" type="line"/>
      <point x="220" y="477"/>
      <point x="252" y="484"/>
      <point x="287" y="484" type="curve" smooth="yes"/>
      <point x="407" y="484"/>
      <point x="498" y="392"/>
      <point x="498" y="253" type="curve" smooth="yes"/>
      <point x="498" y="112"/>
      <point x="388" y="-3"/>
      <point x="268" y="-3" type="curve" smooth="yes"/>
      <point x="154" y="-3"/>
      <point x="84" y="77"/>
    </contour>
  </outline>
</glyph>
<glyph name="seven" format="1">
  <advance width="527"/>
  <unicode hex="0037"/>
  <outline>
    <contour>
      <point x="155" y="1" type="curve" smooth="yes"/>
      <point x="128" y="1"/>
      <point x="107" y="24"/>
      <point x="107" y="49" type="curve" smooth="yes"/>
      <point x="107" y="55"/>
      <point x="109" y="63"/>
      <point x="113" y="70" type="curve" smooth="yes"/>
      <point x="359" y="558" type="line"/>
      <point x="109" y="558" type="line" smooth="yes"/>
      <point x="82" y="558"/>
      <point x="61" y="579"/>
      <point x="61" y="606" type="curve" smooth="yes"/>
      <point x="61" y="631"/>
      <point x="82" y="654"/>
      <point x="109" y="654" type="curve" smooth="yes"/>
      <point x="436" y="654" type="line" smooth="yes"/>
      <point x="463" y="654"/>
      <point x="484" y="632"/>
      <point x="484" y="605" type="curve" smooth="yes"/>
      <point x="484" y="599"/>
      <point x="482" y="591"/>
      <point x="479" y="584" type="curve" smooth="yes"/>
      <point x="198" y="27" type="line" smooth="yes"/>
      <point x="189" y="8"/>
      <point x="171" y="1"/>
    </contour>
  </outline>
</glyph>
<glyph name="eight" format="1">
  <advance width="573"/>
  <unicode hex="0038"/>
  <outline>
    <contour>
      <point x="273" y="-3" type="curve" smooth="yes"/>
      <point x="150" y="-3"/>
      <point x="63" y="77"/>
      <point x="63" y="185" type="curve"/>
      <point x="65" y="272"/>
      <point x="114" y="324"/>
      <point x="164" y="357" type="curve"/>
      <point x="122" y="384"/>
      <point x="93" y="422"/>
      <point x="93" y="486" type="curve" smooth="yes"/>
      <point x="93" y="600"/>
      <point x="181" y="669"/>
      <point x="283" y="669" type="curve" smooth="yes"/>
      <point x="391" y="669"/>
      <point x="467" y="600"/>
      <point x="467" y="501" type="curve" smooth="yes"/>
      <point x="467" y="435"/>
      <point x="432" y="392"/>
      <point x="390" y="363" type="curve"/>
      <point x="448" y="322"/>
      <point x="482" y="263"/>
      <point x="482" y="194" type="curve" smooth="yes"/>
      <point x="482" y="82"/>
      <point x="393" y="-3"/>
    </contour>
    <contour>
      <point x="283" y="310" type="curve"/>
      <point x="225" y="284"/>
      <point x="158" y="255"/>
      <point x="158" y="180" type="curve" smooth="yes"/>
      <point x="158" y="129"/>
      <point x="209" y="93"/>
      <point x="273" y="93" type="curve" smooth="yes"/>
      <point x="326" y="93"/>
      <point x="388" y="124"/>
      <point x="388" y="192" type="curve" smooth="yes"/>
      <point x="388" y="253"/>
      <point x="336" y="292"/>
    </contour>
    <contour>
      <point x="283" y="572" type="curve" smooth="yes"/>
      <point x="281" y="572"/>
      <point x="187" y="571"/>
      <point x="187" y="490" type="curve" smooth="yes"/>
      <point x="187" y="452"/>
      <point x="213" y="430"/>
      <point x="277" y="411" type="curve"/>
      <point x="353" y="442"/>
      <point x="372" y="472"/>
      <point x="372" y="506" type="curve" smooth="yes"/>
      <point x="372" y="547"/>
      <point x="332" y="572"/>
    </contour>
  </outline>
</glyph>
<glyph name="colon" format="1">
  <advance width="261"/>
  <unicode hex="003A"/>
  <outline>
    <contour>
      <point x="108" y="0" type="curve" smooth="yes"/>
      <point x="77" y="0"/>
      <point x="57" y="25"/>
      <point x="57" y="57" type="curve" smooth="yes"/>
      <point x="57" y="90"/>
      <point x="85" y="121"/>
      <point x="116" y="121" type="curve" smooth="yes"/>
      <point x="145" y="121"/>
      <point x="167" y="96"/>
      <point x="167" y="65" type="curve" smooth="yes"/>
      <point x="167" y="29"/>
      <point x="139" y="0"/>
    </contour>
    <contour>
      <point x="135" y="325" type="curve" smooth="yes"/>
      <point x="104" y="325"/>
      <point x="83" y="351"/>
      <point x="83" y="382" type="curve" smooth="yes"/>
      <point x="83" y="415"/>
      <point x="111" y="446"/>
      <point x="142" y="446" type="curve" smooth="yes"/>
      <point x="171" y="446"/>
      <point x="194" y="422"/>
      <point x="194" y="391" type="curve" smooth="yes"/>
      <point x="194" y="354"/>
      <point x="166" y="325"/>
    </contour>
  </outline>
</glyph>
<glyph name="semicolon" format="1">
  <advance width="297"/>
  <unicode hex="003B"/>
  <outline>
    <contour>
      <point x="172" y="325" type="curve" smooth="yes"/>
      <point x="141" y="325"/>
      <point x="121" y="351"/>
      <point x="121" y="382" type="curve" smooth="yes"/>
      <point x="121" y="415"/>
      <point x="149" y="446"/>
      <point x="180" y="446" type="curve" smooth="yes"/>
      <point x="209" y="446"/>
      <point x="231" y="422"/>
      <point x="231" y="391" type="curve" smooth="yes"/>
      <point x="231" y="354"/>
      <point x="203" y="325"/>
    </contour>
    <contour>
      <point x="199" y="64" type="curve" smooth="yes"/>
      <point x="199" y="43"/>
      <point x="181" y="-7"/>
      <point x="165" y="-45" type="curve" smooth="yes"/>
      <point x="156" y="-66"/>
      <point x="145" y="-84"/>
      <point x="119" y="-84" type="curve" smooth="yes"/>
      <point x="94" y="-84"/>
      <point x="75" y="-65"/>
      <point x="75" y="-42" type="curve" smooth="yes"/>
      <point x="75" y="-35"/>
      <point x="76" y="-31"/>
      <point x="78" y="-26" type="curve" smooth="yes"/>
      <point x="96" y="21" type="line"/>
      <point x="91" y="30"/>
      <point x="88" y="40"/>
      <point x="88" y="52" type="curve" smooth="yes"/>
      <point x="88" y="85"/>
      <point x="116" y="115"/>
      <point x="147" y="115" type="curve" smooth="yes"/>
      <point x="176" y="115"/>
      <point x="199" y="92"/>
    </contour>
  </outline>
</glyph>
<glyph name="equal" format="1">
  <advance width="519"/>
  <unicode hex="003D"/>
  <outline>
    <contour>
      <point x="379" y="292" type="curve" smooth="yes"/>
      <point x="119" y="292" type="line" smooth="yes"/>
      <point x="92" y="292"/>
      <point x="72" y="313"/>
      <point x="72" y="339" type="curve" smooth="yes"/>
      <point x="72" y="364"/>
      <point x="92" y="387"/>
      <point x="119" y="387" type="curve" smooth="yes"/>
      <point x="379" y="387" type="line" smooth="yes"/>
      <point x="404" y="387"/>
      <point x="427" y="364"/>
      <point x="427" y="339" type="curve" smooth="yes"/>
      <point x="427" y="313"/>
      <point x="404" y="292"/>
    </contour>
    <contour>
      <point x="379" y="112" type="curve" smooth="yes"/>
      <point x="119" y="112" type="line" smooth="yes"/>
      <point x="92" y="112"/>
      <point x="72" y="133"/>
      <point x="72" y="159" type="curve" smooth="yes"/>
      <point x="72" y="184"/>
      <point x="92" y="207"/>
      <point x="119" y="207" type="curve" smooth="yes"/>
      <point x="379" y="207" type="line" smooth="yes"/>
      <point x="404" y="207"/>
      <point x="427" y="184"/>
      <point x="427" y="159" type="curve" smooth="yes"/>
      <point x="427" y="133"/>
      <point x="404" y="112"/>
    </contour>
  </outline>
</glyph>
<glyph name="greater" format="1">
  <advance width="566"/>
  <unicode hex="003E"/>
  <outline>
    <contour>
      <point x="455" y="207" type="curve" smooth="yes"/>
      <point x="165" y="15" type="line" smooth="yes"/>
      <point x="157" y="10"/>
      <point x="146" y="7"/>
      <point x="138" y="7" type="curve" smooth="yes"/>
      <point x="113" y="7"/>
      <point x="90" y="30"/>
      <point x="90" y="55" type="curve" smooth="yes"/>
      <point x="90" y="71"/>
      <point x="98" y="85"/>
      <point x="112" y="95" type="curve" smooth="yes"/>
      <point x="340" y="247" type="line"/>
      <point x="95" y="403" type="line" smooth="yes"/>
      <point x="82" y="411"/>
      <point x="73" y="428"/>
      <point x="73" y="443" type="curve" smooth="yes"/>
      <point x="73" y="471"/>
      <point x="95" y="492"/>
      <point x="121" y="492" type="curve" smooth="yes"/>
      <point x="130" y="492"/>
      <point x="139" y="489"/>
      <point x="147" y="484" type="curve" smooth="yes"/>
      <point x="454" y="288" type="line" smooth="yes"/>
      <point x="471" y="277"/>
      <point x="476" y="263"/>
      <point x="476" y="248" type="curve" smooth="yes"/>
      <point x="476" y="231"/>
      <point x="470" y="217"/>
    </contour>
  </outline>
</glyph>
<glyph name="question" format="1">
  <advance width="559"/>
  <unicode hex="003F"/>
  <outline>
    <contour>
      <point x="173" y="242" type="curve" smooth="yes"/>
      <point x="227" y="287"/>
      <point x="378" y="403"/>
      <point x="378" y="481" type="curve" smooth="yes"/>
      <point x="378" y="537"/>
      <point x="344" y="597"/>
      <point x="248" y="597" type="curve" smooth="yes"/>
      <point x="196" y="597"/>
      <point x="162" y="563"/>
      <point x="137" y="535" type="curve" smooth="yes"/>
      <point x="129" y="526"/>
      <point x="117" y="522"/>
      <point x="105" y="522" type="curve" smooth="yes"/>
      <point x="80" y="522"/>
      <point x="57" y="541"/>
      <point x="57" y="570" type="curve" smooth="yes"/>
      <point x="57" y="586"/>
      <point x="70" y="602"/>
      <point x="82" y="616" type="curve" smooth="yes"/>
      <point x="114" y="650"/>
      <point x="172" y="691"/>
      <point x="248" y="691" type="curve" smooth="yes"/>
      <point x="381" y="691"/>
      <point x="471" y="607"/>
      <point x="471" y="481" type="curve" smooth="yes"/>
      <point x="471" y="371"/>
      <point x="397" y="316"/>
      <point x="342" y="265" type="curve" smooth="yes"/>
      <point x="230" y="161"/>
      <point x="215" y="159"/>
      <point x="203" y="159" type="curve" smooth="yes"/>
      <point x="177" y="159"/>
      <point x="156" y="180"/>
      <point x="156" y="206" type="curve" smooth="yes"/>
      <point x="156" y="219"/>
      <point x="162" y="233"/>
    </contour>
    <contour>
      <point x="172" y="0" type="curve" smooth="yes"/>
      <point x="141" y="0"/>
      <point x="120" y="25"/>
      <point x="120" y="57" type="curve" smooth="yes"/>
      <point x="120" y="90"/>
      <point x="149" y="121"/>
      <point x="179" y="121" type="curve" smooth="yes"/>
      <point x="209" y="121"/>
      <point x="231" y="96"/>
      <point x="231" y="65" type="curve" smooth="yes"/>
      <point x="231" y="29"/>
      <point x="203" y="0"/>
    </contour>
  </outline>
</glyph>
<glyph name="at" format="1">
  <advance width="854"/>
  <unicode hex="0040"/>
  <outline>
    <contour>
      <point x="549" y="35" type="curve" smooth="yes"/>
      <point x="563" y="44"/>
      <point x="571" y="47"/>
      <point x="581" y="47" type="curve" smooth="yes"/>
      <point x="607" y="47"/>
      <point x="628" y="26"/>
      <point x="628" y="0" type="curve" smooth="yes"/>
      <point x="628" y="-15"/>
      <point x="623" y="-27"/>
      <point x="603" y="-42" type="curve" smooth="yes"/>
      <point x="564" y="-70"/>
      <point x="507" y="-85"/>
      <point x="422" y="-85" type="curve" smooth="yes"/>
      <point x="231" y="-85"/>
      <point x="71" y="60"/>
      <point x="71" y="253" type="curve" smooth="yes"/>
      <point x="71" y="455"/>
      <point x="221" y="607"/>
      <point x="424" y="607" type="curve" smooth="yes"/>
      <point x="606" y="607"/>
      <point x="750" y="467"/>
      <point x="750" y="283" type="curve" smooth="yes"/>
      <point x="750" y="101"/>
      <point x="615" y="86"/>
      <point x="581" y="86" type="curve" smooth="yes"/>
      <point x="523" y="86"/>
      <point x="477" y="113"/>
      <point x="452" y="147" type="curve"/>
      <point x="424" y="119"/>
      <point x="391" y="99"/>
      <point x="349" y="99" type="curve" smooth="yes"/>
      <point x="259" y="99"/>
      <point x="221" y="162"/>
      <point x="221" y="239" type="curve" smooth="yes"/>
      <point x="221" y="341"/>
      <point x="298" y="435"/>
      <point x="398" y="435" type="curve" smooth="yes"/>
      <point x="430" y="435"/>
      <point x="462" y="426"/>
      <point x="494" y="406" type="curve" smooth="yes"/>
      <point x="517" y="391"/>
      <point x="524" y="377"/>
      <point x="524" y="362" type="curve" smooth="yes"/>
      <point x="524" y="343"/>
      <point x="513" y="327"/>
      <point x="498" y="320" type="curve"/>
      <point x="514" y="312"/>
      <point x="526" y="295"/>
      <point x="526" y="276" type="curve" smooth="yes"/>
      <point x="526" y="261"/>
      <point x="519" y="248"/>
      <point x="519" y="230" type="curve" smooth="yes"/>
      <point x="519" y="204"/>
      <point x="535" y="182"/>
      <point x="572" y="181" type="curve" smooth="yes"/>
      <point x="603" y="181"/>
      <point x="655" y="190"/>
      <point x="655" y="283" type="curve" smooth="yes"/>
      <point x="655" y="397"/>
      <point x="576" y="512"/>
      <point x="424" y="512" type="curve" smooth="yes"/>
      <point x="295" y="512"/>
      <point x="166" y="423"/>
      <point x="166" y="253" type="curve" smooth="yes"/>
      <point x="166" y="93"/>
      <point x="310" y="8"/>
      <point x="427" y="8" type="curve" smooth="yes"/>
      <point x="485" y="8"/>
      <point x="519" y="16"/>
    </contour>
    <contour>
      <point x="435" y="293" type="curve" smooth="yes"/>
      <point x="441" y="306"/>
      <point x="448" y="314"/>
      <point x="457" y="319" type="curve"/>
      <point x="441" y="330"/>
      <point x="420" y="342"/>
      <point x="399" y="342" type="curve" smooth="yes"/>
      <point x="351" y="342"/>
      <point x="315" y="292"/>
      <point x="315" y="239" type="curve" smooth="yes"/>
      <point x="315" y="204"/>
      <point x="330" y="193"/>
      <point x="349" y="193" type="curve" smooth="yes"/>
      <point x="386" y="193"/>
      <point x="425" y="267"/>
    </contour>
  </outline>
</glyph>
<glyph name="D" format="1">
  <advance width="646"/>
  <unicode hex="0044"/>
  <outline>
    <contour>
      <point x="219" y="-19" type="curve" smooth="yes"/>
      <point x="164" y="-19"/>
      <point x="108" y="-5"/>
      <point x="99" y="-2" type="curve" smooth="yes"/>
      <point x="78" y="4"/>
      <point x="61" y="25"/>
      <point x="61" y="47" type="curve" smooth="yes"/>
      <point x="61" y="632" type="line" smooth="yes"/>
      <point x="61" y="660"/>
      <point x="83" y="681"/>
      <point x="111" y="681" type="curve" smooth="yes"/>
      <point x="271" y="681"/>
      <point x="569" y="626"/>
      <point x="569" y="303" type="curve" smooth="yes"/>
      <point x="569" y="79"/>
      <point x="412" y="-19"/>
    </contour>
    <contour>
      <point x="161" y="579" type="curve"/>
      <point x="161" y="87" type="line"/>
      <point x="178" y="84"/>
      <point x="199" y="81"/>
      <point x="219" y="81" type="curve" smooth="yes"/>
      <point x="371" y="81"/>
      <point x="469" y="154"/>
      <point x="469" y="303" type="curve" smooth="yes"/>
      <point x="469" y="494"/>
      <point x="328" y="566"/>
    </contour>
  </outline>
</glyph>
<glyph name="F" format="1">
  <advance width="571"/>
  <unicode hex="0046"/>
  <outline>
    <contour>
      <point x="156" y="301" type="line"/>
      <point x="156" y="49" type="line" smooth="yes"/>
      <point x="156" y="21"/>
      <point x="134" y="-1"/>
      <point x="106" y="-1" type="curve" smooth="yes"/>
      <point x="78" y="-1"/>
      <point x="56" y="21"/>
      <point x="56" y="49" type="curve" smooth="yes"/>
      <point x="56" y="631" type="line" smooth="yes"/>
      <point x="56" y="659"/>
      <point x="78" y="681"/>
      <point x="106" y="681" type="curve" smooth="yes"/>
      <point x="505" y="681" type="line" smooth="yes"/>
      <point x="533" y="681"/>
      <point x="554" y="659"/>
      <point x="554" y="631" type="curve" smooth="yes"/>
      <point x="554" y="605"/>
      <point x="533" y="581"/>
      <point x="505" y="581" type="curve" smooth="yes"/>
      <point x="156" y="581" type="line"/>
      <point x="156" y="401" type="line"/>
      <point x="422" y="401" type="line" smooth="yes"/>
      <point x="450" y="401"/>
      <point x="471" y="378"/>
      <point x="471" y="350" type="curve" smooth="yes"/>
      <point x="471" y="324"/>
      <point x="450" y="301"/>
      <point x="422" y="301" type="curve" smooth="yes"/>
    </contour>
  </outline>
</glyph>
<glyph name="I" format="1">
  <advance width="459"/>
  <unicode hex="0049"/>
  <outline>
    <contour>
      <point x="273" y="99" type="line"/>
      <point x="342" y="99" type="line" smooth="yes"/>
      <point x="372" y="99"/>
      <point x="391" y="77"/>
      <point x="391" y="49" type="curve" smooth="yes"/>
      <point x="391" y="21"/>
      <point x="370" y="-1"/>
      <point x="342" y="-1" type="curve" smooth="yes"/>
      <point x="103" y="-1" type="line" smooth="yes"/>
      <point x="75" y="-1"/>
      <point x="53" y="21"/>
      <point x="53" y="49" type="curve" smooth="yes"/>
      <point x="53" y="77"/>
      <point x="75" y="99"/>
      <point x="103" y="99" type="curve" smooth="yes"/>
      <point x="173" y="99" type="line"/>
      <point x="173" y="581" type="line"/>
      <point x="103" y="581" type="line" smooth="yes"/>
      <point x="75" y="581"/>
      <point x="53" y="604"/>
      <point x="53" y="632" type="curve" smooth="yes"/>
      <point x="53" y="660"/>
      <point x="75" y="681"/>
      <point x="103" y="681" type="curve" smooth="yes"/>
      <point x="342" y="681" type="line" smooth="yes"/>
      <point x="370" y="681"/>
      <point x="391" y="660"/>
      <point x="391" y="632" type="curve" smooth="yes"/>
      <point x="391" y="604"/>
      <point x="370" y="581"/>
      <point x="342" y="581" type="curve" smooth="yes"/>
      <point x="273" y="581" type="line"/>
    </contour>
  </outline>
</glyph>
<glyph name="K" format="1">
  <advance width="596"/>
  <unicode hex="004B"/>
  <outline>
    <contour>
      <point x="451" y="9" type="curve" smooth="yes"/>
      <point x="158" y="238" type="line"/>
      <point x="158" y="49" type="line" smooth="yes"/>
      <point x="158" y="23"/>
      <point x="135" y="0"/>
      <point x="109" y="0" type="curve" smooth="yes"/>
      <point x="82" y="0"/>
      <point x="60" y="23"/>
      <point x="60" y="49" type="curve" smooth="yes"/>
      <point x="60" y="632" type="line" smooth="yes"/>
      <point x="60" y="660"/>
      <point x="82" y="681"/>
      <point x="109" y="681" type="curve" smooth="yes"/>
      <point x="135" y="681"/>
      <point x="158" y="660"/>
      <point x="158" y="632" type="curve" smooth="yes"/>
      <point x="158" y="436" type="line"/>
      <point x="431" y="670" type="line" smooth="yes"/>
      <point x="439" y="677"/>
      <point x="450" y="682"/>
      <point x="463" y="682" type="curve" smooth="yes"/>
      <point x="488" y="682"/>
      <point x="511" y="657"/>
      <point x="511" y="632" type="curve" smooth="yes"/>
      <point x="511" y="618"/>
      <point x="507" y="606"/>
      <point x="494" y="595" type="curve" smooth="yes"/>
      <point x="192" y="336" type="line"/>
      <point x="511" y="87" type="line" smooth="yes"/>
      <point x="527" y="75"/>
      <point x="530" y="61"/>
      <point x="530" y="48" type="curve" smooth="yes"/>
      <point x="530" y="20"/>
      <point x="508" y="-1"/>
      <point x="481" y="-1" type="curve" smooth="yes"/>
      <point x="469" y="-1"/>
      <point x="459" y="3"/>
    </contour>
  </outline>
</glyph>
<glyph name="N" format="1">
  <advance width="645"/>
  <unicode hex="004E"/>
  <outline>
    <contour>
      <point x="473" y="22" type="curve" smooth="yes"/>
      <point x="161" y="473" type="line"/>
      <point x="160" y="49" type="line" smooth="yes"/>
      <point x="160" y="21"/>
      <point x="138" y="0"/>
      <point x="110" y="0" type="curve" smooth="yes"/>
      <point x="84" y="0"/>
      <point x="61" y="23"/>
      <point x="61" y="49" type="curve" smooth="yes"/>
      <point x="62" y="632" type="line" smooth="yes"/>
      <point x="62" y="658"/>
      <point x="81" y="681"/>
      <point x="110" y="681" type="curve" smooth="yes"/>
      <point x="125" y="681"/>
      <point x="142" y="673"/>
      <point x="151" y="660" type="curve" smooth="yes"/>
      <point x="464" y="207" type="line"/>
      <point x="464" y="632" type="line" smooth="yes"/>
      <point x="464" y="659"/>
      <point x="486" y="682"/>
      <point x="514" y="682" type="curve" smooth="yes"/>
      <point x="540" y="682"/>
      <point x="563" y="659"/>
      <point x="563" y="632" type="curve" smooth="yes"/>
      <point x="563" y="49" type="line" smooth="yes"/>
      <point x="563" y="20"/>
      <point x="541" y="0"/>
      <point x="514" y="0" type="curve" smooth="yes"/>
      <point x="499" y="0"/>
      <point x="483" y="8"/>
    </contour>
  </outline>
</glyph>
<glyph name="P" format="1">
  <advance width="573"/>
  <unicode hex="0050"/>
  <outline>
    <contour>
      <point x="110" y="0" type="curve" smooth="yes"/>
      <point x="84" y="0"/>
      <point x="60" y="21"/>
      <point x="60" y="49" type="curve" smooth="yes"/>
      <point x="60" y="620" type="line" smooth="yes"/>
      <point x="60" y="665"/>
      <point x="63" y="682"/>
      <point x="157" y="682" type="curve" smooth="yes"/>
      <point x="408" y="682"/>
      <point x="528" y="605"/>
      <point x="528" y="468" type="curve" smooth="yes"/>
      <point x="528" y="286"/>
      <point x="301" y="228"/>
      <point x="159" y="223" type="curve"/>
      <point x="159" y="49" type="line" smooth="yes"/>
      <point x="159" y="21"/>
      <point x="138" y="0"/>
    </contour>
    <contour>
      <point x="159" y="583" type="line"/>
      <point x="159" y="321" type="line"/>
      <point x="248" y="326"/>
      <point x="429" y="355"/>
      <point x="429" y="468" type="curve" smooth="yes"/>
      <point x="429" y="542"/>
      <point x="337" y="583"/>
      <point x="173" y="583" type="curve" smooth="yes"/>
    </contour>
  </outline>
</glyph>
<glyph name="Q" format="1">
  <advance width="740"/>
  <unicode hex="0051"/>
  <outline>
    <contour>
      <point x="573" y="114" type="curve"/>
      <point x="645" y="68" type="line" smooth="yes"/>
      <point x="661" y="58"/>
      <point x="666" y="42"/>
      <point x="666" y="26" type="curve" smooth="yes"/>
      <point x="666" y="-5"/>
      <point x="641" y="-22"/>
      <point x="617" y="-22" type="curve" smooth="yes"/>
      <point x="607" y="-22"/>
      <point x="598" y="-20"/>
      <point x="590" y="-15" type="curve" smooth="yes"/>
      <point x="497" y="48" type="line"/>
      <point x="448" y="16"/>
      <point x="393" y="-2"/>
      <point x="335" y="-2" type="curve" smooth="yes"/>
      <point x="169" y="-2"/>
      <point x="49" y="143"/>
      <point x="49" y="313" type="curve" smooth="yes"/>
      <point x="49" y="513"/>
      <point x="203" y="680"/>
      <point x="379" y="680" type="curve" smooth="yes"/>
      <point x="544" y="680"/>
      <point x="665" y="536"/>
      <point x="665" y="364" type="curve" smooth="yes"/>
      <point x="665" y="266"/>
      <point x="632" y="180"/>
    </contour>
    <contour>
      <point x="403" y="108" type="curve"/>
      <point x="363" y="135" type="line" smooth="yes"/>
      <point x="344" y="148"/>
      <point x="341" y="160"/>
      <point x="341" y="176" type="curve" smooth="yes"/>
      <point x="341" y="204"/>
      <point x="364" y="225"/>
      <point x="389" y="225" type="curve" smooth="yes"/>
      <point x="400" y="225"/>
      <point x="411" y="222"/>
      <point x="421" y="215" type="curve" smooth="yes"/>
      <point x="489" y="170" type="line"/>
      <point x="532" y="219"/>
      <point x="562" y="288"/>
      <point x="562" y="361" type="curve" smooth="yes"/>
      <point x="562" y="474"/>
      <point x="482" y="583"/>
      <point x="372" y="583" type="curve" smooth="yes"/>
      <point x="256" y="583"/>
      <point x="152" y="464"/>
      <point x="152" y="317" type="curve" smooth="yes"/>
      <point x="152" y="193"/>
      <point x="229" y="95"/>
      <point x="335" y="95" type="curve" smooth="yes"/>
      <point x="359" y="95"/>
      <point x="382" y="100"/>
    </contour>
  </outline>
</glyph>
<glyph name="S" format="1">
  <advance width="624"/>
  <unicode hex="0053"/>
  <outline>
    <contour>
      <point x="301" y="309" type="curve" smooth="yes"/>
      <point x="202" y="335"/>
      <point x="88" y="387"/>
      <point x="88" y="500" type="curve" smooth="yes"/>
      <point x="88" y="640"/>
      <point x="210" y="682"/>
      <point x="328" y="682" type="curve" smooth="yes"/>
      <point x="405" y="682"/>
      <point x="544" y="655"/>
      <point x="544" y="535" type="curve" smooth="yes"/>
      <point x="544" y="505"/>
      <point x="523" y="483"/>
      <point x="495" y="483" type="curve" smooth="yes"/>
      <point x="470" y="483"/>
      <point x="451" y="502"/>
      <point x="447" y="525" type="curve" smooth="yes"/>
      <point x="440" y="567"/>
      <point x="380" y="589"/>
      <point x="325" y="589" type="curve" smooth="yes"/>
      <point x="256" y="589"/>
      <point x="195" y="566"/>
      <point x="195" y="504" type="curve" smooth="yes"/>
      <point x="195" y="460"/>
      <point x="239" y="431"/>
      <point x="326" y="407" type="curve" smooth="yes"/>
      <point x="474" y="366"/>
      <point x="547" y="299"/>
      <point x="547" y="201" type="curve" smooth="yes"/>
      <point x="547" y="63"/>
      <point x="413" y="0"/>
      <point x="306" y="0" type="curve" smooth="yes"/>
      <point x="194" y="0"/>
      <point x="97" y="62"/>
      <point x="61" y="145" type="curve" smooth="yes"/>
      <point x="58" y="152"/>
      <point x="56" y="162"/>
      <point x="56" y="170" type="curve" smooth="yes"/>
      <point x="56" y="197"/>
      <point x="78" y="220"/>
      <point x="107" y="220" type="curve" smooth="yes"/>
      <point x="132" y="220"/>
      <point x="149" y="205"/>
      <point x="157" y="183" type="curve" smooth="yes"/>
      <point x="178" y="123"/>
      <point x="248" y="96"/>
      <point x="305" y="96" type="curve" smooth="yes"/>
      <point x="365" y="96"/>
      <point x="441" y="127"/>
      <point x="441" y="196" type="curve" smooth="yes"/>
      <point x="441" y="229"/>
      <point x="432" y="274"/>
    </contour>
  </outline>
</glyph>
<glyph name="U" format="1">
  <advance width="709"/>
  <unicode hex="0055"/>
  <outline>
    <contour>
      <point x="622" y="633" type="curve" smooth="yes"/>
      <point x="623.851" y="574.691"/>
      <point x="625.916" y="520.452"/>
      <point x="625.916" y="466.118" type="curve" smooth="yes"/>
      <point x="625.916" y="403.042"/>
      <point x="623.133" y="339.84"/>
      <point x="614" y="270" type="curve" smooth="yes"/>
      <point x="593" y="110"/>
      <point x="511" y="0"/>
      <point x="334" y="0" type="curve" smooth="yes"/>
      <point x="165" y="0"/>
      <point x="70" y="151"/>
      <point x="63" y="367" type="curve" smooth="yes"/>
      <point x="61.8229" y="408.984"/>
      <point x="61.4155" y="446.042"/>
      <point x="61.4155" y="480.71" type="curve" smooth="yes"/>
      <point x="61.4155" y="534.396"/>
      <point x="62.3924" y="582.352"/>
      <point x="63" y="634" type="curve" smooth="yes"/>
      <point x="63" y="650"/>
      <point x="74" y="681"/>
      <point x="115" y="681" type="curve" smooth="yes"/>
      <point x="155" y="681"/>
      <point x="163" y="649"/>
      <point x="163" y="633" type="curve" smooth="yes"/>
      <point x="161.903" y="584.176"/>
      <point x="161.107" y="541.07"/>
      <point x="161.107" y="496.748" type="curve" smooth="yes"/>
      <point x="161.107" y="460.277"/>
      <point x="161.646" y="422.982"/>
      <point x="163" y="381" type="curve" smooth="yes"/>
      <point x="168" y="236"/>
      <point x="205" y="92"/>
      <point x="336" y="92" type="curve" smooth="yes"/>
      <point x="419" y="92"/>
      <point x="499" y="139"/>
      <point x="515" y="277" type="curve" smooth="yes"/>
      <point x="522.348" y="344.826"/>
      <point x="523.945" y="406.582"/>
      <point x="523.945" y="471.478" type="curve" smooth="yes"/>
      <point x="523.945" y="521.397"/>
      <point x="523" y="573.174"/>
      <point x="523" y="631" type="curve" smooth="yes"/>
      <point x="523" y="647"/>
      <point x="530" y="681"/>
      <point x="573" y="681" type="curve" smooth="yes"/>
      <point x="616" y="681"/>
      <point x="622" y="648"/>
    </contour>
  </outline>
</glyph>
<glyph name="W" format="1">
  <advance width="893"/>
  <unicode hex="0057"/>
  <outline>
    <contour>
      <point x="595" y="214" type="line"/>
      <point x="755" y="657" type="line" smooth="yes"/>
      <point x="763" y="679"/>
      <point x="779" y="692"/>
      <point x="803" y="692" type="curve" smooth="yes"/>
      <point x="830" y="692"/>
      <point x="851" y="673"/>
      <point x="851" y="648" type="curve" smooth="yes"/>
      <point x="851" y="640"/>
      <point x="851" y="631"/>
      <point x="846" y="616" type="curve" smooth="yes"/>
      <point x="635" y="32" type="line" smooth="yes"/>
      <point x="628" y="12"/>
      <point x="611" y="0"/>
      <point x="590" y="0" type="curve" smooth="yes"/>
      <point x="564" y="0"/>
      <point x="548" y="13"/>
      <point x="542" y="36" type="curve" smooth="yes"/>
      <point x="425" y="458" type="line"/>
      <point x="288" y="34" type="line" smooth="yes"/>
      <point x="279" y="7"/>
      <point x="263" y="0"/>
      <point x="240" y="0" type="curve" smooth="yes"/>
      <point x="215" y="0"/>
      <point x="201" y="12"/>
      <point x="194" y="34" type="curve" smooth="yes"/>
      <point x="20" y="605" type="line" smooth="yes"/>
      <point x="15" y="623"/>
      <point x="15" y="629"/>
      <point x="15" y="637" type="curve" smooth="yes"/>
      <point x="15" y="662"/>
      <point x="36" y="681"/>
      <point x="63" y="681" type="curve" smooth="yes"/>
      <point x="87" y="681"/>
      <point x="104" y="668"/>
      <point x="111" y="646" type="curve" smooth="yes"/>
      <point x="242" y="215" type="line"/>
      <point x="382" y="647" type="line" smooth="yes"/>
      <point x="390" y="671"/>
      <point x="407" y="681"/>
      <point x="430" y="681" type="curve" smooth="yes"/>
      <point x="452" y="681"/>
      <point x="469" y="670"/>
      <point x="476" y="646" type="curve" smooth="yes"/>
    </contour>
  </outline>
</glyph>
<glyph name="X" format="1">
  <advance width="707"/>
  <unicode hex="0058"/>
  <outline>
    <contour>
      <point x="410" y="345" type="line"/>
      <point x="621" y="79" type="line" smooth="yes"/>
      <point x="629" y="69"/>
      <point x="630" y="60"/>
      <point x="630" y="49" type="curve" smooth="yes"/>
      <point x="630" y="23"/>
      <point x="609" y="0"/>
      <point x="582" y="0" type="curve" smooth="yes"/>
      <point x="567" y="0"/>
      <point x="553" y="6"/>
      <point x="543" y="18" type="curve" smooth="yes"/>
      <point x="344" y="266" type="line"/>
      <point x="135" y="18" type="line" smooth="yes"/>
      <point x="123" y="4"/>
      <point x="112" y="0"/>
      <point x="98" y="0" type="curve" smooth="yes"/>
      <point x="68" y="0"/>
      <point x="48" y="24"/>
      <point x="48" y="49" type="curve" smooth="yes"/>
      <point x="48" y="61"/>
      <point x="53" y="74"/>
      <point x="59" y="81" type="curve" smooth="yes"/>
      <point x="282" y="346" type="line"/>
      <point x="79" y="601" type="line" smooth="yes"/>
      <point x="73" y="609"/>
      <point x="67" y="619"/>
      <point x="67" y="632" type="curve" smooth="yes"/>
      <point x="67" y="660"/>
      <point x="92" y="681"/>
      <point x="118" y="681" type="curve" smooth="yes"/>
      <point x="132" y="681"/>
      <point x="146" y="675"/>
      <point x="156" y="663" type="curve" smooth="yes"/>
      <point x="347" y="424" type="line"/>
      <point x="548" y="663" type="line" smooth="yes"/>
      <point x="558" y="675"/>
      <point x="572" y="681"/>
      <point x="586" y="681" type="curve" smooth="yes"/>
      <point x="612" y="681"/>
      <point x="636" y="658"/>
      <point x="636" y="632" type="curve" smooth="yes"/>
      <point x="636" y="620"/>
      <point x="630" y="608"/>
      <point x="624" y="600" type="curve" smooth="yes"/>
    </contour>
  </outline>
</glyph>
<glyph name="bracketright" format="1">
  <advance width="341"/>
  <unicode hex="005D"/>
  <outline>
    <contour>
      <point x="116" y="778" type="curve" smooth="yes"/>
      <point x="226" y="778" type="line" smooth="yes"/>
      <point x="253" y="778"/>
      <point x="274" y="757"/>
      <point x="274" y="729" type="curve" smooth="yes"/>
      <point x="274" y="-64" type="line" smooth="yes"/>
      <point x="274" y="-90"/>
      <point x="253" y="-113"/>
      <point x="226" y="-113" type="curve" smooth="yes"/>
      <point x="102" y="-113" type="line" smooth="yes"/>
      <point x="76" y="-113"/>
      <point x="54" y="-90"/>
      <point x="54" y="-64" type="curve" smooth="yes"/>
      <point x="54" y="-37"/>
      <point x="76" y="-16"/>
      <point x="102" y="-16" type="curve" smooth="yes"/>
      <point x="178" y="-16" type="line"/>
      <point x="178" y="681" type="line"/>
      <point x="116" y="681" type="line" smooth="yes"/>
      <point x="91" y="681"/>
      <point x="68" y="704"/>
      <point x="68" y="729" type="curve" smooth="yes"/>
      <point x="68" y="757"/>
      <point x="91" y="778"/>
    </contour>
  </outline>
</glyph>
<glyph name="b" format="1">
  <advance width="550"/>
  <unicode hex="0062"/>
  <outline>
    <contour>
      <point x="298" y="491" type="curve" smooth="yes"/>
      <point x="430" y="491"/>
      <point x="479" y="373"/>
      <point x="479" y="269" type="curve" smooth="yes"/>
      <point x="479" y="124"/>
      <point x="415" y="6"/>
      <point x="259" y="6" type="curve" smooth="yes"/>
      <point x="221" y="6"/>
      <point x="181" y="15"/>
      <point x="151" y="24" type="curve"/>
      <point x="143" y="11"/>
      <point x="125" y="1"/>
      <point x="108" y="1" type="curve" smooth="yes"/>
      <point x="82" y="1"/>
      <point x="62" y="22"/>
      <point x="62" y="46" type="curve" smooth="yes"/>
      <point x="62" y="627" type="line" smooth="yes"/>
      <point x="62" y="654"/>
      <point x="84" y="672"/>
      <point x="110" y="672" type="curve" smooth="yes"/>
      <point x="134" y="672"/>
      <point x="157" y="654"/>
      <point x="157" y="627" type="curve" smooth="yes"/>
      <point x="157" y="446" type="line"/>
      <point x="198" y="476"/>
      <point x="245" y="491"/>
    </contour>
    <contour>
      <point x="252" y="100" type="curve" smooth="yes"/>
      <point x="350" y="100"/>
      <point x="385" y="167"/>
      <point x="385" y="269" type="curve" smooth="yes"/>
      <point x="385" y="322"/>
      <point x="367" y="395"/>
      <point x="301" y="395" type="curve" smooth="yes"/>
      <point x="219" y="395"/>
      <point x="157" y="348"/>
      <point x="157" y="290" type="curve" smooth="yes"/>
      <point x="157" y="117" type="line"/>
      <point x="178" y="110"/>
      <point x="215" y="100"/>
    </contour>
  </outline>
</glyph>
<glyph name="c" format="1">
  <advance width="535"/>
  <unicode hex="0063"/>
  <outline>
    <contour>
      <point x="374" y="147" type="curve" smooth="yes"/>
      <point x="381" y="156"/>
      <point x="394" y="172"/>
      <point x="417" y="172" type="curve" smooth="yes"/>
      <point x="443" y="172"/>
      <point x="464" y="151"/>
      <point x="464" y="124" type="curve" smooth="yes"/>
      <point x="464" y="112"/>
      <point x="459" y="102"/>
      <point x="453" y="94" type="curve" smooth="yes"/>
      <point x="418" y="47"/>
      <point x="349" y="0"/>
      <point x="275" y="0" type="curve" smooth="yes"/>
      <point x="155" y="0"/>
      <point x="47" y="91"/>
      <point x="47" y="219" type="curve" smooth="yes"/>
      <point x="47" y="266"/>
      <point x="61" y="310"/>
      <point x="71" y="335" type="curve" smooth="yes"/>
      <point x="96" y="401"/>
      <point x="173" y="500"/>
      <point x="272" y="500" type="curve" smooth="yes"/>
      <point x="347" y="500"/>
      <point x="384" y="476"/>
      <point x="424" y="430" type="curve" smooth="yes"/>
      <point x="433" y="419"/>
      <point x="437" y="408"/>
      <point x="437" y="396" type="curve" smooth="yes"/>
      <point x="437" y="370"/>
      <point x="415" y="349"/>
      <point x="389" y="349" type="curve" smooth="yes"/>
      <point x="372" y="349"/>
      <point x="364" y="354"/>
      <point x="358" y="361" type="curve" smooth="yes"/>
      <point x="334" y="389"/>
      <point x="312" y="407"/>
      <point x="274" y="407" type="curve" smooth="yes"/>
      <point x="224" y="407"/>
      <point x="176" y="346"/>
      <point x="157" y="302" type="curve"/>
      <point x="146" y="272"/>
      <point x="141" y="243"/>
      <point x="141" y="221" type="curve" smooth="yes"/>
      <point x="141" y="122"/>
      <point x="229" y="93"/>
      <point x="263" y="93" type="curve" smooth="yes"/>
      <point x="320" y="93"/>
      <point x="352" y="117"/>
    </contour>
  </outline>
</glyph>
<glyph name="f" format="1">
  <advance width="397"/>
  <unicode hex="0066"/>
  <outline>
    <contour>
      <point x="62" y="501" type="curve" smooth="yes"/>
      <point x="110" y="501" type="line"/>
      <point x="116" y="630"/>
      <point x="177" y="673"/>
      <point x="314" y="673" type="curve" smooth="yes"/>
      <point x="347" y="673"/>
      <point x="372" y="664"/>
      <point x="372" y="627" type="curve" smooth="yes"/>
      <point x="372" y="602"/>
      <point x="355" y="580"/>
      <point x="325" y="580" type="curve" smooth="yes"/>
      <point x="242" y="580"/>
      <point x="212" y="570"/>
      <point x="206" y="501" type="curve"/>
      <point x="308" y="500" type="line" smooth="yes"/>
      <point x="328" y="500"/>
      <point x="353" y="480"/>
      <point x="353" y="454" type="curve" smooth="yes"/>
      <point x="353" y="430"/>
      <point x="333" y="408"/>
      <point x="308" y="408" type="curve" smooth="yes"/>
      <point x="205" y="408" type="line"/>
      <point x="205" y="46" type="line" smooth="yes"/>
      <point x="205" y="22"/>
      <point x="182" y="0"/>
      <point x="157" y="0" type="curve" smooth="yes"/>
      <point x="132" y="0"/>
      <point x="109" y="22"/>
      <point x="109" y="46" type="curve" smooth="yes"/>
      <point x="109" y="408" type="line"/>
      <point x="63" y="408" type="line" smooth="yes"/>
      <point x="39" y="408"/>
      <point x="17" y="430"/>
      <point x="17" y="454" type="curve" smooth="yes"/>
      <point x="17" y="479"/>
      <point x="39" y="501"/>
    </contour>
  </outline>
</glyph>
<glyph name="g" format="1">
  <advance width="547"/>
  <unicode hex="0067"/>
  <outline>
    <contour>
      <point x="125" y="-154" type="curve" smooth="yes"/>
      <point x="104" y="-149"/>
      <point x="88" y="-130"/>
      <point x="88" y="-107" type="curve" smooth="yes"/>
      <point x="88" y="-80"/>
      <point x="111" y="-59"/>
      <point x="136" y="-59" type="curve" smooth="yes"/>
      <point x="146" y="-59"/>
      <point x="158" y="-61"/>
      <point x="170" y="-64" type="curve" smooth="yes"/>
      <point x="195" y="-70"/>
      <point x="215" y="-72"/>
      <point x="242" y="-72" type="curve" smooth="yes"/>
      <point x="321" y="-72"/>
      <point x="351" y="-27"/>
      <point x="354" y="45" type="curve"/>
      <point x="324" y="24"/>
      <point x="290" y="9"/>
      <point x="251" y="9" type="curve" smooth="yes"/>
      <point x="134" y="9"/>
      <point x="48" y="105"/>
      <point x="48" y="242" type="curve" smooth="yes"/>
      <point x="48" y="374"/>
      <point x="151" y="500"/>
      <point x="286" y="500" type="curve" smooth="yes"/>
      <point x="317" y="500"/>
      <point x="346" y="491"/>
      <point x="369" y="482" type="curve"/>
      <point x="374" y="500"/>
      <point x="389" y="510"/>
      <point x="415" y="510" type="curve" smooth="yes"/>
      <point x="441" y="510"/>
      <point x="463" y="498"/>
      <point x="462" y="461" type="curve" smooth="yes"/>
      <point x="452" y="39" type="line" smooth="yes"/>
      <point x="449" y="-104"/>
      <point x="362" y="-168"/>
      <point x="243" y="-168" type="curve" smooth="yes"/>
      <point x="198" y="-168"/>
      <point x="155" y="-161"/>
    </contour>
    <contour>
      <point x="361" y="265" type="curve" smooth="yes"/>
      <point x="361" y="386" type="line"/>
      <point x="343" y="396"/>
      <point x="314" y="404"/>
      <point x="290" y="404" type="curve" smooth="yes"/>
      <point x="207" y="404"/>
      <point x="139" y="333"/>
      <point x="139" y="238" type="curve" smooth="yes"/>
      <point x="139" y="182"/>
      <point x="168" y="103"/>
      <point x="244" y="103" type="curve" smooth="yes"/>
      <point x="296" y="103"/>
      <point x="361" y="133"/>
    </contour>
  </outline>
</glyph>
<glyph name="h" format="1">
  <advance width="529"/>
  <unicode hex="0068"/>
  <outline>
    <contour>
      <point x="456" y="45" type="curve"/>
      <point x="455" y="20"/>
      <point x="435" y="0"/>
      <point x="409" y="0" type="curve" smooth="yes"/>
      <point x="380" y="0"/>
      <point x="362" y="21"/>
      <point x="362" y="47" type="curve" smooth="yes"/>
      <point x="362" y="73"/>
      <point x="364" y="100"/>
      <point x="364" y="163" type="curve" smooth="yes"/>
      <point x="364" y="380"/>
      <point x="333" y="406"/>
      <point x="310" y="406" type="curve" smooth="yes"/>
      <point x="245" y="406"/>
      <point x="183" y="297"/>
      <point x="169" y="269" type="curve" smooth="yes"/>
      <point x="160" y="249"/>
      <point x="157" y="225"/>
      <point x="157" y="198" type="curve" smooth="yes"/>
      <point x="157" y="49" type="line" smooth="yes"/>
      <point x="157" y="17"/>
      <point x="135" y="-1"/>
      <point x="109" y="-1" type="curve" smooth="yes"/>
      <point x="84" y="-1"/>
      <point x="61" y="22"/>
      <point x="61" y="47" type="curve" smooth="yes"/>
      <point x="61" y="623" type="line" smooth="yes"/>
      <point x="61" y="649"/>
      <point x="82" y="672"/>
      <point x="109" y="672" type="curve" smooth="yes"/>
      <point x="138" y="672"/>
      <point x="157" y="649"/>
      <point x="157" y="623" type="curve" smooth="yes"/>
      <point x="157" y="408" type="line"/>
      <point x="199" y="461"/>
      <point x="257" y="501"/>
      <point x="316" y="501" type="curve" smooth="yes"/>
      <point x="424" y="501"/>
      <point x="459" y="391"/>
      <point x="459" y="170" type="curve" smooth="yes"/>
      <point x="459" y="109"/>
      <point x="459" y="73"/>
    </contour>
  </outline>
</glyph>
<glyph name="i" format="1">
  <advance width="245"/>
  <unicode hex="0069"/>
  <outline>
    <contour>
      <point x="167" y="447" type="curve" smooth="yes"/>
      <point x="162" y="49" type="line" smooth="yes"/>
      <point x="162" y="22"/>
      <point x="140" y="0"/>
      <point x="113" y="0" type="curve" smooth="yes"/>
      <point x="86" y="0"/>
      <point x="64" y="22"/>
      <point x="64" y="49" type="curve" smooth="yes"/>
      <point x="69" y="447" type="line" smooth="yes"/>
      <point x="69" y="474"/>
      <point x="91" y="496"/>
      <point x="118" y="496" type="curve" smooth="yes"/>
      <point x="146" y="496"/>
      <point x="167" y="474"/>
    </contour>
    <contour>
      <point x="118" y="541" type="curve" smooth="yes"/>
      <point x="92" y="541"/>
      <point x="70" y="564"/>
      <point x="71" y="590" type="curve" smooth="yes"/>
      <point x="72" y="627" type="line" smooth="yes"/>
      <point x="73" y="653"/>
      <point x="95" y="674"/>
      <point x="120" y="674" type="curve" smooth="yes"/>
      <point x="146" y="674"/>
      <point x="168" y="650"/>
      <point x="167" y="626" type="curve" smooth="yes"/>
      <point x="166" y="588" type="line" smooth="yes"/>
      <point x="165" y="561"/>
      <point x="145" y="541"/>
    </contour>
  </outline>
</glyph>
<glyph name="j" format="1">
  <advance width="359"/>
  <unicode hex="006A"/>
  <outline>
    <contour>
      <point x="82" y="11" type="curve" smooth="yes"/>
      <point x="94" y="-24"/>
      <point x="120" y="-73"/>
      <point x="150" y="-73" type="curve" smooth="yes"/>
      <point x="184" y="-73"/>
      <point x="186" y="-10"/>
      <point x="186" y="16" type="curve" smooth="yes"/>
      <point x="186" y="28"/>
      <point x="184" y="122"/>
      <point x="183" y="220" type="curve" smooth="yes"/>
      <point x="182" y="328"/>
      <point x="180" y="437"/>
      <point x="180" y="452" type="curve" smooth="yes"/>
      <point x="180" y="480"/>
      <point x="199" y="501"/>
      <point x="228" y="501" type="curve" smooth="yes"/>
      <point x="253" y="501"/>
      <point x="276" y="479"/>
      <point x="276" y="453" type="curve" smooth="yes"/>
      <point x="276" y="445"/>
      <point x="278" y="362"/>
      <point x="279" y="272" type="curve" smooth="yes"/>
      <point x="281" y="164"/>
      <point x="281" y="35"/>
      <point x="281" y="21" type="curve" smooth="yes"/>
      <point x="281" y="-45"/>
      <point x="262" y="-164"/>
      <point x="152" y="-164" type="curve" smooth="yes"/>
      <point x="48" y="-164"/>
      <point x="-2" y="-43"/>
      <point x="-10" y="-20" type="curve" smooth="yes"/>
      <point x="-11" y="-16"/>
      <point x="-13" y="-9"/>
      <point x="-13" y="-3" type="curve" smooth="yes"/>
      <point x="-13" y="22"/>
      <point x="7" y="45"/>
      <point x="36" y="45" type="curve" smooth="yes"/>
      <point x="61" y="45"/>
      <point x="76" y="31"/>
    </contour>
    <contour>
      <point x="284" y="631" type="curve" smooth="yes"/>
      <point x="280" y="588" type="line" smooth="yes"/>
      <point x="278" y="562"/>
      <point x="252" y="549"/>
      <point x="231" y="549" type="curve" smooth="yes"/>
      <point x="203" y="549"/>
      <point x="183" y="574"/>
      <point x="185" y="599" type="curve" smooth="yes"/>
      <point x="189" y="642" type="line" smooth="yes"/>
      <point x="192" y="667"/>
      <point x="214" y="682"/>
      <point x="237" y="682" type="curve" smooth="yes"/>
      <point x="268" y="682"/>
      <point x="286" y="655"/>
    </contour>
  </outline>
</glyph>
<glyph name="n" format="1">
  <advance width="561"/>
  <unicode hex="006E"/>
  <outline>
    <contour>
      <point x="110" y="0" type="curve" smooth="yes"/>
      <point x="140" y="0"/>
      <point x="157" y="22"/>
      <point x="157" y="50" type="curve" smooth="yes"/>
      <point x="157" y="134" type="line" smooth="yes"/>
      <point x="157" y="194"/>
      <point x="175" y="254"/>
      <point x="204" y="308" type="curve" smooth="yes"/>
      <point x="247" y="387"/>
      <point x="287" y="404"/>
      <point x="319" y="404" type="curve" smooth="yes"/>
      <point x="351" y="404"/>
      <point x="380" y="398"/>
      <point x="380" y="178" type="curve" smooth="yes"/>
      <point x="380" y="47" type="line" smooth="yes"/>
      <point x="380" y="23"/>
      <point x="402" y="0"/>
      <point x="428" y="0" type="curve" smooth="yes"/>
      <point x="455" y="0"/>
      <point x="474" y="23"/>
      <point x="474" y="48" type="curve" smooth="yes"/>
      <point x="475" y="161" type="line" smooth="yes"/>
      <point x="475.081" y="170.316"/>
      <point x="475.124" y="179.431"/>
      <point x="475.124" y="188.346" type="curve" smooth="yes"/>
      <point x="475.124" y="400.457"/>
      <point x="450.636" y="499"/>
      <point x="323" y="499" type="curve" smooth="yes"/>
      <point x="255" y="499"/>
      <point x="196" y="451"/>
      <point x="158" y="395" type="curve"/>
      <point x="158" y="452" type="line" smooth="yes"/>
      <point x="158" y="479"/>
      <point x="137" y="500"/>
      <point x="112" y="500" type="curve" smooth="yes"/>
      <point x="86" y="500"/>
      <point x="62" y="479"/>
      <point x="62" y="452" type="curve" smooth="yes"/>
      <point x="62" y="46" type="line" smooth="yes"/>
      <point x="62" y="22"/>
      <point x="84" y="0"/>
    </contour>
  </outline>
</glyph>
<glyph name="q" format="1">
  <advance width="540"/>
  <unicode hex="0071"/>
  <outline>
    <contour>
      <point x="340" y="-120" type="curve" smooth="yes"/>
      <point x="345" y="17" type="line"/>
      <point x="325" y="4"/>
      <point x="299" y="-5"/>
      <point x="261" y="-5" type="curve" smooth="yes"/>
      <point x="133" y="-5"/>
      <point x="47" y="90"/>
      <point x="47" y="214" type="curve" smooth="yes"/>
      <point x="47" y="382"/>
      <point x="155" y="490"/>
      <point x="316" y="490" type="curve" smooth="yes"/>
      <point x="331" y="490"/>
      <point x="348" y="489"/>
      <point x="364" y="487" type="curve"/>
      <point x="371" y="504"/>
      <point x="389" y="516"/>
      <point x="409" y="516" type="curve" smooth="yes"/>
      <point x="433" y="516"/>
      <point x="456" y="500"/>
      <point x="455" y="468" type="curve" smooth="yes"/>
      <point x="434" y="-124" type="line" smooth="yes"/>
      <point x="433" y="-157"/>
      <point x="412" y="-172"/>
      <point x="386" y="-172" type="curve" smooth="yes"/>
      <point x="355" y="-172"/>
      <point x="339" y="-146"/>
    </contour>
    <contour>
      <point x="252" y="85" type="curve" smooth="yes"/>
      <point x="311" y="85"/>
      <point x="349" y="116"/>
      <point x="351" y="173" type="curve" smooth="yes"/>
      <point x="359" y="396" type="line"/>
      <point x="344" y="398"/>
      <point x="328" y="399"/>
      <point x="316" y="399" type="curve" smooth="yes"/>
      <point x="212" y="399"/>
      <point x="138" y="332"/>
      <point x="138" y="213" type="curve" smooth="yes"/>
      <point x="138" y="138"/>
      <point x="190" y="85"/>
    </contour>
  </outline>
</glyph>
<glyph name="s" format="1">
  <advance width="484"/>
  <unicode hex="0073"/>
  <outline>
    <contour>
      <point x="139" y="153" type="curve" smooth="yes"/>
      <point x="152" y="114"/>
      <point x="187" y="90"/>
      <point x="235" y="90" type="curve" smooth="yes"/>
      <point x="299" y="90"/>
      <point x="320" y="131"/>
      <point x="320" y="150" type="curve" smooth="yes"/>
      <point x="320" y="179"/>
      <point x="304" y="195"/>
      <point x="229" y="218" type="curve" smooth="yes"/>
      <point x="121" y="251"/>
      <point x="73" y="292"/>
      <point x="73" y="368" type="curve" smooth="yes"/>
      <point x="73" y="472"/>
      <point x="177" y="499"/>
      <point x="251" y="499" type="curve" smooth="yes"/>
      <point x="357" y="499"/>
      <point x="414" y="450"/>
      <point x="414" y="374" type="curve" smooth="yes"/>
      <point x="414" y="332"/>
      <point x="400" y="310"/>
      <point x="366" y="310" type="curve" smooth="yes"/>
      <point x="334" y="310"/>
      <point x="319" y="332"/>
      <point x="319" y="357" type="curve" smooth="yes"/>
      <point x="319" y="362"/>
      <point x="320" y="367"/>
      <point x="320" y="375" type="curve" smooth="yes"/>
      <point x="320" y="395"/>
      <point x="301" y="410"/>
      <point x="253" y="410" type="curve" smooth="yes"/>
      <point x="202" y="410"/>
      <point x="166" y="393"/>
      <point x="166" y="367" type="curve" smooth="yes"/>
      <point x="166" y="332"/>
      <point x="217" y="318"/>
      <point x="247" y="309" type="curve" smooth="yes"/>
      <point x="340" y="279"/>
      <point x="413" y="256"/>
      <point x="413" y="149" type="curve" smooth="yes"/>
      <point x="413" y="77"/>
      <point x="344" y="-2"/>
      <point x="235" y="-2" type="curve" smooth="yes"/>
      <point x="108" y="-2"/>
      <point x="47" y="102"/>
      <point x="47" y="139" type="curve" smooth="yes"/>
      <point x="47" y="165"/>
      <point x="68" y="186"/>
      <point x="94" y="186" type="curve" smooth="yes"/>
      <point x="117" y="186"/>
      <point x="133" y="172"/>
    </contour>
  </outline>
</glyph>
<glyph name="w" format="1">
  <advance width="620"/>
  <unicode hex="0077"/>
  <outline>
    <contour>
      <point x="406" y="202" type="line"/>
      <point x="485" y="462" type="line" smooth="yes"/>
      <point x="491" y="482"/>
      <point x="510" y="499"/>
      <point x="532" y="499" type="curve" smooth="yes"/>
      <point x="557" y="499"/>
      <point x="580" y="480"/>
      <point x="580" y="454" type="curve" smooth="yes"/>
      <point x="580" y="446"/>
      <point x="579" y="441"/>
      <point x="577" y="435" type="curve" smooth="yes"/>
      <point x="449" y="36" type="line" smooth="yes"/>
      <point x="442" y="15"/>
      <point x="427" y="0"/>
      <point x="403" y="0" type="curve" smooth="yes"/>
      <point x="380" y="0"/>
      <point x="363" y="11"/>
      <point x="356" y="37" type="curve" smooth="yes"/>
      <point x="289" y="299" type="line"/>
      <point x="193" y="35" type="line" smooth="yes"/>
      <point x="185" y="12"/>
      <point x="168" y="0"/>
      <point x="147" y="0" type="curve" smooth="yes"/>
      <point x="119" y="0"/>
      <point x="104" y="15"/>
      <point x="99" y="39" type="curve" smooth="yes"/>
      <point x="16" y="434" type="line" smooth="yes"/>
      <point x="14" y="444"/>
      <point x="13" y="450"/>
      <point x="13" y="458" type="curve" smooth="yes"/>
      <point x="13" y="479"/>
      <point x="34" y="500"/>
      <point x="60" y="500" type="curve" smooth="yes"/>
      <point x="86" y="500"/>
      <point x="103" y="483"/>
      <point x="107" y="460" type="curve" smooth="yes"/>
      <point x="158" y="207" type="line"/>
      <point x="248" y="465" type="line" smooth="yes"/>
      <point x="255" y="486"/>
      <point x="274" y="500"/>
      <point x="296" y="500" type="curve" smooth="yes"/>
      <point x="320" y="500"/>
      <point x="338" y="489"/>
      <point x="344" y="465" type="curve" smooth="yes"/>
    </contour>
  </outline>
</glyph>
<glyph name="z" format="1">
  <advance width="515"/>
  <unicode hex="007A"/>
  <outline>
    <contour>
      <point x="47" y="77" type="curve" smooth="yes"/>
      <point x="307" y="404" type="line"/>
      <point x="95" y="404" type="line" smooth="yes"/>
      <point x="68" y="404"/>
      <point x="47" y="425"/>
      <point x="47" y="452" type="curve" smooth="yes"/>
      <point x="47" y="478"/>
      <point x="68" y="501"/>
      <point x="95" y="501" type="curve" smooth="yes"/>
      <point x="402" y="501" type="line" smooth="yes"/>
      <point x="432" y="501"/>
      <point x="450" y="478"/>
      <point x="450" y="452" type="curve" smooth="yes"/>
      <point x="450" y="441"/>
      <point x="448" y="433"/>
      <point x="440" y="423" type="curve" smooth="yes"/>
      <point x="180" y="96" type="line"/>
      <point x="406" y="96" type="line" smooth="yes"/>
      <point x="432" y="96"/>
      <point x="454" y="74"/>
      <point x="454" y="48" type="curve" smooth="yes"/>
      <point x="454" y="23"/>
      <point x="432" y="0"/>
      <point x="406" y="0" type="curve" smooth="yes"/>
      <point x="85" y="0" type="line" smooth="yes"/>
      <point x="53" y="0"/>
      <point x="37" y="23"/>
      <point x="37" y="48" type="curve" smooth="yes"/>
      <point x="37" y="56"/>
      <point x="39" y="67"/>
    </contour>
  </outline>
</glyph>
<glyph name="bar" format="1">
  <advance width="219"/>
  <unicode hex="007C"/>
  <outline>
    <contour>
      <point x="105" y="-153" type="curve" smooth="yes"/>
      <point x="79" y="-153"/>
      <point x="56" y="-132"/>
      <point x="56" y="-104" type="curve" smooth="yes"/>
      <point x="56" y="760" type="line" smooth="yes"/>
      <point x="56" y="786"/>
      <point x="79" y="808"/>
      <point x="105" y="808" type="curve" smooth="yes"/>
      <point x="132" y="808"/>
      <point x="153" y="786"/>
      <point x="153" y="760" type="curve" smooth="yes"/>
      <point x="153" y="-104" type="line" smooth="yes"/>
      <point x="153" y="-132"/>
      <point x="132" y="-153"/>
    </contour>
  </outline>
</glyph>
<glyph name="braceright" format="1">
  <advance width="402"/>
  <unicode hex="007D"/>
  <outline>
    <contour>
      <point x="301" y="284" type="curve"/>
      <point x="262" y="264"/>
      <point x="253" y="244"/>
      <point x="253" y="215" type="curve" smooth="yes"/>
      <point x="253" y="43" type="line" smooth="yes"/>
      <point x="253" y="-59"/>
      <point x="168" y="-102"/>
      <point x="103" y="-112" type="curve"/>
      <point x="99.6532" y="-112.609"/>
      <point x="96.4195" y="-112.898"/>
      <point x="93.3104" y="-112.898" type="curve" smooth="yes"/>
      <point x="65.7638" y="-112.898"/>
      <point x="48" y="-90.1603"/>
      <point x="48" y="-65" type="curve" smooth="yes"/>
      <point x="48" y="-40"/>
      <point x="62" y="-24"/>
      <point x="90" y="-18" type="curve" smooth="yes"/>
      <point x="115" y="-13"/>
      <point x="159" y="2"/>
      <point x="159" y="43" type="curve" smooth="yes"/>
      <point x="159" y="214" type="line" smooth="yes"/>
      <point x="159" y="261"/>
      <point x="175" y="299"/>
      <point x="201" y="327" type="curve"/>
      <point x="178" y="355"/>
      <point x="159" y="394"/>
      <point x="159" y="439" type="curve" smooth="yes"/>
      <point x="159" y="624" type="line" smooth="yes"/>
      <point x="159" y="665"/>
      <point x="115" y="681"/>
      <point x="89" y="685" type="curve"/>
      <point x="65" y="690"/>
      <point x="48" y="709"/>
      <point x="48" y="732" type="curve" smooth="yes"/>
      <point x="48" y="761.817"/>
      <point x="67.9961" y="780.098"/>
      <point x="96.5225" y="780.098" type="curve" smooth="yes"/>
      <point x="100.524" y="780.098"/>
      <point x="104.694" y="779.738"/>
      <point x="109" y="779" type="curve"/>
      <point x="172" y="766"/>
      <point x="253" y="726"/>
      <point x="253" y="624" type="curve" smooth="yes"/>
      <point x="253" y="438" type="line" smooth="yes"/>
      <point x="253" y="403"/>
      <point x="274" y="380"/>
      <point x="299" y="370" type="curve" smooth="yes"/>
      <point x="322" y="362"/>
      <point x="330" y="347"/>
      <point x="330" y="328" type="curve" smooth="yes"/>
      <point x="330" y="303"/>
      <point x="323" y="294"/>
    </contour>
  </outline>
</glyph>
<glyph name="asciitilde" format="1">
  <advance width="666"/>
  <unicode hex="007E"/>
  <outline>
    <contour>
      <point x="566" y="280" type="curve" smooth="yes"/>
      <point x="547" y="232"/>
      <point x="503" y="136"/>
      <point x="407" y="136" type="curve" smooth="yes"/>
      <point x="339" y="136"/>
      <point x="306" y="182"/>
      <point x="276" y="223" type="curve" smooth="yes"/>
      <point x="255" y="253"/>
      <point x="240" y="271"/>
      <point x="221" y="271" type="curve" smooth="yes"/>
      <point x="187" y="271"/>
      <point x="164" y="229"/>
      <point x="156" y="201" type="curve"/>
      <point x="149" y="181"/>
      <point x="134" y="167"/>
      <point x="110" y="167" type="curve" smooth="yes"/>
      <point x="84" y="167"/>
      <point x="64" y="188"/>
      <point x="64" y="214" type="curve" smooth="yes"/>
      <point x="64" y="221"/>
      <point x="65" y="226"/>
      <point x="68" y="233" type="curve" smooth="yes"/>
      <point x="94" y="304"/>
      <point x="141" y="365"/>
      <point x="221" y="365" type="curve" smooth="yes"/>
      <point x="289" y="365"/>
      <point x="323" y="320"/>
      <point x="352" y="279" type="curve" smooth="yes"/>
      <point x="374" y="249"/>
      <point x="388" y="231"/>
      <point x="407" y="231" type="curve" smooth="yes"/>
      <point x="443" y="231"/>
      <point x="465" y="282"/>
      <point x="476" y="310" type="curve" smooth="yes"/>
      <point x="485" y="335"/>
      <point x="503" y="348"/>
      <point x="523" y="348" type="curve" smooth="yes"/>
      <point x="549" y="348"/>
      <point x="570" y="327"/>
      <point x="570" y="301" type="curve" smooth="yes"/>
      <point x="570" y="296"/>
      <point x="569" y="287"/>
    </contour>
  </outline>
</glyph>
<glyph name="exclamdown" format="1">
  <advance width="222"/>
  <unicode hex="00A1"/>
  <outline>
    <contour>
      <point x="144" y="279" type="curve" smooth="yes"/>
      <point x="144" y="-129" type="line" smooth="yes"/>
      <point x="144" y="-155"/>
      <point x="122" y="-179"/>
      <point x="95" y="-179" type="curve" smooth="yes"/>
      <point x="67" y="-179"/>
      <point x="46" y="-155"/>
      <point x="46" y="-129" type="curve" smooth="yes"/>
      <point x="46" y="279" type="line" smooth="yes"/>
      <point x="46" y="306"/>
      <point x="67" y="328"/>
      <point x="95" y="328" type="curve" smooth="yes"/>
      <point x="122" y="328"/>
      <point x="144" y="306"/>
    </contour>
    <contour>
      <point x="44" y="431" type="curve" smooth="yes"/>
      <point x="44" y="468"/>
      <point x="74" y="496"/>
      <point x="103" y="496" type="curve" smooth="yes"/>
      <point x="134" y="496"/>
      <point x="155" y="471"/>
      <point x="155" y="440" type="curve" smooth="yes"/>
      <point x="155" y="406"/>
      <point x="126" y="375"/>
      <point x="96" y="375" type="curve" smooth="yes"/>
      <point x="65" y="375"/>
      <point x="44" y="402"/>
    </contour>
  </outline>
</glyph>
<glyph name="sterling" format="1">
  <advance width="770"/>
  <unicode hex="00A3"/>
  <outline>
    <contour>
      <point x="625" y="188" type="curve" smooth="yes"/>
      <point x="655" y="188"/>
      <point x="672" y="164"/>
      <point x="672" y="138" type="curve" smooth="yes"/>
      <point x="672" y="67"/>
      <point x="588" y="-9"/>
      <point x="510" y="-9" type="curve" smooth="yes"/>
      <point x="458" y="-9"/>
      <point x="397" y="13"/>
      <point x="346" y="51" type="curve" smooth="yes"/>
      <point x="334" y="60"/>
      <point x="319" y="64"/>
      <point x="306" y="64" type="curve" smooth="yes"/>
      <point x="268" y="64"/>
      <point x="234" y="38"/>
      <point x="211" y="21" type="curve" smooth="yes"/>
      <point x="194" y="8"/>
      <point x="181" y="0"/>
      <point x="169" y="0" type="curve" smooth="yes"/>
      <point x="143" y="0"/>
      <point x="122" y="21"/>
      <point x="122" y="47" type="curve" smooth="yes"/>
      <point x="122" y="63"/>
      <point x="130" y="77"/>
      <point x="141" y="85" type="curve" smooth="yes"/>
      <point x="181" y="118"/>
      <point x="204" y="174"/>
      <point x="204" y="214" type="curve" smooth="yes"/>
      <point x="204" y="237"/>
      <point x="201" y="264"/>
      <point x="189" y="297" type="curve"/>
      <point x="113" y="297" type="line" smooth="yes"/>
      <point x="86" y="297"/>
      <point x="65" y="320"/>
      <point x="65" y="344" type="curve" smooth="yes"/>
      <point x="65" y="371"/>
      <point x="86" y="392"/>
      <point x="113" y="392" type="curve" smooth="yes"/>
      <point x="168" y="392" type="line"/>
      <point x="165" y="414"/>
      <point x="164" y="439"/>
      <point x="164" y="461" type="curve" smooth="yes"/>
      <point x="164" y="623"/>
      <point x="247" y="705"/>
      <point x="417" y="705" type="curve" smooth="yes"/>
      <point x="547" y="705"/>
      <point x="603" y="602"/>
      <point x="621" y="525" type="curve" smooth="yes"/>
      <point x="622.306" y="519.615"/>
      <point x="622.945" y="514.336"/>
      <point x="622.945" y="509.272" type="curve" smooth="yes"/>
      <point x="622.945" y="483.307"/>
      <point x="606.125" y="463"/>
      <point x="576" y="463" type="curve" smooth="yes"/>
      <point x="551" y="463"/>
      <point x="533" y="480"/>
      <point x="528" y="506" type="curve" smooth="yes"/>
      <point x="516" y="569"/>
      <point x="471" y="610"/>
      <point x="405" y="610" type="curve" smooth="yes"/>
      <point x="305" y="610"/>
      <point x="259" y="565"/>
      <point x="259" y="461" type="curve" smooth="yes"/>
      <point x="259" y="441"/>
      <point x="261" y="418"/>
      <point x="264" y="392" type="curve"/>
      <point x="460" y="392" type="line" smooth="yes"/>
      <point x="486" y="392"/>
      <point x="507" y="371"/>
      <point x="507" y="344" type="curve" smooth="yes"/>
      <point x="507" y="320"/>
      <point x="486" y="297"/>
      <point x="460" y="297" type="curve" smooth="yes"/>
      <point x="284" y="297" type="line"/>
      <point x="291" y="271"/>
      <point x="299" y="243"/>
      <point x="299" y="214" type="curve" smooth="yes"/>
      <point x="299" y="198"/>
      <point x="297" y="179"/>
      <point x="293" y="159" type="curve"/>
      <point x="306" y="159" type="line" smooth="yes"/>
      <point x="341" y="159"/>
      <point x="373" y="148"/>
      <point x="402" y="126" type="curve" smooth="yes"/>
      <point x="437" y="100"/>
      <point x="475" y="85"/>
      <point x="508" y="85" type="curve" smooth="yes"/>
      <point x="542" y="85"/>
      <point x="568" y="106"/>
      <point x="578" y="145" type="curve" smooth="yes"/>
      <point x="585" y="172"/>
      <point x="600" y="188"/>
    </contour>
  </outline>
</glyph>
<glyph name="yen" format="1">
  <advance width="599"/>
  <unicode hex="00A5"/>
  <outline>
    <contour>
      <point x="452" y="676" type="curve" smooth="yes"/>
      <point x="477" y="676"/>
      <point x="501" y="655"/>
      <point x="501" y="628" type="curve" smooth="yes"/>
      <point x="501" y="621"/>
      <point x="500" y="612"/>
      <point x="493" y="599" type="curve" smooth="yes"/>
      <point x="360" y="356" type="line"/>
      <point x="407" y="356" type="line" smooth="yes"/>
      <point x="434" y="356"/>
      <point x="455" y="335"/>
      <point x="455" y="309" type="curve" smooth="yes"/>
      <point x="455" y="283"/>
      <point x="434" y="262"/>
      <point x="407" y="262" type="curve" smooth="yes"/>
      <point x="324" y="262" type="line"/>
      <point x="324" y="216" type="line"/>
      <point x="407" y="216" type="line" smooth="yes"/>
      <point x="434" y="216"/>
      <point x="455" y="195"/>
      <point x="455" y="169" type="curve" smooth="yes"/>
      <point x="455" y="143"/>
      <point x="434" y="122"/>
      <point x="407" y="122" type="curve" smooth="yes"/>
      <point x="324" y="122" type="line"/>
      <point x="324" y="48" type="line" smooth="yes"/>
      <point x="324" y="23"/>
      <point x="303" y="0"/>
      <point x="276" y="0" type="curve" smooth="yes"/>
      <point x="250" y="0"/>
      <point x="228" y="23"/>
      <point x="228" y="48" type="curve" smooth="yes"/>
      <point x="228" y="122" type="line"/>
      <point x="145" y="122" type="line" smooth="yes"/>
      <point x="119" y="122"/>
      <point x="98" y="143"/>
      <point x="98" y="169" type="curve" smooth="yes"/>
      <point x="98" y="195"/>
      <point x="119" y="216"/>
      <point x="145" y="216" type="curve" smooth="yes"/>
      <point x="228" y="216" type="line"/>
      <point x="228" y="262" type="line"/>
      <point x="145" y="262" type="line" smooth="yes"/>
      <point x="119" y="262"/>
      <point x="98" y="283"/>
      <point x="98" y="309" type="curve" smooth="yes"/>
      <point x="98" y="335"/>
      <point x="119" y="356"/>
      <point x="145" y="356" type="curve" smooth="yes"/>
      <point x="195" y="356" type="line"/>
      <point x="71" y="605" type="line" smooth="yes"/>
      <point x="68" y="612"/>
      <point x="66" y="620"/>
      <point x="66" y="626" type="curve" smooth="yes"/>
      <point x="66" y="650"/>
      <point x="86" y="674"/>
      <point x="115" y="674" type="curve" smooth="yes"/>
      <point x="132" y="674"/>
      <point x="148" y="665"/>
      <point x="157" y="648" type="curve" smooth="yes"/>
      <point x="278" y="406" type="line"/>
      <point x="410" y="650" type="line" smooth="yes"/>
      <point x="419" y="667"/>
      <point x="434" y="676"/>
    </contour>
  </outline>
</glyph>
<glyph name="dieresis" format="1">
  <advance width="526"/>
  <unicode hex="00A8"/>
  <outline>
    <contour>
      <point x="225" y="586" type="curve" smooth="yes"/>
      <point x="225" y="551"/>
      <point x="195" y="523"/>
      <point x="156" y="523" type="curve" smooth="yes"/>
      <point x="121" y="523"/>
      <point x="93" y="547"/>
      <point x="93" y="581" type="curve" smooth="yes"/>
      <point x="93" y="614"/>
      <point x="123" y="644"/>
      <point x="162" y="644" type="curve" smooth="yes"/>
      <point x="194" y="644"/>
      <point x="225" y="619"/>
    </contour>
    <contour>
      <point x="410" y="586" type="curve" smooth="yes"/>
      <point x="410" y="551"/>
      <point x="380" y="523"/>
      <point x="341" y="523" type="curve" smooth="yes"/>
      <point x="305" y="523"/>
      <point x="277" y="547"/>
      <point x="277" y="581" type="curve" smooth="yes"/>
      <point x="277" y="614"/>
      <point x="308" y="644"/>
      <point x="346" y="644" type="curve" smooth="yes"/>
      <point x="379" y="644"/>
      <point x="410" y="619"/>
    </contour>
  </outline>
</glyph>
<glyph name="ordfeminine" format="1">
  <advance width="276"/>
  <unicode hex="00AA"/>
  <outline>
    <contour>
      <point x="225" y="311" type="curve" smooth="yes"/>
      <point x="211" y="311"/>
      <point x="197" y="317"/>
      <point x="189" y="327" type="curve"/>
      <point x="172" y="321"/>
      <point x="154" y="315"/>
      <point x="126" y="315" type="curve" smooth="yes"/>
      <point x="51" y="315"/>
      <point x="-4" y="378"/>
      <point x="-4" y="461" type="curve" smooth="yes"/>
      <point x="-4" y="551"/>
      <point x="51" y="652"/>
      <point x="152" y="652" type="curve" smooth="yes"/>
      <point x="199" y="652"/>
      <point x="249" y="630"/>
      <point x="268" y="615" type="curve"/>
      <point x="269" y="356" type="line" smooth="yes"/>
      <point x="269" y="332"/>
      <point x="249" y="311"/>
    </contour>
    <contour>
      <point x="156" y="561" type="curve" smooth="yes"/>
      <point x="107" y="561"/>
      <point x="87" y="504"/>
      <point x="87" y="463" type="curve" smooth="yes"/>
      <point x="87" y="437"/>
      <point x="99" y="405"/>
      <point x="127" y="405" type="curve" smooth="yes"/>
      <point x="143" y="405"/>
      <point x="164" y="416"/>
      <point x="177" y="423" type="curve"/>
      <point x="179" y="558" type="line"/>
      <point x="173" y="560"/>
      <point x="162" y="561"/>
    </contour>
  </outline>
</glyph>
<glyph name="registered" format="1">
  <advance width="570"/>
  <unicode hex="00AE"/>
  <outline>
    <contour>
      <point x="401" y="495" type="curve" smooth="yes"/>
      <point x="401" y="458"/>
      <point x="372" y="435"/>
      <point x="339" y="421" type="curve"/>
      <point x="356" y="409" type="line" smooth="yes"/>
      <point x="370" y="399"/>
      <point x="376" y="387"/>
      <point x="376" y="372" type="curve" smooth="yes"/>
      <point x="376" y="348"/>
      <point x="357" y="329"/>
      <point x="333" y="329" type="curve" smooth="yes"/>
      <point x="323" y="329"/>
      <point x="315" y="331"/>
      <point x="308" y="336" type="curve" smooth="yes"/>
      <point x="244" y="381" type="line"/>
      <point x="242" y="368" type="line" smooth="yes"/>
      <point x="238" y="345"/>
      <point x="222" y="330"/>
      <point x="198" y="330" type="curve" smooth="yes"/>
      <point x="174.422" y="330"/>
      <point x="153.311" y="349.737"/>
      <point x="153.311" y="373.549" type="curve" smooth="yes"/>
      <point x="153.311" y="375.995"/>
      <point x="153.534" y="378.485"/>
      <point x="154" y="381" type="curve" smooth="yes"/>
      <point x="181" y="541" type="line" smooth="yes"/>
      <point x="186" y="572"/>
      <point x="186" y="581"/>
      <point x="273" y="581" type="curve" smooth="yes"/>
      <point x="355" y="581"/>
      <point x="401" y="548"/>
    </contour>
    <contour>
      <point x="277" y="177" type="curve" smooth="yes"/>
      <point x="132" y="177"/>
      <point x="12" y="298"/>
      <point x="12" y="447" type="curve" smooth="yes"/>
      <point x="12" y="596"/>
      <point x="132" y="718"/>
      <point x="277" y="718" type="curve" smooth="yes"/>
      <point x="423" y="718"/>
      <point x="542" y="596"/>
      <point x="542" y="447" type="curve" smooth="yes"/>
      <point x="542" y="298"/>
      <point x="423" y="177"/>
    </contour>
    <contour>
      <point x="277" y="648" type="curve" smooth="yes"/>
      <point x="170" y="648"/>
      <point x="82" y="558"/>
      <point x="82" y="447" type="curve" smooth="yes"/>
      <point x="82" y="336"/>
      <point x="170" y="247"/>
      <point x="277" y="247" type="curve" smooth="yes"/>
      <point x="385" y="247"/>
      <point x="472" y="336"/>
      <point x="472" y="447" type="curve" smooth="yes"/>
      <point x="472" y="558"/>
      <point x="385" y="648"/>
    </contour>
  </outline>
</glyph>
<glyph name="degree" format="1">
  <advance width="269"/>
  <unicode hex="00B0"/>
  <outline>
    <contour>
      <point x="129" y="422" type="curve" smooth="yes"/>
      <point x="56" y="422"/>
      <point x="-4" y="481"/>
      <point x="-4" y="555" type="curve" smooth="yes"/>
      <point x="-4" y="629"/>
      <point x="56" y="689"/>
      <point x="129" y="689" type="curve" smooth="yes"/>
      <point x="203" y="689"/>
      <point x="262" y="629"/>
      <point x="262" y="555" type="curve" smooth="yes"/>
      <point x="262" y="481"/>
      <point x="203" y="422"/>
    </contour>
    <contour>
      <point x="129" y="601" type="curve" smooth="yes"/>
      <point x="104" y="601"/>
      <point x="82" y="580"/>
      <point x="82" y="555" type="curve" smooth="yes"/>
      <point x="82" y="530"/>
      <point x="104" y="509"/>
      <point x="129" y="509" type="curve" smooth="yes"/>
      <point x="155" y="509"/>
      <point x="176" y="530"/>
      <point x="176" y="555" type="curve" smooth="yes"/>
      <point x="176" y="580"/>
      <point x="155" y="601"/>
    </contour>
  </outline>
</glyph>
<glyph name="plusminus" format="1">
  <advance width="467"/>
  <unicode hex="00B1"/>
  <outline>
    <contour>
      <point x="53" y="292" type="curve" smooth="yes"/>
      <point x="53" y="316"/>
      <point x="75" y="339"/>
      <point x="99" y="339" type="curve" smooth="yes"/>
      <point x="176" y="339" type="line"/>
      <point x="176" y="405" type="line" smooth="yes"/>
      <point x="176" y="428"/>
      <point x="193" y="451"/>
      <point x="223" y="451" type="curve" smooth="yes"/>
      <point x="249" y="451"/>
      <point x="269" y="428"/>
      <point x="269" y="405" type="curve" smooth="yes"/>
      <point x="269" y="339" type="line"/>
      <point x="346" y="339" type="line" smooth="yes"/>
      <point x="369" y="339"/>
      <point x="393" y="318"/>
      <point x="393" y="292" type="curve" smooth="yes"/>
      <point x="393" y="267"/>
      <point x="369" y="245"/>
      <point x="346" y="245" type="curve" smooth="yes"/>
      <point x="269" y="245" type="line"/>
      <point x="269" y="170" type="line" smooth="yes"/>
      <point x="269" y="145"/>
      <point x="246" y="124"/>
      <point x="223" y="124" type="curve" smooth="yes"/>
      <point x="197" y="124"/>
      <point x="176" y="146"/>
      <point x="176" y="170" type="curve" smooth="yes"/>
      <point x="176" y="245" type="line"/>
      <point x="99" y="245" type="line" smooth="yes"/>
      <point x="73" y="245"/>
      <point x="53" y="266"/>
    </contour>
    <contour>
      <point x="68" y="46" type="curve" smooth="yes"/>
      <point x="68" y="73"/>
      <point x="90" y="93"/>
      <point x="114" y="93" type="curve" smooth="yes"/>
      <point x="331" y="93" type="line" smooth="yes"/>
      <point x="356" y="93"/>
      <point x="377" y="71"/>
      <point x="377" y="46" type="curve" smooth="yes"/>
      <point x="377" y="18"/>
      <point x="356" y="-1"/>
      <point x="331" y="-1" type="curve" smooth="yes"/>
      <point x="114" y="-1" type="line" smooth="yes"/>
      <point x="90" y="-1"/>
      <point x="68" y="16"/>
    </contour>
  </outline>
</glyph>
<glyph name="twosuperior" format="1">
  <advance width="266"/>
  <unicode hex="00B2"/>
  <outline>
    <contour>
      <point x="211" y="402" type="curve" smooth="yes"/>
      <point x="-2" y="402" type="line"/>
      <point x="-2" y="446" type="line" smooth="yes"/>
      <point x="-2" y="547"/>
      <point x="41" y="588"/>
      <point x="137" y="644" type="curve" smooth="yes"/>
      <point x="153" y="653"/>
      <point x="163" y="666"/>
      <point x="163" y="683" type="curve" smooth="yes"/>
      <point x="163" y="697"/>
      <point x="149" y="709"/>
      <point x="127" y="709" type="curve" smooth="yes"/>
      <point x="106" y="709"/>
      <point x="87" y="694"/>
      <point x="78" y="685" type="curve" smooth="yes"/>
      <point x="64" y="670"/>
      <point x="57" y="663"/>
      <point x="39" y="663" type="curve" smooth="yes"/>
      <point x="12" y="663"/>
      <point x="-4" y="679"/>
      <point x="-4" y="706" type="curve" smooth="yes"/>
      <point x="-4" y="715"/>
      <point x="-3" y="725"/>
      <point x="6" y="735" type="curve" smooth="yes"/>
      <point x="25" y="757"/>
      <point x="69" y="796"/>
      <point x="126" y="796" type="curve" smooth="yes"/>
      <point x="190" y="796"/>
      <point x="250" y="755"/>
      <point x="250" y="683" type="curve" smooth="yes"/>
      <point x="250" y="614"/>
      <point x="204" y="585"/>
      <point x="159" y="559" type="curve" smooth="yes"/>
      <point x="133" y="543"/>
      <point x="101" y="519"/>
      <point x="93" y="491" type="curve"/>
      <point x="211" y="491" type="line" smooth="yes"/>
      <point x="230" y="491"/>
      <point x="255" y="474"/>
      <point x="255" y="446" type="curve" smooth="yes"/>
      <point x="255" y="423"/>
      <point x="232" y="402"/>
    </contour>
  </outline>
</glyph>
<glyph name="threesuperior" format="1">
  <advance width="262"/>
  <unicode hex="00B3"/>
  <outline>
    <contour>
      <point x="2" y="468" type="curve" smooth="yes"/>
      <point x="-3" y="476"/>
      <point x="-4" y="486"/>
      <point x="-4" y="491" type="curve" smooth="yes"/>
      <point x="-4" y="516"/>
      <point x="13" y="536"/>
      <point x="38" y="536" type="curve" smooth="yes"/>
      <point x="59" y="536"/>
      <point x="70" y="524"/>
      <point x="78" y="511" type="curve" smooth="yes"/>
      <point x="87" y="496"/>
      <point x="106" y="487"/>
      <point x="124" y="487" type="curve" smooth="yes"/>
      <point x="140" y="487"/>
      <point x="167" y="494"/>
      <point x="167" y="526" type="curve" smooth="yes"/>
      <point x="167" y="549"/>
      <point x="153" y="563"/>
      <point x="112" y="567" type="curve" smooth="yes"/>
      <point x="87" y="569"/>
      <point x="71" y="582"/>
      <point x="71" y="609" type="curve" smooth="yes"/>
      <point x="71" y="638"/>
      <point x="87" y="649"/>
      <point x="112" y="651" type="curve" smooth="yes"/>
      <point x="143" y="654"/>
      <point x="160" y="667"/>
      <point x="160" y="685" type="curve" smooth="yes"/>
      <point x="160" y="703"/>
      <point x="146" y="711"/>
      <point x="123" y="711" type="curve" smooth="yes"/>
      <point x="103" y="711"/>
      <point x="91" y="705"/>
      <point x="83" y="699" type="curve" smooth="yes"/>
      <point x="74" y="692"/>
      <point x="62" y="688"/>
      <point x="50" y="688" type="curve" smooth="yes"/>
      <point x="29" y="688"/>
      <point x="10" y="703"/>
      <point x="10" y="731" type="curve" smooth="yes"/>
      <point x="10" y="762"/>
      <point x="61" y="799"/>
      <point x="123" y="799" type="curve" smooth="yes"/>
      <point x="185" y="799"/>
      <point x="247" y="761"/>
      <point x="247" y="695" type="curve" smooth="yes"/>
      <point x="247" y="658"/>
      <point x="230" y="627"/>
      <point x="209" y="613" type="curve"/>
      <point x="236" y="600"/>
      <point x="256" y="569"/>
      <point x="256" y="531" type="curve" smooth="yes"/>
      <point x="256" y="452"/>
      <point x="193" y="400"/>
      <point x="124" y="400" type="curve" smooth="yes"/>
      <point x="57" y="400"/>
      <point x="19" y="441"/>
    </contour>
  </outline>
</glyph>
<glyph name="paragraph" format="1">
  <advance width="585"/>
  <unicode hex="00B6"/>
  <outline>
    <contour>
      <point x="496" y="673" type="curve" smooth="yes"/>
      <point x="497" y="649"/>
      <point x="497" y="622"/>
      <point x="497" y="599" type="curve" smooth="yes"/>
      <point x="497" y="375"/>
      <point x="476" y="163"/>
      <point x="433" y="-35" type="curve" smooth="yes"/>
      <point x="428" y="-56"/>
      <point x="414" y="-72"/>
      <point x="386" y="-72" type="curve" smooth="yes"/>
      <point x="356.239" y="-72"/>
      <point x="348.024" y="-57.4416"/>
      <point x="348.024" y="-36.7682" type="curve" smooth="yes"/>
      <point x="348.024" y="-30.3505"/>
      <point x="348.816" y="-23.3436"/>
      <point x="350" y="-16" type="curve" smooth="yes"/>
      <point x="381" y="162"/>
      <point x="411" y="362"/>
      <point x="411" y="599" type="curve" smooth="yes"/>
      <point x="411" y="622"/>
      <point x="410" y="645"/>
      <point x="410" y="669" type="curve" smooth="yes"/>
      <point x="410" y="694"/>
      <point x="425" y="719"/>
      <point x="452" y="719" type="curve" smooth="yes"/>
      <point x="479" y="719"/>
      <point x="494" y="699"/>
    </contour>
    <contour>
      <point x="379" y="715" type="curve" smooth="yes"/>
      <point x="379" y="683"/>
      <point x="363" y="670"/>
      <point x="344" y="665" type="curve"/>
      <point x="344" y="589" type="line" smooth="yes"/>
      <point x="344" y="368"/>
      <point x="318" y="149"/>
      <point x="281" y="-35" type="curve" smooth="yes"/>
      <point x="276" y="-57"/>
      <point x="261" y="-73"/>
      <point x="235" y="-73" type="curve" smooth="yes"/>
      <point x="205.378" y="-73"/>
      <point x="194.594" y="-56.5936"/>
      <point x="194.594" y="-33.7279" type="curve" smooth="yes"/>
      <point x="194.594" y="-27.2603"/>
      <point x="195.457" y="-20.276"/>
      <point x="197" y="-13" type="curve" smooth="yes"/>
      <point x="210" y="48"/>
      <point x="237" y="230"/>
      <point x="245" y="317" type="curve"/>
      <point x="136" y="319"/>
      <point x="36" y="372"/>
      <point x="36" y="501" type="curve" smooth="yes"/>
      <point x="36" y="646"/>
      <point x="174" y="730"/>
      <point x="327" y="759" type="curve" smooth="yes"/>
      <point x="331.005" y="759.829"/>
      <point x="334.895" y="760.238"/>
      <point x="338.626" y="760.238" type="curve" smooth="yes"/>
      <point x="361.914" y="760.238"/>
      <point x="379" y="744.305"/>
    </contour>
  </outline>
</glyph>
<glyph name="periodcentered" format="1">
  <advance width="198"/>
  <unicode hex="00B7"/>
  <outline>
    <contour>
      <point x="91" y="191" type="curve" smooth="yes"/>
      <point x="61" y="191"/>
      <point x="40" y="216"/>
      <point x="40" y="248" type="curve" smooth="yes"/>
      <point x="40" y="281"/>
      <point x="68" y="312"/>
      <point x="99" y="312" type="curve" smooth="yes"/>
      <point x="128" y="312"/>
      <point x="150" y="287"/>
      <point x="150" y="256" type="curve" smooth="yes"/>
      <point x="150" y="220"/>
      <point x="122" y="191"/>
    </contour>
  </outline>
</glyph>
<glyph name="cedilla" format="1">
  <advance width="526"/>
  <unicode hex="00B8"/>
  <outline>
    <contour>
      <point x="237" y="-126" type="curve" smooth="yes"/>
      <point x="242" y="-130"/>
      <point x="248" y="-132"/>
      <point x="257" y="-132" type="curve" smooth="yes"/>
      <point x="273" y="-132"/>
      <point x="280" y="-118"/>
      <point x="280" y="-106" type="curve" smooth="yes"/>
      <point x="280" y="-94"/>
      <point x="272" y="-86"/>
      <point x="256" y="-83" type="curve" smooth="yes"/>
      <point x="207" y="-73" type="line" smooth="yes"/>
      <point x="193.605" y="-70.1799"/>
      <point x="188.659" y="-61.3954"/>
      <point x="188.659" y="-50.1505" type="curve" smooth="yes"/>
      <point x="188.659" y="-45.4455"/>
      <point x="189.525" y="-40.3098"/>
      <point x="191" y="-35" type="curve" smooth="yes"/>
      <point x="204" y="13"/>
      <point x="213" y="41"/>
      <point x="236" y="41" type="curve" smooth="yes"/>
      <point x="249" y="41"/>
      <point x="260" y="37"/>
      <point x="260" y="-27" type="curve"/>
      <point x="320" y="-37"/>
      <point x="351" y="-61"/>
      <point x="351" y="-110" type="curve" smooth="yes"/>
      <point x="351" y="-168"/>
      <point x="304" y="-196"/>
      <point x="246" y="-196" type="curve" smooth="yes"/>
      <point x="208" y="-196"/>
      <point x="167" y="-180"/>
      <point x="167" y="-148" type="curve" smooth="yes"/>
      <point x="167" y="-131"/>
      <point x="180" y="-109"/>
      <point x="203" y="-109" type="curve" smooth="yes"/>
      <point x="220" y="-109"/>
      <point x="227" y="-118"/>
    </contour>
  </outline>
</glyph>
<glyph name="onesuperior" format="1">
  <advance width="192"/>
  <unicode hex="00B9"/>
  <outline>
    <contour>
      <point x="147" y="403" type="curve" smooth="yes"/>
      <point x="40" y="403" type="line" smooth="yes"/>
      <point x="10" y="403"/>
      <point x="-4" y="424"/>
      <point x="-4" y="447" type="curve" smooth="yes"/>
      <point x="-4" y="473"/>
      <point x="17" y="491"/>
      <point x="40" y="491" type="curve" smooth="yes"/>
      <point x="53" y="491" type="line"/>
      <point x="56" y="645" type="line"/>
      <point x="50" y="643"/>
      <point x="44" y="642"/>
      <point x="37" y="642" type="curve" smooth="yes"/>
      <point x="18" y="642"/>
      <point x="-6" y="660"/>
      <point x="-6" y="685" type="curve" smooth="yes"/>
      <point x="-6" y="696"/>
      <point x="-4" y="706"/>
      <point x="5" y="715" type="curve" smooth="yes"/>
      <point x="69" y="784" type="line" smooth="yes"/>
      <point x="78" y="794"/>
      <point x="89" y="799"/>
      <point x="100" y="799" type="curve" smooth="yes"/>
      <point x="125" y="799"/>
      <point x="145" y="785"/>
      <point x="145" y="754" type="curve"/>
      <point x="140" y="491" type="line"/>
      <point x="152" y="491" type="line" smooth="yes"/>
      <point x="174" y="491"/>
      <point x="190" y="470"/>
      <point x="190" y="447" type="curve" smooth="yes"/>
      <point x="190" y="419"/>
      <point x="168" y="403"/>
    </contour>
  </outline>
</glyph>
<glyph name="questiondown" format="1">
  <advance width="559"/>
  <unicode hex="00BF"/>
  <outline>
    <contour>
      <point x="350" y="259" type="curve" smooth="yes"/>
      <point x="337" y="248"/>
      <point x="318" y="235"/>
      <point x="299" y="219" type="curve" smooth="yes"/>
      <point x="219" y="153"/>
      <point x="150" y="103"/>
      <point x="150" y="28" type="curve" smooth="yes"/>
      <point x="150" y="-16"/>
      <point x="184" y="-76"/>
      <point x="280" y="-76" type="curve" smooth="yes"/>
      <point x="332" y="-76"/>
      <point x="366" y="-42"/>
      <point x="391" y="-14" type="curve" smooth="yes"/>
      <point x="399" y="-5"/>
      <point x="411" y="-1"/>
      <point x="423" y="-1" type="curve" smooth="yes"/>
      <point x="448" y="-1"/>
      <point x="471" y="-20"/>
      <point x="471" y="-49" type="curve" smooth="yes"/>
      <point x="471" y="-65"/>
      <point x="458" y="-81"/>
      <point x="446" y="-95" type="curve" smooth="yes"/>
      <point x="414" y="-129"/>
      <point x="351" y="-170"/>
      <point x="275" y="-170" type="curve" smooth="yes"/>
      <point x="142" y="-170"/>
      <point x="57" y="-91"/>
      <point x="57" y="35" type="curve" smooth="yes"/>
      <point x="57" y="127"/>
      <point x="122" y="186"/>
      <point x="178" y="236" type="curve" smooth="yes"/>
      <point x="296" y="340"/>
      <point x="308" y="342"/>
      <point x="320" y="342" type="curve" smooth="yes"/>
      <point x="346" y="342"/>
      <point x="367" y="321"/>
      <point x="367" y="295" type="curve" smooth="yes"/>
      <point x="367" y="282"/>
      <point x="361" y="268"/>
    </contour>
    <contour>
      <point x="351" y="501" type="curve" smooth="yes"/>
      <point x="382" y="501"/>
      <point x="403" y="476"/>
      <point x="403" y="444" type="curve" smooth="yes"/>
      <point x="403" y="411"/>
      <point x="374" y="380"/>
      <point x="344" y="380" type="curve" smooth="yes"/>
      <point x="314" y="380"/>
      <point x="292" y="405"/>
      <point x="292" y="436" type="curve" smooth="yes"/>
      <point x="292" y="472"/>
      <point x="320" y="501"/>
    </contour>
  </outline>
</glyph>
<glyph name="Agrave" format="1">
  <advance width="650"/>
  <unicode hex="00C0"/>
  <outline>
    <contour>
      <point x="375" y="655" type="curve" smooth="yes"/>
      <point x="578" y="67" type="line" smooth="yes"/>
      <point x="580" y="61"/>
      <point x="581" y="53"/>
      <point x="581" y="48" type="curve" smooth="yes"/>
      <point x="581" y="22"/>
      <point x="561" y="-1"/>
      <point x="531" y="-1" type="curve" smooth="yes"/>
      <point x="507" y="-1"/>
      <point x="493" y="8"/>
      <point x="484" y="33" type="curve" smooth="yes"/>
      <point x="412" y="241" type="line"/>
      <point x="208" y="196" type="line"/>
      <point x="143" y="32" type="line" smooth="yes"/>
      <point x="136" y="15"/>
      <point x="121" y="0"/>
      <point x="97" y="0" type="curve" smooth="yes"/>
      <point x="67" y="0"/>
      <point x="47" y="25"/>
      <point x="47" y="49" type="curve" smooth="yes"/>
      <point x="47" y="56"/>
      <point x="48" y="62"/>
      <point x="50" y="67" type="curve" smooth="yes"/>
      <point x="94" y="177" type="line"/>
      <point x="73" y="184"/>
      <point x="59" y="201"/>
      <point x="59" y="225" type="curve" smooth="yes"/>
      <point x="59" y="249"/>
      <point x="75" y="268"/>
      <point x="97" y="273" type="curve" smooth="yes"/>
      <point x="134" y="281" type="line"/>
      <point x="282" y="657" type="line" smooth="yes"/>
      <point x="290" y="677"/>
      <point x="309" y="688"/>
      <point x="329" y="688" type="curve" smooth="yes"/>
      <point x="349" y="688"/>
      <point x="367" y="679"/>
    </contour>
    <contour>
      <point x="250" y="306" type="line"/>
      <point x="379" y="334" type="line"/>
      <point x="325" y="495" type="line"/>
    </contour>
    <contour>
      <point x="345" y="713" type="curve" smooth="yes"/>
      <point x="238" y="824" type="line" smooth="yes"/>
      <point x="228" y="834"/>
      <point x="222" y="846"/>
      <point x="222" y="862" type="curve" smooth="yes"/>
      <point x="222" y="890"/>
      <point x="248" y="916"/>
      <point x="276" y="916" type="curve" smooth="yes"/>
      <point x="294" y="916"/>
      <point x="310" y="906"/>
      <point x="320" y="894" type="curve" smooth="yes"/>
      <point x="415" y="775" type="line" smooth="yes"/>
      <point x="424" y="763"/>
      <point x="427" y="755"/>
      <point x="427" y="745" type="curve" smooth="yes"/>
      <point x="427" y="718"/>
      <point x="403" y="698"/>
      <point x="379" y="698" type="curve" smooth="yes"/>
      <point x="364" y="698"/>
      <point x="353" y="704"/>
    </contour>
  </outline>
</glyph>
<glyph name="Atilde" format="1">
  <advance width="650"/>
  <unicode hex="00C3"/>
  <outline>
    <contour>
      <point x="459" y="871" type="curve" smooth="yes"/>
      <point x="463" y="886"/>
      <point x="475" y="893"/>
      <point x="490" y="893" type="curve" smooth="yes"/>
      <point x="509" y="893"/>
      <point x="529" y="883"/>
      <point x="529" y="860" type="curve" smooth="yes"/>
      <point x="529" y="856"/>
      <point x="529" y="849"/>
      <point x="526" y="838" type="curve" smooth="yes"/>
      <point x="516" y="807"/>
      <point x="481" y="705"/>
      <point x="380" y="705" type="curve" smooth="yes"/>
      <point x="348" y="705"/>
      <point x="321" y="722"/>
      <point x="299" y="753" type="curve" smooth="yes"/>
      <point x="283" y="776"/>
      <point x="272" y="788"/>
      <point x="257" y="788" type="curve" smooth="yes"/>
      <point x="222" y="788"/>
      <point x="205" y="736"/>
      <point x="200" y="720" type="curve" smooth="yes"/>
      <point x="195" y="705"/>
      <point x="186" y="698"/>
      <point x="171" y="698" type="curve" smooth="yes"/>
      <point x="152" y="698"/>
      <point x="132" y="708"/>
      <point x="132" y="731" type="curve" smooth="yes"/>
      <point x="132" y="735"/>
      <point x="132" y="742"/>
      <point x="135" y="753" type="curve" smooth="yes"/>
      <point x="152" y="810"/>
      <point x="191" y="877"/>
      <point x="269" y="877" type="curve" smooth="yes"/>
      <point x="308" y="877"/>
      <point x="334" y="860"/>
      <point x="356" y="829" type="curve" smooth="yes"/>
      <point x="372" y="807"/>
      <point x="383" y="793"/>
      <point x="398" y="793" type="curve" smooth="yes"/>
      <point x="419" y="793"/>
      <point x="445" y="817"/>
    </contour>
    <contour>
      <point x="375" y="655" type="curve" smooth="yes"/>
      <point x="578" y="67" type="line" smooth="yes"/>
      <point x="580" y="61"/>
      <point x="581" y="53"/>
      <point x="581" y="48" type="curve" smooth="yes"/>
      <point x="581" y="22"/>
      <point x="561" y="-1"/>
      <point x="531" y="-1" type="curve" smooth="yes"/>
      <point x="507" y="-1"/>
      <point x="493" y="8"/>
      <point x="484" y="33" type="curve" smooth="yes"/>
      <point x="412" y="241" type="line"/>
      <point x="208" y="196" type="line"/>
      <point x="143" y="32" type="line" smooth="yes"/>
      <point x="136" y="15"/>
      <point x="121" y="0"/>
      <point x="97" y="0" type="curve" smooth="yes"/>
      <point x="67" y="0"/>
      <point x="47" y="25"/>
      <point x="47" y="49" type="curve" smooth="yes"/>
      <point x="47" y="56"/>
      <point x="48" y="62"/>
      <point x="50" y="67" type="curve" smooth="yes"/>
      <point x="94" y="177" type="line"/>
      <point x="73" y="184"/>
      <point x="59" y="201"/>
      <point x="59" y="225" type="curve" smooth="yes"/>
      <point x="59" y="249"/>
      <point x="75" y="268"/>
      <point x="97" y="273" type="curve" smooth="yes"/>
      <point x="134" y="281" type="line"/>
      <point x="282" y="657" type="line" smooth="yes"/>
      <point x="290" y="677"/>
      <point x="309" y="688"/>
      <point x="329" y="688" type="curve" smooth="yes"/>
      <point x="349" y="688"/>
      <point x="367" y="679"/>
    </contour>
    <contour>
      <point x="250" y="306" type="line"/>
      <point x="379" y="334" type="line"/>
      <point x="325" y="495" type="line"/>
    </contour>
  </outline>
</glyph>
<glyph name="Ccedilla" format="1">
  <advance width="658"/>
  <unicode hex="00C7"/>
  <outline>
    <contour>
      <point x="339" y="-2" type="curve"/>
      <point x="340" y="-11"/>
      <point x="340" y="-18"/>
      <point x="340" y="-27" type="curve"/>
      <point x="400" y="-37"/>
      <point x="431" y="-61"/>
      <point x="431" y="-110" type="curve" smooth="yes"/>
      <point x="431" y="-168"/>
      <point x="384" y="-196"/>
      <point x="326" y="-196" type="curve" smooth="yes"/>
      <point x="288" y="-196"/>
      <point x="247" y="-180"/>
      <point x="247" y="-148" type="curve" smooth="yes"/>
      <point x="247" y="-131"/>
      <point x="260" y="-109"/>
      <point x="283" y="-109" type="curve" smooth="yes"/>
      <point x="300" y="-109"/>
      <point x="307" y="-118"/>
      <point x="317" y="-126" type="curve" smooth="yes"/>
      <point x="322" y="-130"/>
      <point x="328" y="-132"/>
      <point x="337" y="-132" type="curve" smooth="yes"/>
      <point x="353" y="-132"/>
      <point x="360" y="-118"/>
      <point x="360" y="-106" type="curve" smooth="yes"/>
      <point x="360" y="-94"/>
      <point x="352" y="-86"/>
      <point x="336" y="-83" type="curve" smooth="yes"/>
      <point x="287" y="-73" type="line" smooth="yes"/>
      <point x="273.605" y="-70.1799"/>
      <point x="268.659" y="-61.3954"/>
      <point x="268.659" y="-50.1505" type="curve" smooth="yes"/>
      <point x="268.659" y="-45.4455"/>
      <point x="269.525" y="-40.3098"/>
      <point x="271" y="-35" type="curve" smooth="yes"/>
      <point x="275" y="-20"/>
      <point x="278" y="-7"/>
      <point x="282" y="3" type="curve"/>
      <point x="149" y="30"/>
      <point x="47" y="148"/>
      <point x="47" y="299" type="curve" smooth="yes"/>
      <point x="47" y="501"/>
      <point x="206" y="684"/>
      <point x="346" y="684" type="curve" smooth="yes"/>
      <point x="404" y="684"/>
      <point x="449" y="669"/>
      <point x="479" y="653" type="curve"/>
      <point x="488" y="659"/>
      <point x="495" y="660"/>
      <point x="505" y="660" type="curve" smooth="yes"/>
      <point x="533" y="660"/>
      <point x="555" y="639"/>
      <point x="555" y="611" type="curve" smooth="yes"/>
      <point x="555" y="551" type="line" smooth="yes"/>
      <point x="555" y="524"/>
      <point x="533" y="501"/>
      <point x="505" y="501" type="curve" smooth="yes"/>
      <point x="478" y="501"/>
      <point x="457" y="521"/>
      <point x="455" y="547" type="curve"/>
      <point x="437" y="564"/>
      <point x="408" y="584"/>
      <point x="346" y="584" type="curve" smooth="yes"/>
      <point x="253" y="584"/>
      <point x="147" y="441"/>
      <point x="147" y="299" type="curve" smooth="yes"/>
      <point x="147" y="156"/>
      <point x="264" y="98"/>
      <point x="339" y="98" type="curve" smooth="yes"/>
      <point x="399" y="98"/>
      <point x="455" y="119"/>
      <point x="499" y="177" type="curve" smooth="yes"/>
      <point x="511" y="193"/>
      <point x="523" y="197"/>
      <point x="538" y="197" type="curve" smooth="yes"/>
      <point x="564" y="197"/>
      <point x="588" y="179"/>
      <point x="588" y="147" type="curve" smooth="yes"/>
      <point x="588" y="137"/>
      <point x="586" y="127"/>
      <point x="579" y="117" type="curve" smooth="yes"/>
      <point x="521" y="41"/>
      <point x="436" y="-2"/>
    </contour>
  </outline>
</glyph>
<glyph name="Eacute" format="1">
  <advance width="636"/>
  <unicode hex="00C9"/>
  <outline>
    <contour>
      <point x="160" y="100" type="line"/>
      <point x="508" y="100" type="line" smooth="yes"/>
      <point x="536" y="100"/>
      <point x="557" y="78"/>
      <point x="557" y="50" type="curve" smooth="yes"/>
      <point x="557" y="22"/>
      <point x="536" y="0"/>
      <point x="508" y="0" type="curve" smooth="yes"/>
      <point x="111" y="0" type="line" smooth="yes"/>
      <point x="83" y="0"/>
      <point x="61" y="22"/>
      <point x="61" y="50" type="curve" smooth="yes"/>
      <point x="61" y="632" type="line" smooth="yes"/>
      <point x="61" y="660"/>
      <point x="83" y="682"/>
      <point x="111" y="682" type="curve" smooth="yes"/>
      <point x="510" y="682" type="line" smooth="yes"/>
      <point x="538" y="682"/>
      <point x="559" y="660"/>
      <point x="559" y="632" type="curve" smooth="yes"/>
      <point x="559" y="605"/>
      <point x="538" y="582"/>
      <point x="510" y="582" type="curve" smooth="yes"/>
      <point x="160" y="582" type="line"/>
      <point x="160" y="401" type="line"/>
      <point x="464" y="401" type="line" smooth="yes"/>
      <point x="492" y="401"/>
      <point x="513" y="380"/>
      <point x="513" y="352" type="curve" smooth="yes"/>
      <point x="513" y="324"/>
      <point x="492" y="302"/>
      <point x="464" y="302" type="curve" smooth="yes"/>
      <point x="160" y="302" type="line"/>
    </contour>
    <contour>
      <point x="218" y="790" type="curve" smooth="yes"/>
      <point x="333" y="883" type="line" smooth="yes"/>
      <point x="343" y="891"/>
      <point x="357" y="902"/>
      <point x="374" y="902" type="curve" smooth="yes"/>
      <point x="404" y="902"/>
      <point x="427" y="878"/>
      <point x="427" y="847" type="curve" smooth="yes"/>
      <point x="427" y="832"/>
      <point x="422" y="817"/>
      <point x="408" y="807" type="curve" smooth="yes"/>
      <point x="284" y="722" type="line" smooth="yes"/>
      <point x="274" y="715"/>
      <point x="262" y="709"/>
      <point x="251" y="709" type="curve" smooth="yes"/>
      <point x="227" y="709"/>
      <point x="205" y="730"/>
      <point x="205" y="757" type="curve" smooth="yes"/>
      <point x="205" y="768"/>
      <point x="207" y="781"/>
    </contour>
  </outline>
</glyph>
<glyph name="Igrave" format="1">
  <advance width="459"/>
  <unicode hex="00CC"/>
  <outline>
    <contour>
      <point x="273" y="99" type="line"/>
      <point x="342" y="99" type="line" smooth="yes"/>
      <point x="372" y="99"/>
      <point x="391" y="77"/>
      <point x="391" y="49" type="curve" smooth="yes"/>
      <point x="391" y="21"/>
      <point x="370" y="-1"/>
      <point x="342" y="-1" type="curve" smooth="yes"/>
      <point x="103" y="-1" type="line" smooth="yes"/>
      <point x="75" y="-1"/>
      <point x="53" y="21"/>
      <point x="53" y="49" type="curve" smooth="yes"/>
      <point x="53" y="77"/>
      <point x="75" y="99"/>
      <point x="103" y="99" type="curve" smooth="yes"/>
      <point x="173" y="99" type="line"/>
      <point x="173" y="581" type="line"/>
      <point x="103" y="581" type="line" smooth="yes"/>
      <point x="75" y="581"/>
      <point x="53" y="604"/>
      <point x="53" y="632" type="curve" smooth="yes"/>
      <point x="53" y="660"/>
      <point x="75" y="681"/>
      <point x="103" y="681" type="curve" smooth="yes"/>
      <point x="342" y="681" type="line" smooth="yes"/>
      <point x="370" y="681"/>
      <point x="391" y="660"/>
      <point x="391" y="632" type="curve" smooth="yes"/>
      <point x="391" y="604"/>
      <point x="370" y="581"/>
      <point x="342" y="581" type="curve" smooth="yes"/>
      <point x="273" y="581" type="line"/>
    </contour>
    <contour>
      <point x="237" y="713" type="curve" smooth="yes"/>
      <point x="130" y="824" type="line" smooth="yes"/>
      <point x="120" y="834"/>
      <point x="114" y="846"/>
      <point x="114" y="862" type="curve" smooth="yes"/>
      <point x="114" y="890"/>
      <point x="140" y="916"/>
      <point x="168" y="916" type="curve" smooth="yes"/>
      <point x="186" y="916"/>
      <point x="202" y="906"/>
      <point x="212" y="894" type="curve" smooth="yes"/>
      <point x="307" y="775" type="line" smooth="yes"/>
      <point x="316" y="763"/>
      <point x="319" y="755"/>
      <point x="319" y="745" type="curve" smooth="yes"/>
      <point x="319" y="718"/>
      <point x="295" y="698"/>
      <point x="271" y="698" type="curve" smooth="yes"/>
      <point x="256" y="698"/>
      <point x="245" y="704"/>
    </contour>
  </outline>
</glyph>
<glyph name="Iacute" format="1">
  <advance width="459"/>
  <unicode hex="00CD"/>
  <outline>
    <contour>
      <point x="273" y="99" type="line"/>
      <point x="342" y="99" type="line" smooth="yes"/>
      <point x="372" y="99"/>
      <point x="391" y="77"/>
      <point x="391" y="49" type="curve" smooth="yes"/>
      <point x="391" y="21"/>
      <point x="370" y="-1"/>
      <point x="342" y="-1" type="curve" smooth="yes"/>
      <point x="103" y="-1" type="line" smooth="yes"/>
      <point x="75" y="-1"/>
      <point x="53" y="21"/>
      <point x="53" y="49" type="curve" smooth="yes"/>
      <point x="53" y="77"/>
      <point x="75" y="99"/>
      <point x="103" y="99" type="curve" smooth="yes"/>
      <point x="173" y="99" type="line"/>
      <point x="173" y="581" type="line"/>
      <point x="103" y="581" type="line" smooth="yes"/>
      <point x="75" y="581"/>
      <point x="53" y="604"/>
      <point x="53" y="632" type="curve" smooth="yes"/>
      <point x="53" y="660"/>
      <point x="75" y="681"/>
      <point x="103" y="681" type="curve" smooth="yes"/>
      <point x="342" y="681" type="line" smooth="yes"/>
      <point x="370" y="681"/>
      <point x="391" y="660"/>
      <point x="391" y="632" type="curve" smooth="yes"/>
      <point x="391" y="604"/>
      <point x="370" y="581"/>
      <point x="342" y="581" type="curve" smooth="yes"/>
      <point x="273" y="581" type="line"/>
    </contour>
    <contour>
      <point x="143" y="790" type="curve" smooth="yes"/>
      <point x="258" y="883" type="line" smooth="yes"/>
      <point x="268" y="891"/>
      <point x="282" y="902"/>
      <point x="299" y="902" type="curve" smooth="yes"/>
      <point x="329" y="902"/>
      <point x="352" y="878"/>
      <point x="352" y="847" type="curve" smooth="yes"/>
      <point x="352" y="832"/>
      <point x="347" y="817"/>
      <point x="333" y="807" type="curve" smooth="yes"/>
      <point x="209" y="722" type="line" smooth="yes"/>
      <point x="199" y="715"/>
      <point x="187" y="709"/>
      <point x="176" y="709" type="curve" smooth="yes"/>
      <point x="152" y="709"/>
      <point x="130" y="730"/>
      <point x="130" y="757" type="curve" smooth="yes"/>
      <point x="130" y="768"/>
      <point x="132" y="781"/>
    </contour>
  </outline>
</glyph>
<glyph name="Icircumflex" format="1">
  <advance width="459"/>
  <unicode hex="00CE"/>
  <outline>
    <contour>
      <point x="273" y="99" type="line"/>
      <point x="342" y="99" type="line" smooth="yes"/>
      <point x="372" y="99"/>
      <point x="391" y="77"/>
      <point x="391" y="49" type="curve" smooth="yes"/>
      <point x="391" y="21"/>
      <point x="370" y="-1"/>
      <point x="342" y="-1" type="curve" smooth="yes"/>
      <point x="103" y="-1" type="line" smooth="yes"/>
      <point x="75" y="-1"/>
      <point x="53" y="21"/>
      <point x="53" y="49" type="curve" smooth="yes"/>
      <point x="53" y="77"/>
      <point x="75" y="99"/>
      <point x="103" y="99" type="curve" smooth="yes"/>
      <point x="173" y="99" type="line"/>
      <point x="173" y="581" type="line"/>
      <point x="103" y="581" type="line" smooth="yes"/>
      <point x="75" y="581"/>
      <point x="53" y="604"/>
      <point x="53" y="632" type="curve" smooth="yes"/>
      <point x="53" y="660"/>
      <point x="75" y="681"/>
      <point x="103" y="681" type="curve" smooth="yes"/>
      <point x="342" y="681" type="line" smooth="yes"/>
      <point x="370" y="681"/>
      <point x="391" y="660"/>
      <point x="391" y="632" type="curve" smooth="yes"/>
      <point x="391" y="604"/>
      <point x="370" y="581"/>
      <point x="342" y="581" type="curve" smooth="yes"/>
      <point x="273" y="581" type="line"/>
    </contour>
    <contour>
      <point x="86" y="786" type="curve" smooth="yes"/>
      <point x="205" y="886" type="line" smooth="yes"/>
      <point x="216" y="895"/>
      <point x="228" y="898"/>
      <point x="237" y="898" type="curve" smooth="yes"/>
      <point x="249" y="898"/>
      <point x="263" y="892"/>
      <point x="275" y="880" type="curve" smooth="yes"/>
      <point x="371" y="784" type="line" smooth="yes"/>
      <point x="381" y="774"/>
      <point x="385" y="763"/>
      <point x="385" y="750" type="curve" smooth="yes"/>
      <point x="385" y="725"/>
      <point x="364" y="703"/>
      <point x="339" y="703" type="curve" smooth="yes"/>
      <point x="327" y="703"/>
      <point x="317" y="705"/>
      <point x="306" y="715" type="curve" smooth="yes"/>
      <point x="233" y="781" type="line"/>
      <point x="144" y="712" type="line" smooth="yes"/>
      <point x="133" y="704"/>
      <point x="125" y="703"/>
      <point x="115" y="703" type="curve" smooth="yes"/>
      <point x="90" y="703"/>
      <point x="68" y="723"/>
      <point x="68" y="750" type="curve" smooth="yes"/>
      <point x="68" y="763"/>
      <point x="74" y="776"/>
    </contour>
  </outline>
</glyph>
<glyph name="Idieresis" format="1">
  <advance width="459"/>
  <unicode hex="00CF"/>
  <outline>
    <contour>
      <point x="201" y="767" type="curve" smooth="yes"/>
      <point x="201" y="732"/>
      <point x="170" y="703"/>
      <point x="130" y="703" type="curve" smooth="yes"/>
      <point x="94" y="703"/>
      <point x="65" y="727"/>
      <point x="65" y="762" type="curve" smooth="yes"/>
      <point x="65" y="796"/>
      <point x="96" y="827"/>
      <point x="135" y="827" type="curve" smooth="yes"/>
      <point x="169" y="827"/>
      <point x="201" y="801"/>
    </contour>
    <contour>
      <point x="389" y="767" type="curve" smooth="yes"/>
      <point x="389" y="732"/>
      <point x="358" y="703"/>
      <point x="318" y="703" type="curve" smooth="yes"/>
      <point x="282" y="703"/>
      <point x="253" y="727"/>
      <point x="253" y="762" type="curve" smooth="yes"/>
      <point x="253" y="796"/>
      <point x="284" y="827"/>
      <point x="324" y="827" type="curve" smooth="yes"/>
      <point x="357" y="827"/>
      <point x="389" y="801"/>
    </contour>
    <contour>
      <point x="273" y="99" type="line"/>
      <point x="342" y="99" type="line" smooth="yes"/>
      <point x="372" y="99"/>
      <point x="391" y="77"/>
      <point x="391" y="49" type="curve" smooth="yes"/>
      <point x="391" y="21"/>
      <point x="370" y="-1"/>
      <point x="342" y="-1" type="curve" smooth="yes"/>
      <point x="103" y="-1" type="line" smooth="yes"/>
      <point x="75" y="-1"/>
      <point x="53" y="21"/>
      <point x="53" y="49" type="curve" smooth="yes"/>
      <point x="53" y="77"/>
      <point x="75" y="99"/>
      <point x="103" y="99" type="curve" smooth="yes"/>
      <point x="173" y="99" type="line"/>
      <point x="173" y="581" type="line"/>
      <point x="103" y="581" type="line" smooth="yes"/>
      <point x="75" y="581"/>
      <point x="53" y="604"/>
      <point x="53" y="632" type="curve" smooth="yes"/>
      <point x="53" y="660"/>
      <point x="75" y="681"/>
      <point x="103" y="681" type="curve" smooth="yes"/>
      <point x="342" y="681" type="line" smooth="yes"/>
      <point x="370" y="681"/>
      <point x="391" y="660"/>
      <point x="391" y="632" type="curve" smooth="yes"/>
      <point x="391" y="604"/>
      <point x="370" y="581"/>
      <point x="342" y="581" type="curve" smooth="yes"/>
      <point x="273" y="581" type="line"/>
    </contour>
  </outline>
</glyph>
<glyph name="Ntilde" format="1">
  <advance width="645"/>
  <unicode hex="00D1"/>
  <outline>
    <contour>
      <point x="473" y="22" type="curve" smooth="yes"/>
      <point x="161" y="473" type="line"/>
      <point x="160" y="49" type="line" smooth="yes"/>
      <point x="160" y="21"/>
      <point x="138" y="0"/>
      <point x="110" y="0" type="curve" smooth="yes"/>
      <point x="84" y="0"/>
      <point x="61" y="23"/>
      <point x="61" y="49" type="curve" smooth="yes"/>
      <point x="62" y="632" type="line" smooth="yes"/>
      <point x="62" y="658"/>
      <point x="81" y="681"/>
      <point x="110" y="681" type="curve" smooth="yes"/>
      <point x="125" y="681"/>
      <point x="142" y="673"/>
      <point x="151" y="660" type="curve" smooth="yes"/>
      <point x="464" y="207" type="line"/>
      <point x="464" y="632" type="line" smooth="yes"/>
      <point x="464" y="659"/>
      <point x="486" y="682"/>
      <point x="514" y="682" type="curve" smooth="yes"/>
      <point x="540" y="682"/>
      <point x="563" y="659"/>
      <point x="563" y="632" type="curve" smooth="yes"/>
      <point x="563" y="49" type="line" smooth="yes"/>
      <point x="563" y="20"/>
      <point x="541" y="0"/>
      <point x="514" y="0" type="curve" smooth="yes"/>
      <point x="499" y="0"/>
      <point x="483" y="8"/>
    </contour>
    <contour>
      <point x="449" y="871" type="curve" smooth="yes"/>
      <point x="453" y="886"/>
      <point x="465" y="893"/>
      <point x="480" y="893" type="curve" smooth="yes"/>
      <point x="499" y="893"/>
      <point x="519" y="883"/>
      <point x="519" y="860" type="curve" smooth="yes"/>
      <point x="519" y="856"/>
      <point x="519" y="849"/>
      <point x="516" y="838" type="curve" smooth="yes"/>
      <point x="506" y="807"/>
      <point x="471" y="705"/>
      <point x="370" y="705" type="curve" smooth="yes"/>
      <point x="338" y="705"/>
      <point x="311" y="722"/>
      <point x="289" y="753" type="curve" smooth="yes"/>
      <point x="273" y="776"/>
      <point x="262" y="788"/>
      <point x="247" y="788" type="curve" smooth="yes"/>
      <point x="212" y="788"/>
      <point x="195" y="736"/>
      <point x="190" y="720" type="curve" smooth="yes"/>
      <point x="185" y="705"/>
      <point x="176" y="698"/>
      <point x="161" y="698" type="curve" smooth="yes"/>
      <point x="142" y="698"/>
      <point x="122" y="708"/>
      <point x="122" y="731" type="curve" smooth="yes"/>
      <point x="122" y="735"/>
      <point x="122" y="742"/>
      <point x="125" y="753" type="curve" smooth="yes"/>
      <point x="142" y="810"/>
      <point x="181" y="877"/>
      <point x="259" y="877" type="curve" smooth="yes"/>
      <point x="298" y="877"/>
      <point x="324" y="860"/>
      <point x="346" y="829" type="curve" smooth="yes"/>
      <point x="362" y="807"/>
      <point x="373" y="793"/>
      <point x="388" y="793" type="curve" smooth="yes"/>
      <point x="409" y="793"/>
      <point x="435" y="817"/>
    </contour>
  </outline>
</glyph>
<glyph name="Ograve" format="1">
  <advance width="686"/>
  <unicode hex="00D2"/>
  <outline>
    <contour>
      <point x="312" y="-2" type="curve" smooth="yes"/>
      <point x="163" y="-2"/>
      <point x="57" y="144"/>
      <point x="57" y="315" type="curve" smooth="yes"/>
      <point x="57" y="514"/>
      <point x="194" y="682"/>
      <point x="351" y="682" type="curve" smooth="yes"/>
      <point x="498" y="682"/>
      <point x="606" y="538"/>
      <point x="606" y="365" type="curve" smooth="yes"/>
      <point x="606" y="166"/>
      <point x="470" y="-2"/>
    </contour>
    <contour>
      <point x="345" y="587" type="curve" smooth="yes"/>
      <point x="242" y="587"/>
      <point x="153" y="466"/>
      <point x="153" y="315" type="curve" smooth="yes"/>
      <point x="153" y="194"/>
      <point x="220" y="93"/>
      <point x="312" y="93" type="curve" smooth="yes"/>
      <point x="415" y="93"/>
      <point x="511" y="216"/>
      <point x="511" y="361" type="curve" smooth="yes"/>
      <point x="511" y="475"/>
      <point x="442" y="587"/>
    </contour>
    <contour>
      <point x="365" y="713" type="curve" smooth="yes"/>
      <point x="258" y="824" type="line" smooth="yes"/>
      <point x="248" y="834"/>
      <point x="242" y="846"/>
      <point x="242" y="862" type="curve" smooth="yes"/>
      <point x="242" y="890"/>
      <point x="268" y="916"/>
      <point x="296" y="916" type="curve" smooth="yes"/>
      <point x="314" y="916"/>
      <point x="330" y="906"/>
      <point x="340" y="894" type="curve" smooth="yes"/>
      <point x="435" y="775" type="line" smooth="yes"/>
      <point x="444" y="763"/>
      <point x="447" y="755"/>
      <point x="447" y="745" type="curve" smooth="yes"/>
      <point x="447" y="718"/>
      <point x="423" y="698"/>
      <point x="399" y="698" type="curve" smooth="yes"/>
      <point x="384" y="698"/>
      <point x="373" y="704"/>
    </contour>
  </outline>
</glyph>
<glyph name="Ocircumflex" format="1">
  <advance width="686"/>
  <unicode hex="00D4"/>
  <outline>
    <contour>
      <point x="312" y="-2" type="curve" smooth="yes"/>
      <point x="163" y="-2"/>
      <point x="57" y="144"/>
      <point x="57" y="315" type="curve" smooth="yes"/>
      <point x="57" y="514"/>
      <point x="194" y="682"/>
      <point x="351" y="682" type="curve" smooth="yes"/>
      <point x="498" y="682"/>
      <point x="606" y="538"/>
      <point x="606" y="365" type="curve" smooth="yes"/>
      <point x="606" y="166"/>
      <point x="470" y="-2"/>
    </contour>
    <contour>
      <point x="345" y="587" type="curve" smooth="yes"/>
      <point x="242" y="587"/>
      <point x="153" y="466"/>
      <point x="153" y="315" type="curve" smooth="yes"/>
      <point x="153" y="194"/>
      <point x="220" y="93"/>
      <point x="312" y="93" type="curve" smooth="yes"/>
      <point x="415" y="93"/>
      <point x="511" y="216"/>
      <point x="511" y="361" type="curve" smooth="yes"/>
      <point x="511" y="475"/>
      <point x="442" y="587"/>
    </contour>
    <contour>
      <point x="216" y="786" type="curve" smooth="yes"/>
      <point x="335" y="886" type="line" smooth="yes"/>
      <point x="346" y="895"/>
      <point x="358" y="898"/>
      <point x="367" y="898" type="curve" smooth="yes"/>
      <point x="379" y="898"/>
      <point x="393" y="892"/>
      <point x="405" y="880" type="curve" smooth="yes"/>
      <point x="501" y="784" type="line" smooth="yes"/>
      <point x="511" y="774"/>
      <point x="515" y="763"/>
      <point x="515" y="750" type="curve" smooth="yes"/>
      <point x="515" y="725"/>
      <point x="494" y="703"/>
      <point x="469" y="703" type="curve" smooth="yes"/>
      <point x="457" y="703"/>
      <point x="447" y="705"/>
      <point x="436" y="715" type="curve" smooth="yes"/>
      <point x="363" y="781" type="line"/>
      <point x="274" y="712" type="line" smooth="yes"/>
      <point x="263" y="704"/>
      <point x="255" y="703"/>
      <point x="245" y="703" type="curve" smooth="yes"/>
      <point x="220" y="703"/>
      <point x="198" y="723"/>
      <point x="198" y="750" type="curve" smooth="yes"/>
      <point x="198" y="763"/>
      <point x="204" y="776"/>
    </contour>
  </outline>
</glyph>
<glyph name="Otilde" format="1">
  <advance width="686"/>
  <unicode hex="00D5"/>
  <outline>
    <contour>
      <point x="312" y="-2" type="curve" smooth="yes"/>
      <point x="163" y="-2"/>
      <point x="57" y="144"/>
      <point x="57" y="315" type="curve" smooth="yes"/>
      <point x="57" y="514"/>
      <point x="194" y="682"/>
      <point x="351" y="682" type="curve" smooth="yes"/>
      <point x="498" y="682"/>
      <point x="606" y="538"/>
      <point x="606" y="365" type="curve" smooth="yes"/>
      <point x="606" y="166"/>
      <point x="470" y="-2"/>
    </contour>
    <contour>
      <point x="345" y="587" type="curve" smooth="yes"/>
      <point x="242" y="587"/>
      <point x="153" y="466"/>
      <point x="153" y="315" type="curve" smooth="yes"/>
      <point x="153" y="194"/>
      <point x="220" y="93"/>
      <point x="312" y="93" type="curve" smooth="yes"/>
      <point x="415" y="93"/>
      <point x="511" y="216"/>
      <point x="511" y="361" type="curve" smooth="yes"/>
      <point x="511" y="475"/>
      <point x="442" y="587"/>
    </contour>
    <contour>
      <point x="494" y="871" type="curve" smooth="yes"/>
      <point x="498" y="886"/>
      <point x="510" y="893"/>
      <point x="525" y="893" type="curve" smooth="yes"/>
      <point x="544" y="893"/>
      <point x="564" y="883"/>
      <point x="564" y="860" type="curve" smooth="yes"/>
      <point x="564" y="856"/>
      <point x="564" y="849"/>
      <point x="561" y="838" type="curve" smooth="yes"/>
      <point x="551" y="807"/>
      <point x="516" y="705"/>
      <point x="415" y="705" type="curve" smooth="yes"/>
      <point x="383" y="705"/>
      <point x="356" y="722"/>
      <point x="334" y="753" type="curve" smooth="yes"/>
      <point x="318" y="776"/>
      <point x="307" y="788"/>
      <point x="292" y="788" type="curve" smooth="yes"/>
      <point x="257" y="788"/>
      <point x="240" y="736"/>
      <point x="235" y="720" type="curve" smooth="yes"/>
      <point x="230" y="705"/>
      <point x="221" y="698"/>
      <point x="206" y="698" type="curve" smooth="yes"/>
      <point x="187" y="698"/>
      <point x="167" y="708"/>
      <point x="167" y="731" type="curve" smooth="yes"/>
      <point x="167" y="735"/>
      <point x="167" y="742"/>
      <point x="170" y="753" type="curve" smooth="yes"/>
      <point x="187" y="810"/>
      <point x="226" y="877"/>
      <point x="304" y="877" type="curve" smooth="yes"/>
      <point x="343" y="877"/>
      <point x="369" y="860"/>
      <point x="391" y="829" type="curve" smooth="yes"/>
      <point x="407" y="807"/>
      <point x="418" y="793"/>
      <point x="433" y="793" type="curve" smooth="yes"/>
      <point x="454" y="793"/>
      <point x="480" y="817"/>
    </contour>
  </outline>
</glyph>
<glyph name="Odieresis" format="1">
  <advance width="686"/>
  <unicode hex="00D6"/>
  <outline>
    <contour>
      <point x="336" y="767" type="curve" smooth="yes"/>
      <point x="336" y="732"/>
      <point x="305" y="703"/>
      <point x="265" y="703" type="curve" smooth="yes"/>
      <point x="229" y="703"/>
      <point x="200" y="727"/>
      <point x="200" y="762" type="curve" smooth="yes"/>
      <point x="200" y="796"/>
      <point x="232" y="827"/>
      <point x="271" y="827" type="curve" smooth="yes"/>
      <point x="304" y="827"/>
      <point x="336" y="801"/>
    </contour>
    <contour>
      <point x="524" y="767" type="curve" smooth="yes"/>
      <point x="524" y="732"/>
      <point x="493" y="703"/>
      <point x="453" y="703" type="curve" smooth="yes"/>
      <point x="417" y="703"/>
      <point x="388" y="727"/>
      <point x="388" y="762" type="curve" smooth="yes"/>
      <point x="388" y="796"/>
      <point x="420" y="827"/>
      <point x="459" y="827" type="curve" smooth="yes"/>
      <point x="492" y="827"/>
      <point x="524" y="801"/>
    </contour>
    <contour>
      <point x="312" y="-2" type="curve" smooth="yes"/>
      <point x="163" y="-2"/>
      <point x="57" y="144"/>
      <point x="57" y="315" type="curve" smooth="yes"/>
      <point x="57" y="514"/>
      <point x="194" y="682"/>
      <point x="351" y="682" type="curve" smooth="yes"/>
      <point x="498" y="682"/>
      <point x="606" y="538"/>
      <point x="606" y="365" type="curve" smooth="yes"/>
      <point x="606" y="166"/>
      <point x="470" y="-2"/>
    </contour>
    <contour>
      <point x="345" y="587" type="curve" smooth="yes"/>
      <point x="242" y="587"/>
      <point x="153" y="466"/>
      <point x="153" y="315" type="curve" smooth="yes"/>
      <point x="153" y="194"/>
      <point x="220" y="93"/>
      <point x="312" y="93" type="curve" smooth="yes"/>
      <point x="415" y="93"/>
      <point x="511" y="216"/>
      <point x="511" y="361" type="curve" smooth="yes"/>
      <point x="511" y="475"/>
      <point x="442" y="587"/>
    </contour>
  </outline>
</glyph>
<glyph name="Oslash" format="1">
  <advance width="686"/>
  <unicode hex="00D8"/>
  <outline>
    <contour>
      <point x="436" y="664" type="curve"/>
      <point x="464" y="714" type="line" smooth="yes"/>
      <point x="474" y="732"/>
      <point x="488" y="739"/>
      <point x="506" y="739" type="curve" smooth="yes"/>
      <point x="528" y="739"/>
      <point x="553" y="721"/>
      <point x="553" y="692" type="curve" smooth="yes"/>
      <point x="553" y="686"/>
      <point x="553" y="677"/>
      <point x="548" y="668" type="curve" smooth="yes"/>
      <point x="515" y="610" type="line"/>
      <point x="572" y="551"/>
      <point x="606" y="464"/>
      <point x="606" y="365" type="curve" smooth="yes"/>
      <point x="606" y="166"/>
      <point x="470" y="-2"/>
      <point x="312" y="-2" type="curve" smooth="yes"/>
      <point x="269" y="-2"/>
      <point x="228" y="11"/>
      <point x="194" y="33" type="curve"/>
      <point x="173" y="-6" type="line" smooth="yes"/>
      <point x="164" y="-21"/>
      <point x="150" y="-30"/>
      <point x="132" y="-30" type="curve" smooth="yes"/>
      <point x="100" y="-30"/>
      <point x="84" y="-9"/>
      <point x="84" y="18" type="curve" smooth="yes"/>
      <point x="84" y="24"/>
      <point x="86" y="33"/>
      <point x="90" y="40" type="curve" smooth="yes"/>
      <point x="122" y="100" type="line"/>
      <point x="80" y="156"/>
      <point x="57" y="232"/>
      <point x="57" y="315" type="curve" smooth="yes"/>
      <point x="57" y="514"/>
      <point x="194" y="682"/>
      <point x="351" y="682" type="curve" smooth="yes"/>
      <point x="383" y="682"/>
      <point x="408" y="676"/>
    </contour>
    <contour>
      <point x="312" y="93" type="curve" smooth="yes"/>
      <point x="415" y="93"/>
      <point x="511" y="216"/>
      <point x="511" y="361" type="curve" smooth="yes"/>
      <point x="511" y="419"/>
      <point x="495" y="474"/>
      <point x="464" y="517" type="curve"/>
      <point x="241" y="115" type="line"/>
      <point x="263" y="100"/>
      <point x="285" y="93"/>
    </contour>
    <contour>
      <point x="345" y="587" type="curve" smooth="yes"/>
      <point x="242" y="587"/>
      <point x="153" y="466"/>
      <point x="153" y="315" type="curve" smooth="yes"/>
      <point x="153" y="268"/>
      <point x="158" y="234"/>
      <point x="176" y="197" type="curve"/>
      <point x="250" y="329"/>
      <point x="315" y="444"/>
      <point x="389" y="578" type="curve"/>
      <point x="376" y="584"/>
      <point x="359" y="587"/>
    </contour>
  </outline>
</glyph>
<glyph name="Thorn" format="1">
  <advance width="573"/>
  <unicode hex="00DE"/>
  <outline>
    <contour>
      <point x="155" y="632" type="curve" smooth="yes"/>
      <point x="155" y="579" type="line"/>
      <point x="300" y="577"/>
      <point x="487" y="550"/>
      <point x="487" y="373" type="curve" smooth="yes"/>
      <point x="487" y="198"/>
      <point x="294" y="142"/>
      <point x="154" y="134" type="curve"/>
      <point x="154" y="47" type="line" smooth="yes"/>
      <point x="154" y="20"/>
      <point x="133" y="0"/>
      <point x="106" y="0" type="curve" smooth="yes"/>
      <point x="80" y="0"/>
      <point x="59" y="20"/>
      <point x="59" y="48" type="curve" smooth="yes"/>
      <point x="61" y="633" type="line" smooth="yes"/>
      <point x="61" y="660"/>
      <point x="82" y="680"/>
      <point x="108" y="680" type="curve" smooth="yes"/>
      <point x="133" y="680"/>
      <point x="155" y="660"/>
    </contour>
    <contour>
      <point x="154" y="232" type="curve"/>
      <point x="246" y="238"/>
      <point x="393" y="270"/>
      <point x="393" y="373" type="curve" smooth="yes"/>
      <point x="393" y="442"/>
      <point x="309" y="483"/>
      <point x="166" y="483" type="curve" smooth="yes"/>
      <point x="155" y="483" type="line"/>
      <point x="155" y="483"/>
      <point x="154" y="316"/>
    </contour>
  </outline>
</glyph>
<glyph name="agrave" format="1">
  <advance width="531"/>
  <unicode hex="00E0"/>
  <outline>
    <contour>
      <point x="447" y="456" type="curve"/>
      <point x="447" y="40" type="line" smooth="yes"/>
      <point x="447" y="14"/>
      <point x="427" y="-10"/>
      <point x="399" y="-10" type="curve" smooth="yes"/>
      <point x="373" y="-10"/>
      <point x="357" y="5"/>
      <point x="352" y="25" type="curve"/>
      <point x="319" y="10"/>
      <point x="280" y="-3"/>
      <point x="240" y="-3" type="curve" smooth="yes"/>
      <point x="130" y="-3"/>
      <point x="47" y="85"/>
      <point x="47" y="216" type="curve" smooth="yes"/>
      <point x="47" y="319"/>
      <point x="112" y="502"/>
      <point x="287" y="502" type="curve" smooth="yes"/>
      <point x="359" y="502"/>
      <point x="429" y="465"/>
    </contour>
    <contour>
      <point x="349" y="134" type="curve"/>
      <point x="352" y="395" type="line"/>
      <point x="335" y="402"/>
      <point x="310" y="407"/>
      <point x="289" y="407" type="curve" smooth="yes"/>
      <point x="182" y="407"/>
      <point x="144" y="285"/>
      <point x="144" y="218" type="curve" smooth="yes"/>
      <point x="144" y="164"/>
      <point x="169" y="93"/>
      <point x="239" y="93" type="curve" smooth="yes"/>
      <point x="279" y="93"/>
      <point x="324" y="118"/>
    </contour>
    <contour>
      <point x="305" y="543" type="curve" smooth="yes"/>
      <point x="198" y="654" type="line" smooth="yes"/>
      <point x="188" y="664"/>
      <point x="182" y="676"/>
      <point x="182" y="692" type="curve" smooth="yes"/>
      <point x="182" y="720"/>
      <point x="208" y="746"/>
      <point x="236" y="746" type="curve" smooth="yes"/>
      <point x="254" y="746"/>
      <point x="270" y="736"/>
      <point x="280" y="724" type="curve" smooth="yes"/>
      <point x="375" y="605" type="line" smooth="yes"/>
      <point x="384" y="593"/>
      <point x="387" y="585"/>
      <point x="387" y="575" type="curve" smooth="yes"/>
      <point x="387" y="548"/>
      <point x="363" y="528"/>
      <point x="339" y="528" type="curve" smooth="yes"/>
      <point x="324" y="528"/>
      <point x="313" y="534"/>
    </contour>
  </outline>
</glyph>
<glyph name="ae" format="1">
  <advance width="858"/>
  <unicode hex="00E6"/>
  <outline>
    <contour>
      <point x="752" y="74" type="curve" smooth="yes"/>
      <point x="714" y="33"/>
      <point x="650" y="0"/>
      <point x="588" y="0" type="curve" smooth="yes"/>
      <point x="531" y="0"/>
      <point x="483" y="15"/>
      <point x="443" y="44" type="curve"/>
      <point x="441" y="23"/>
      <point x="419" y="0"/>
      <point x="395" y="0" type="curve" smooth="yes"/>
      <point x="372" y="0"/>
      <point x="354" y="16"/>
      <point x="349" y="34" type="curve"/>
      <point x="319" y="20"/>
      <point x="281" y="7"/>
      <point x="244" y="7" type="curve" smooth="yes"/>
      <point x="136" y="7"/>
      <point x="55" y="86"/>
      <point x="55" y="217" type="curve" smooth="yes"/>
      <point x="55" y="382"/>
      <point x="162" y="498"/>
      <point x="282" y="498" type="curve" smooth="yes"/>
      <point x="345" y="498"/>
      <point x="413" y="469"/>
      <point x="432" y="455" type="curve"/>
      <point x="432" y="429" type="line"/>
      <point x="472" y="468"/>
      <point x="527" y="484"/>
      <point x="573" y="484" type="curve" smooth="yes"/>
      <point x="697" y="484"/>
      <point x="756" y="391"/>
      <point x="756" y="344" type="curve" smooth="yes"/>
      <point x="756" y="327"/>
      <point x="744" y="310"/>
      <point x="724" y="298" type="curve" smooth="yes"/>
      <point x="464" y="148" type="line"/>
      <point x="493" y="112"/>
      <point x="541" y="93"/>
      <point x="594" y="93" type="curve" smooth="yes"/>
      <point x="627" y="93"/>
      <point x="662" y="112"/>
      <point x="683" y="135" type="curve" smooth="yes"/>
      <point x="692" y="145"/>
      <point x="702" y="151"/>
      <point x="718" y="151" type="curve" smooth="yes"/>
      <point x="744" y="151"/>
      <point x="764" y="131"/>
      <point x="764" y="104" type="curve" smooth="yes"/>
      <point x="764" y="92"/>
      <point x="760" y="82"/>
    </contour>
    <contour>
      <point x="345" y="140" type="curve"/>
      <point x="350" y="392" type="line"/>
      <point x="334" y="398"/>
      <point x="309" y="404"/>
      <point x="289" y="404" type="curve" smooth="yes"/>
      <point x="186" y="404"/>
      <point x="149" y="285"/>
      <point x="149" y="220" type="curve" smooth="yes"/>
      <point x="149" y="154"/>
      <point x="183" y="101"/>
      <point x="240" y="101" type="curve" smooth="yes"/>
      <point x="276" y="101"/>
      <point x="321" y="123"/>
    </contour>
    <contour>
      <point x="433" y="234" type="curve"/>
      <point x="659" y="359" type="line"/>
      <point x="643" y="381"/>
      <point x="614" y="392"/>
      <point x="568" y="392" type="curve" smooth="yes"/>
      <point x="491" y="392"/>
      <point x="437" y="322"/>
    </contour>
  </outline>
</glyph>
<glyph name="ccedilla" format="1">
  <advance width="535"/>
  <unicode hex="00E7"/>
  <outline>
    <contour>
      <point x="267" y="-126" type="curve" smooth="yes"/>
      <point x="272" y="-130"/>
      <point x="278" y="-132"/>
      <point x="287" y="-132" type="curve" smooth="yes"/>
      <point x="303" y="-132"/>
      <point x="310" y="-118"/>
      <point x="310" y="-106" type="curve" smooth="yes"/>
      <point x="310" y="-94"/>
      <point x="302" y="-86"/>
      <point x="286" y="-83" type="curve" smooth="yes"/>
      <point x="237" y="-73" type="line" smooth="yes"/>
      <point x="223.605" y="-70.1799"/>
      <point x="218.659" y="-61.3954"/>
      <point x="218.659" y="-50.1505" type="curve" smooth="yes"/>
      <point x="218.659" y="-45.4455"/>
      <point x="219.525" y="-40.3098"/>
      <point x="221" y="-35" type="curve" smooth="yes"/>
      <point x="225" y="-20"/>
      <point x="228" y="-7"/>
      <point x="232" y="3" type="curve"/>
      <point x="130" y="22"/>
      <point x="47" y="106"/>
      <point x="47" y="219" type="curve" smooth="yes"/>
      <point x="47" y="266"/>
      <point x="61" y="310"/>
      <point x="71" y="335" type="curve" smooth="yes"/>
      <point x="96" y="401"/>
      <point x="173" y="500"/>
      <point x="272" y="500" type="curve" smooth="yes"/>
      <point x="347" y="500"/>
      <point x="384" y="476"/>
      <point x="424" y="430" type="curve" smooth="yes"/>
      <point x="433" y="419"/>
      <point x="437" y="408"/>
      <point x="437" y="396" type="curve" smooth="yes"/>
      <point x="437" y="370"/>
      <point x="415" y="349"/>
      <point x="389" y="349" type="curve" smooth="yes"/>
      <point x="372" y="349"/>
      <point x="364" y="354"/>
      <point x="358" y="361" type="curve" smooth="yes"/>
      <point x="334" y="389"/>
      <point x="312" y="407"/>
      <point x="274" y="407" type="curve" smooth="yes"/>
      <point x="224" y="407"/>
      <point x="176" y="346"/>
      <point x="157" y="302" type="curve"/>
      <point x="146" y="272"/>
      <point x="141" y="243"/>
      <point x="141" y="221" type="curve" smooth="yes"/>
      <point x="141" y="122"/>
      <point x="229" y="93"/>
      <point x="263" y="93" type="curve" smooth="yes"/>
      <point x="320" y="93"/>
      <point x="352" y="117"/>
      <point x="374" y="147" type="curve" smooth="yes"/>
      <point x="381" y="156"/>
      <point x="394" y="172"/>
      <point x="417" y="172" type="curve" smooth="yes"/>
      <point x="443" y="172"/>
      <point x="464" y="151"/>
      <point x="464" y="124" type="curve" smooth="yes"/>
      <point x="464" y="112"/>
      <point x="459" y="102"/>
      <point x="453" y="94" type="curve" smooth="yes"/>
      <point x="420" y="50"/>
      <point x="357" y="5"/>
      <point x="288" y="0" type="curve"/>
      <point x="289" y="-9"/>
      <point x="290" y="-18"/>
      <point x="290" y="-27" type="curve"/>
      <point x="350" y="-37"/>
      <point x="381" y="-61"/>
      <point x="381" y="-110" type="curve" smooth="yes"/>
      <point x="381" y="-168"/>
      <point x="334" y="-196"/>
      <point x="276" y="-196" type="curve" smooth="yes"/>
      <point x="238" y="-196"/>
      <point x="197" y="-180"/>
      <point x="197" y="-148" type="curve" smooth="yes"/>
      <point x="197" y="-131"/>
      <point x="210" y="-109"/>
      <point x="233" y="-109" type="curve" smooth="yes"/>
      <point x="250" y="-109"/>
      <point x="257" y="-118"/>
    </contour>
  </outline>
</glyph>
<glyph name="edieresis" format="1">
  <advance width="547"/>
  <unicode hex="00EB"/>
  <outline>
    <contour>
      <point x="263" y="606" type="curve" smooth="yes"/>
      <point x="263" y="571"/>
      <point x="233" y="543"/>
      <point x="194" y="543" type="curve" smooth="yes"/>
      <point x="158" y="543"/>
      <point x="130" y="567"/>
      <point x="130" y="601" type="curve" smooth="yes"/>
      <point x="130" y="634"/>
      <point x="161" y="664"/>
      <point x="199" y="664" type="curve" smooth="yes"/>
      <point x="232" y="664"/>
      <point x="263" y="639"/>
    </contour>
    <contour>
      <point x="447" y="606" type="curve" smooth="yes"/>
      <point x="447" y="571"/>
      <point x="417" y="543"/>
      <point x="378" y="543" type="curve" smooth="yes"/>
      <point x="343" y="543"/>
      <point x="315" y="567"/>
      <point x="315" y="601" type="curve" smooth="yes"/>
      <point x="315" y="634"/>
      <point x="346" y="664"/>
      <point x="384" y="664" type="curve" smooth="yes"/>
      <point x="416" y="664"/>
      <point x="447" y="639"/>
    </contour>
    <contour>
      <point x="396" y="135" type="curve" smooth="yes"/>
      <point x="405" y="144"/>
      <point x="416" y="151"/>
      <point x="429" y="151" type="curve" smooth="yes"/>
      <point x="456" y="151"/>
      <point x="476" y="131"/>
      <point x="476" y="104" type="curve" smooth="yes"/>
      <point x="476" y="92"/>
      <point x="471" y="81"/>
      <point x="464" y="74" type="curve" smooth="yes"/>
      <point x="428" y="33"/>
      <point x="359" y="0"/>
      <point x="297" y="0" type="curve" smooth="yes"/>
      <point x="145" y="0"/>
      <point x="49" y="114"/>
      <point x="49" y="239" type="curve" smooth="yes"/>
      <point x="49" y="376"/>
      <point x="138" y="499"/>
      <point x="275" y="499" type="curve" smooth="yes"/>
      <point x="407" y="499"/>
      <point x="467" y="402"/>
      <point x="467" y="355" type="curve" smooth="yes"/>
      <point x="467" y="338"/>
      <point x="457" y="321"/>
      <point x="436" y="309" type="curve" smooth="yes"/>
      <point x="168" y="155" type="line"/>
      <point x="197" y="114"/>
      <point x="240" y="93"/>
      <point x="297" y="93" type="curve" smooth="yes"/>
      <point x="330" y="93"/>
      <point x="374" y="112"/>
    </contour>
    <contour>
      <point x="140" y="247" type="curve"/>
      <point x="366" y="372" type="line"/>
      <point x="350" y="394"/>
      <point x="321" y="405"/>
      <point x="275" y="405" type="curve" smooth="yes"/>
      <point x="198" y="405"/>
      <point x="144" y="335"/>
    </contour>
  </outline>
</glyph>
<glyph name="igrave" format="1">
  <advance width="245"/>
  <unicode hex="00EC"/>
  <outline>
    <contour>
      <point x="168" y="447" type="curve" smooth="yes"/>
      <point x="162" y="49" type="line" smooth="yes"/>
      <point x="162" y="22"/>
      <point x="140" y="0"/>
      <point x="113" y="0" type="curve" smooth="yes"/>
      <point x="86" y="0"/>
      <point x="64" y="22"/>
      <point x="64" y="49" type="curve" smooth="yes"/>
      <point x="70" y="447" type="line" smooth="yes"/>
      <point x="70" y="474"/>
      <point x="91" y="496"/>
      <point x="119" y="496" type="curve" smooth="yes"/>
      <point x="146" y="496"/>
      <point x="168" y="474"/>
    </contour>
    <contour>
      <point x="140" y="543" type="curve" smooth="yes"/>
      <point x="33" y="654" type="line" smooth="yes"/>
      <point x="23" y="664"/>
      <point x="17" y="676"/>
      <point x="17" y="692" type="curve" smooth="yes"/>
      <point x="17" y="720"/>
      <point x="43" y="746"/>
      <point x="71" y="746" type="curve" smooth="yes"/>
      <point x="89" y="746"/>
      <point x="105" y="736"/>
      <point x="115" y="724" type="curve" smooth="yes"/>
      <point x="210" y="605" type="line" smooth="yes"/>
      <point x="219" y="593"/>
      <point x="222" y="585"/>
      <point x="222" y="575" type="curve" smooth="yes"/>
      <point x="222" y="548"/>
      <point x="198" y="528"/>
      <point x="174" y="528" type="curve" smooth="yes"/>
      <point x="159" y="528"/>
      <point x="148" y="534"/>
    </contour>
  </outline>
</glyph>
<glyph name="iacute" format="1">
  <advance width="245"/>
  <unicode hex="00ED"/>
  <outline>
    <contour>
      <point x="168" y="447" type="curve" smooth="yes"/>
      <point x="162" y="49" type="line" smooth="yes"/>
      <point x="162" y="22"/>
      <point x="140" y="0"/>
      <point x="113" y="0" type="curve" smooth="yes"/>
      <point x="86" y="0"/>
      <point x="64" y="22"/>
      <point x="64" y="49" type="curve" smooth="yes"/>
      <point x="69" y="447" type="line" smooth="yes"/>
      <point x="69" y="474"/>
      <point x="91" y="496"/>
      <point x="119" y="496" type="curve" smooth="yes"/>
      <point x="146" y="496"/>
      <point x="168" y="474"/>
    </contour>
    <contour>
      <point x="23" y="610" type="curve" smooth="yes"/>
      <point x="138" y="703" type="line" smooth="yes"/>
      <point x="148" y="711"/>
      <point x="162" y="722"/>
      <point x="179" y="722" type="curve" smooth="yes"/>
      <point x="209" y="722"/>
      <point x="232" y="698"/>
      <point x="232" y="667" type="curve" smooth="yes"/>
      <point x="232" y="652"/>
      <point x="227" y="637"/>
      <point x="213" y="627" type="curve" smooth="yes"/>
      <point x="89" y="542" type="line" smooth="yes"/>
      <point x="79" y="535"/>
      <point x="67" y="529"/>
      <point x="56" y="529" type="curve" smooth="yes"/>
      <point x="32" y="529"/>
      <point x="10" y="550"/>
      <point x="10" y="577" type="curve" smooth="yes"/>
      <point x="10" y="588"/>
      <point x="12" y="601"/>
    </contour>
  </outline>
</glyph>
<glyph name="idieresis" format="1">
  <advance width="309"/>
  <unicode hex="00EF"/>
  <outline>
    <contour>
      <point x="195" y="447" type="curve" smooth="yes"/>
      <point x="190" y="49" type="line" smooth="yes"/>
      <point x="190" y="22"/>
      <point x="168" y="0"/>
      <point x="141" y="0" type="curve" smooth="yes"/>
      <point x="114" y="0"/>
      <point x="92" y="22"/>
      <point x="92" y="49" type="curve" smooth="yes"/>
      <point x="97" y="447" type="line" smooth="yes"/>
      <point x="97" y="474"/>
      <point x="119" y="496"/>
      <point x="146" y="496" type="curve" smooth="yes"/>
      <point x="173" y="496"/>
      <point x="195" y="474"/>
    </contour>
    <contour>
      <point x="124" y="606" type="curve" smooth="yes"/>
      <point x="124" y="571"/>
      <point x="94" y="543"/>
      <point x="54" y="543" type="curve" smooth="yes"/>
      <point x="19" y="543"/>
      <point x="-9" y="567"/>
      <point x="-9" y="601" type="curve" smooth="yes"/>
      <point x="-9" y="634"/>
      <point x="22" y="664"/>
      <point x="60" y="664" type="curve" smooth="yes"/>
      <point x="93" y="664"/>
      <point x="124" y="639"/>
    </contour>
    <contour>
      <point x="308" y="606" type="curve" smooth="yes"/>
      <point x="308" y="571"/>
      <point x="278" y="543"/>
      <point x="239" y="543" type="curve" smooth="yes"/>
      <point x="203" y="543"/>
      <point x="175" y="567"/>
      <point x="175" y="601" type="curve" smooth="yes"/>
      <point x="175" y="634"/>
      <point x="206" y="664"/>
      <point x="244" y="664" type="curve" smooth="yes"/>
      <point x="277" y="664"/>
      <point x="308" y="639"/>
    </contour>
  </outline>
</glyph>
<glyph name="oacute" format="1">
  <advance width="561"/>
  <unicode hex="00F3"/>
  <outline>
    <contour>
      <point x="254" y="0" type="curve" smooth="yes"/>
      <point x="137" y="0"/>
      <point x="48" y="104"/>
      <point x="48" y="232" type="curve" smooth="yes"/>
      <point x="48" y="377"/>
      <point x="155" y="500"/>
      <point x="282" y="500" type="curve" smooth="yes"/>
      <point x="399" y="500"/>
      <point x="489" y="392"/>
      <point x="489" y="268" type="curve" smooth="yes"/>
      <point x="489" y="122"/>
      <point x="381" y="0"/>
    </contour>
    <contour>
      <point x="278" y="411" type="curve" smooth="yes"/>
      <point x="206" y="411"/>
      <point x="145" y="328"/>
      <point x="145" y="233" type="curve" smooth="yes"/>
      <point x="145" y="155"/>
      <point x="189" y="89"/>
      <point x="254" y="89" type="curve" smooth="yes"/>
      <point x="325" y="89"/>
      <point x="390" y="170"/>
      <point x="390" y="263" type="curve" smooth="yes"/>
      <point x="390" y="342"/>
      <point x="340" y="411"/>
    </contour>
    <contour>
      <point x="198" y="610" type="curve" smooth="yes"/>
      <point x="313" y="703" type="line" smooth="yes"/>
      <point x="323" y="711"/>
      <point x="337" y="722"/>
      <point x="354" y="722" type="curve" smooth="yes"/>
      <point x="384" y="722"/>
      <point x="407" y="698"/>
      <point x="407" y="667" type="curve" smooth="yes"/>
      <point x="407" y="652"/>
      <point x="402" y="637"/>
      <point x="388" y="627" type="curve" smooth="yes"/>
      <point x="264" y="542" type="line" smooth="yes"/>
      <point x="254" y="535"/>
      <point x="242" y="529"/>
      <point x="231" y="529" type="curve" smooth="yes"/>
      <point x="207" y="529"/>
      <point x="185" y="550"/>
      <point x="185" y="577" type="curve" smooth="yes"/>
      <point x="185" y="588"/>
      <point x="187" y="601"/>
    </contour>
  </outline>
</glyph>
<glyph name="otilde" format="1">
  <advance width="561"/>
  <unicode hex="00F5"/>
  <outline>
    <contour>
      <point x="254" y="0" type="curve" smooth="yes"/>
      <point x="137" y="0"/>
      <point x="48" y="104"/>
      <point x="48" y="232" type="curve" smooth="yes"/>
      <point x="48" y="377"/>
      <point x="155" y="500"/>
      <point x="282" y="500" type="curve" smooth="yes"/>
      <point x="399" y="500"/>
      <point x="489" y="392"/>
      <point x="489" y="268" type="curve" smooth="yes"/>
      <point x="489" y="122"/>
      <point x="381" y="0"/>
    </contour>
    <contour>
      <point x="278" y="411" type="curve" smooth="yes"/>
      <point x="206" y="411"/>
      <point x="145" y="328"/>
      <point x="145" y="233" type="curve" smooth="yes"/>
      <point x="145" y="155"/>
      <point x="189" y="89"/>
      <point x="254" y="89" type="curve" smooth="yes"/>
      <point x="325" y="89"/>
      <point x="390" y="170"/>
      <point x="390" y="263" type="curve" smooth="yes"/>
      <point x="390" y="342"/>
      <point x="340" y="411"/>
    </contour>
    <contour>
      <point x="429" y="691" type="curve" smooth="yes"/>
      <point x="433" y="706"/>
      <point x="445" y="713"/>
      <point x="460" y="713" type="curve" smooth="yes"/>
      <point x="479" y="713"/>
      <point x="499" y="703"/>
      <point x="499" y="680" type="curve" smooth="yes"/>
      <point x="499" y="676"/>
      <point x="499" y="669"/>
      <point x="496" y="658" type="curve" smooth="yes"/>
      <point x="486" y="627"/>
      <point x="451" y="525"/>
      <point x="350" y="525" type="curve" smooth="yes"/>
      <point x="318" y="525"/>
      <point x="291" y="542"/>
      <point x="269" y="573" type="curve" smooth="yes"/>
      <point x="253" y="596"/>
      <point x="242" y="608"/>
      <point x="227" y="608" type="curve" smooth="yes"/>
      <point x="192" y="608"/>
      <point x="175" y="556"/>
      <point x="170" y="540" type="curve" smooth="yes"/>
      <point x="165" y="525"/>
      <point x="156" y="518"/>
      <point x="141" y="518" type="curve" smooth="yes"/>
      <point x="122" y="518"/>
      <point x="102" y="528"/>
      <point x="102" y="551" type="curve" smooth="yes"/>
      <point x="102" y="555"/>
      <point x="102" y="562"/>
      <point x="105" y="573" type="curve" smooth="yes"/>
      <point x="122" y="630"/>
      <point x="161" y="697"/>
      <point x="239" y="697" type="curve" smooth="yes"/>
      <point x="278" y="697"/>
      <point x="304" y="680"/>
      <point x="326" y="649" type="curve" smooth="yes"/>
      <point x="342" y="627"/>
      <point x="353" y="613"/>
      <point x="368" y="613" type="curve" smooth="yes"/>
      <point x="389" y="613"/>
      <point x="415" y="637"/>
    </contour>
  </outline>
</glyph>
<glyph name="divide" format="1">
  <advance width="469"/>
  <unicode hex="00F7"/>
  <outline>
    <contour>
      <point x="350" y="197" type="curve" smooth="yes"/>
      <point x="117" y="197" type="line" smooth="yes"/>
      <point x="92" y="197"/>
      <point x="70" y="219"/>
      <point x="70" y="243" type="curve" smooth="yes"/>
      <point x="70" y="270"/>
      <point x="92" y="290"/>
      <point x="117" y="290" type="curve" smooth="yes"/>
      <point x="350" y="290" type="line" smooth="yes"/>
      <point x="377" y="290"/>
      <point x="398" y="270"/>
      <point x="398" y="243" type="curve" smooth="yes"/>
      <point x="398" y="219"/>
      <point x="377" y="197"/>
    </contour>
    <contour>
      <point x="238" y="323" type="curve" smooth="yes"/>
      <point x="209" y="323"/>
      <point x="190" y="345"/>
      <point x="190" y="374" type="curve" smooth="yes"/>
      <point x="190" y="402"/>
      <point x="214" y="432"/>
      <point x="244" y="432" type="curve" smooth="yes"/>
      <point x="269" y="432"/>
      <point x="290" y="410"/>
      <point x="290" y="382" type="curve" smooth="yes"/>
      <point x="290" y="349"/>
      <point x="267" y="323"/>
    </contour>
    <contour>
      <point x="223" y="55" type="curve" smooth="yes"/>
      <point x="195" y="55"/>
      <point x="176" y="78"/>
      <point x="176" y="107" type="curve" smooth="yes"/>
      <point x="176" y="135"/>
      <point x="199" y="164"/>
      <point x="229" y="164" type="curve" smooth="yes"/>
      <point x="254" y="164"/>
      <point x="276" y="143"/>
      <point x="276" y="115" type="curve" smooth="yes"/>
      <point x="276" y="82"/>
      <point x="252" y="55"/>
    </contour>
  </outline>
</glyph>
<glyph name="thorn" format="1">
  <advance width="546"/>
  <unicode hex="00FE"/>
  <outline>
    <contour>
      <point x="306" y="491" type="curve"/>
      <point x="307" y="491" type="line"/>
      <point x="423" y="485"/>
      <point x="475" y="375"/>
      <point x="475" y="269" type="curve" smooth="yes"/>
      <point x="475" y="155"/>
      <point x="431" y="7"/>
      <point x="253" y="7" type="curve" smooth="yes"/>
      <point x="218" y="7"/>
      <point x="185" y="15"/>
      <point x="158" y="24" type="curve"/>
      <point x="158" y="-129" type="line" smooth="yes"/>
      <point x="158" y="-154"/>
      <point x="135" y="-177"/>
      <point x="110" y="-177" type="curve" smooth="yes"/>
      <point x="84" y="-177"/>
      <point x="62" y="-154"/>
      <point x="62" y="-129" type="curve" smooth="yes"/>
      <point x="62" y="622" type="line" smooth="yes"/>
      <point x="62" y="650"/>
      <point x="82" y="671"/>
      <point x="110" y="671" type="curve" smooth="yes"/>
      <point x="137" y="671"/>
      <point x="158" y="650"/>
      <point x="158" y="622" type="curve" smooth="yes"/>
      <point x="158" y="451" type="line"/>
      <point x="194" y="473"/>
      <point x="245" y="491"/>
    </contour>
    <contour>
      <point x="259" y="104" type="curve" smooth="yes"/>
      <point x="352" y="104"/>
      <point x="384" y="174"/>
      <point x="384" y="269" type="curve" smooth="yes"/>
      <point x="384" y="317"/>
      <point x="366" y="401"/>
      <point x="299" y="401" type="curve" smooth="yes"/>
      <point x="221" y="401"/>
      <point x="176" y="359"/>
      <point x="158" y="336" type="curve"/>
      <point x="158" y="128" type="line"/>
      <point x="181" y="119"/>
      <point x="221" y="104"/>
    </contour>
  </outline>
</glyph>
<glyph name="ydieresis" format="1">
  <advance width="515"/>
  <unicode hex="00FF"/>
  <outline>
    <contour>
      <point x="226" y="606" type="curve" smooth="yes"/>
      <point x="226" y="571"/>
      <point x="196" y="543"/>
      <point x="157" y="543" type="curve" smooth="yes"/>
      <point x="121" y="543"/>
      <point x="93" y="567"/>
      <point x="93" y="601" type="curve" smooth="yes"/>
      <point x="93" y="634"/>
      <point x="124" y="664"/>
      <point x="162" y="664" type="curve" smooth="yes"/>
      <point x="195" y="664"/>
      <point x="226" y="639"/>
    </contour>
    <contour>
      <point x="410" y="606" type="curve" smooth="yes"/>
      <point x="410" y="571"/>
      <point x="380" y="543"/>
      <point x="341" y="543" type="curve" smooth="yes"/>
      <point x="306" y="543"/>
      <point x="278" y="567"/>
      <point x="278" y="601" type="curve" smooth="yes"/>
      <point x="278" y="634"/>
      <point x="309" y="664"/>
      <point x="347" y="664" type="curve" smooth="yes"/>
      <point x="379" y="664"/>
      <point x="410" y="639"/>
    </contour>
    <contour>
      <point x="469" y="432" type="curve" smooth="yes"/>
      <point x="202" y="-148" type="line" smooth="yes"/>
      <point x="194" y="-165"/>
      <point x="178" y="-179"/>
      <point x="157" y="-179" type="curve" smooth="yes"/>
      <point x="131" y="-179"/>
      <point x="109" y="-157"/>
      <point x="109" y="-130" type="curve" smooth="yes"/>
      <point x="109" y="-124"/>
      <point x="111" y="-116"/>
      <point x="114" y="-109" type="curve" smooth="yes"/>
      <point x="199" y="78" type="line"/>
      <point x="26" y="427" type="line" smooth="yes"/>
      <point x="23" y="433"/>
      <point x="20" y="442"/>
      <point x="20" y="451" type="curve" smooth="yes"/>
      <point x="20" y="478"/>
      <point x="41" y="500"/>
      <point x="68" y="500" type="curve" smooth="yes"/>
      <point x="89" y="500"/>
      <point x="104" y="485"/>
      <point x="112" y="470" type="curve" smooth="yes"/>
      <point x="251" y="191" type="line"/>
      <point x="379" y="470" type="line" smooth="yes"/>
      <point x="387" y="487"/>
      <point x="404" y="501"/>
      <point x="425" y="501" type="curve" smooth="yes"/>
      <point x="450" y="501"/>
      <point x="473" y="480"/>
      <point x="473" y="452" type="curve" smooth="yes"/>
      <point x="473" y="446"/>
      <point x="472" y="439"/>
    </contour>
  </outline>
</glyph>
<glyph name="Aogonek" format="1">
  <advance width="650"/>
  <unicode hex="0104"/>
  <outline>
    <contour>
      <point x="524" y="-196" type="curve" smooth="yes"/>
      <point x="456" y="-196"/>
      <point x="405" y="-147"/>
      <point x="405" y="-79" type="curve" smooth="yes"/>
      <point x="405" y="-26"/>
      <point x="440" y="18"/>
      <point x="479" y="46" type="curve"/>
      <point x="412" y="241" type="line"/>
      <point x="208" y="196" type="line"/>
      <point x="143" y="32" type="line" smooth="yes"/>
      <point x="136" y="15"/>
      <point x="121" y="0"/>
      <point x="97" y="0" type="curve" smooth="yes"/>
      <point x="67" y="0"/>
      <point x="47" y="25"/>
      <point x="47" y="49" type="curve" smooth="yes"/>
      <point x="47" y="56"/>
      <point x="48" y="62"/>
      <point x="50" y="67" type="curve" smooth="yes"/>
      <point x="94" y="177" type="line"/>
      <point x="73" y="184"/>
      <point x="59" y="201"/>
      <point x="59" y="225" type="curve" smooth="yes"/>
      <point x="59" y="249"/>
      <point x="75" y="268"/>
      <point x="97" y="273" type="curve" smooth="yes"/>
      <point x="134" y="281" type="line"/>
      <point x="282" y="657" type="line" smooth="yes"/>
      <point x="290" y="677"/>
      <point x="309" y="688"/>
      <point x="329" y="688" type="curve" smooth="yes"/>
      <point x="349" y="688"/>
      <point x="367" y="679"/>
      <point x="375" y="655" type="curve" smooth="yes"/>
      <point x="578" y="67" type="line" smooth="yes"/>
      <point x="581.121" y="57.6372"/>
      <point x="582.51" y="49.2267"/>
      <point x="582.51" y="41.5975" type="curve" smooth="yes"/>
      <point x="582.51" y="12.559"/>
      <point x="562.382" y="-5.16126"/>
      <point x="541" y="-21" type="curve" smooth="yes"/>
      <point x="522" y="-35"/>
      <point x="496" y="-54"/>
      <point x="496" y="-80" type="curve" smooth="yes"/>
      <point x="496" y="-95"/>
      <point x="509" y="-104"/>
      <point x="524" y="-104" type="curve" smooth="yes"/>
      <point x="537" y="-104"/>
      <point x="552" y="-100"/>
      <point x="564" y="-90" type="curve" smooth="yes"/>
      <point x="575" y="-82"/>
      <point x="583" y="-80"/>
      <point x="593" y="-80" type="curve" smooth="yes"/>
      <point x="614" y="-80"/>
      <point x="637" y="-102"/>
      <point x="637" y="-126" type="curve" smooth="yes"/>
      <point x="637" y="-168"/>
      <point x="563" y="-196"/>
    </contour>
    <contour>
      <point x="250" y="306" type="line"/>
      <point x="379" y="334" type="line"/>
      <point x="325" y="495" type="line"/>
    </contour>
  </outline>
</glyph>
<glyph name="Cacute" format="1">
  <advance width="658"/>
  <unicode hex="0106"/>
  <outline>
    <contour>
      <point x="579" y="117" type="curve" smooth="yes"/>
      <point x="521" y="41"/>
      <point x="436" y="-2"/>
      <point x="339" y="-2" type="curve" smooth="yes"/>
      <point x="179" y="-2"/>
      <point x="47" y="128"/>
      <point x="47" y="299" type="curve" smooth="yes"/>
      <point x="47" y="501"/>
      <point x="206" y="684"/>
      <point x="346" y="684" type="curve" smooth="yes"/>
      <point x="404" y="684"/>
      <point x="449" y="669"/>
      <point x="479" y="653" type="curve"/>
      <point x="488" y="659"/>
      <point x="495" y="660"/>
      <point x="505" y="660" type="curve" smooth="yes"/>
      <point x="533" y="660"/>
      <point x="555" y="639"/>
      <point x="555" y="611" type="curve" smooth="yes"/>
      <point x="555" y="551" type="line" smooth="yes"/>
      <point x="555" y="524"/>
      <point x="533" y="501"/>
      <point x="505" y="501" type="curve" smooth="yes"/>
      <point x="478" y="501"/>
      <point x="457" y="521"/>
      <point x="455" y="547" type="curve"/>
      <point x="437" y="564"/>
      <point x="408" y="584"/>
      <point x="346" y="584" type="curve" smooth="yes"/>
      <point x="253" y="584"/>
      <point x="147" y="441"/>
      <point x="147" y="299" type="curve" smooth="yes"/>
      <point x="147" y="156"/>
      <point x="264" y="98"/>
      <point x="339" y="98" type="curve" smooth="yes"/>
      <point x="399" y="98"/>
      <point x="455" y="119"/>
      <point x="499" y="177" type="curve" smooth="yes"/>
      <point x="511" y="193"/>
      <point x="523" y="197"/>
      <point x="538" y="197" type="curve" smooth="yes"/>
      <point x="564" y="197"/>
      <point x="588" y="179"/>
      <point x="588" y="147" type="curve" smooth="yes"/>
      <point x="588" y="137"/>
      <point x="586" y="127"/>
    </contour>
    <contour>
      <point x="250" y="790" type="curve" smooth="yes"/>
      <point x="365" y="883" type="line" smooth="yes"/>
      <point x="375" y="891"/>
      <point x="389" y="902"/>
      <point x="406" y="902" type="curve" smooth="yes"/>
      <point x="436" y="902"/>
      <point x="459" y="878"/>
      <point x="459" y="847" type="curve" smooth="yes"/>
      <point x="459" y="832"/>
      <point x="454" y="817"/>
      <point x="440" y="807" type="curve" smooth="yes"/>
      <point x="316" y="722" type="line" smooth="yes"/>
      <point x="306" y="715"/>
      <point x="294" y="709"/>
      <point x="283" y="709" type="curve" smooth="yes"/>
      <point x="259" y="709"/>
      <point x="237" y="730"/>
      <point x="237" y="757" type="curve" smooth="yes"/>
      <point x="237" y="768"/>
      <point x="239" y="781"/>
    </contour>
  </outline>
</glyph>
<glyph name="ccircumflex" format="1">
  <advance width="535"/>
  <unicode hex="0109"/>
  <outline>
    <contour>
      <point x="374" y="147" type="curve" smooth="yes"/>
      <point x="381" y="156"/>
      <point x="394" y="172"/>
      <point x="417" y="172" type="curve" smooth="yes"/>
      <point x="443" y="172"/>
      <point x="464" y="151"/>
      <point x="464" y="124" type="curve" smooth="yes"/>
      <point x="464" y="112"/>
      <point x="459" y="102"/>
      <point x="453" y="94" type="curve" smooth="yes"/>
      <point x="418" y="47"/>
      <point x="349" y="0"/>
      <point x="275" y="0" type="curve" smooth="yes"/>
      <point x="155" y="0"/>
      <point x="47" y="91"/>
      <point x="47" y="219" type="curve" smooth="yes"/>
      <point x="47" y="266"/>
      <point x="61" y="310"/>
      <point x="71" y="335" type="curve" smooth="yes"/>
      <point x="96" y="401"/>
      <point x="173" y="500"/>
      <point x="272" y="500" type="curve" smooth="yes"/>
      <point x="347" y="500"/>
      <point x="384" y="476"/>
      <point x="424" y="430" type="curve" smooth="yes"/>
      <point x="433" y="419"/>
      <point x="437" y="408"/>
      <point x="437" y="396" type="curve" smooth="yes"/>
      <point x="437" y="370"/>
      <point x="415" y="349"/>
      <point x="389" y="349" type="curve" smooth="yes"/>
      <point x="372" y="349"/>
      <point x="364" y="354"/>
      <point x="358" y="361" type="curve" smooth="yes"/>
      <point x="334" y="389"/>
      <point x="312" y="407"/>
      <point x="274" y="407" type="curve" smooth="yes"/>
      <point x="224" y="407"/>
      <point x="176" y="346"/>
      <point x="157" y="302" type="curve" smooth="yes"/>
      <point x="146" y="272"/>
      <point x="141" y="243"/>
      <point x="141" y="221" type="curve" smooth="yes"/>
      <point x="141" y="122"/>
      <point x="229" y="93"/>
      <point x="263" y="93" type="curve" smooth="yes"/>
      <point x="320" y="93"/>
      <point x="352" y="117"/>
    </contour>
    <contour>
      <point x="136" y="626" type="curve" smooth="yes"/>
      <point x="255" y="726" type="line" smooth="yes"/>
      <point x="266" y="735"/>
      <point x="278" y="738"/>
      <point x="287" y="738" type="curve" smooth="yes"/>
      <point x="299" y="738"/>
      <point x="313" y="732"/>
      <point x="325" y="720" type="curve" smooth="yes"/>
      <point x="421" y="624" type="line" smooth="yes"/>
      <point x="431" y="614"/>
      <point x="435" y="603"/>
      <point x="435" y="590" type="curve" smooth="yes"/>
      <point x="435" y="565"/>
      <point x="414" y="543"/>
      <point x="389" y="543" type="curve" smooth="yes"/>
      <point x="377" y="543"/>
      <point x="367" y="545"/>
      <point x="356" y="555" type="curve" smooth="yes"/>
      <point x="283" y="621" type="line"/>
      <point x="194" y="552" type="line" smooth="yes"/>
      <point x="183" y="544"/>
      <point x="175" y="543"/>
      <point x="165" y="543" type="curve" smooth="yes"/>
      <point x="140" y="543"/>
      <point x="118" y="563"/>
      <point x="118" y="590" type="curve" smooth="yes"/>
      <point x="118" y="603"/>
      <point x="124" y="616"/>
    </contour>
  </outline>
</glyph>
<glyph name="Ccaron" format="1">
  <advance width="658"/>
  <unicode hex="010C"/>
  <outline>
    <contour>
      <point x="579" y="117" type="curve" smooth="yes"/>
      <point x="521" y="41"/>
      <point x="436" y="-2"/>
      <point x="339" y="-2" type="curve" smooth="yes"/>
      <point x="179" y="-2"/>
      <point x="47" y="128"/>
      <point x="47" y="299" type="curve" smooth="yes"/>
      <point x="47" y="501"/>
      <point x="206" y="684"/>
      <point x="346" y="684" type="curve" smooth="yes"/>
      <point x="404" y="684"/>
      <point x="449" y="669"/>
      <point x="479" y="653" type="curve"/>
      <point x="488" y="659"/>
      <point x="495" y="660"/>
      <point x="505" y="660" type="curve" smooth="yes"/>
      <point x="533" y="660"/>
      <point x="555" y="639"/>
      <point x="555" y="611" type="curve" smooth="yes"/>
      <point x="555" y="551" type="line" smooth="yes"/>
      <point x="555" y="524"/>
      <point x="533" y="501"/>
      <point x="505" y="501" type="curve" smooth="yes"/>
      <point x="478" y="501"/>
      <point x="457" y="521"/>
      <point x="455" y="547" type="curve"/>
      <point x="437" y="564"/>
      <point x="408" y="584"/>
      <point x="346" y="584" type="curve" smooth="yes"/>
      <point x="253" y="584"/>
      <point x="147" y="441"/>
      <point x="147" y="299" type="curve" smooth="yes"/>
      <point x="147" y="156"/>
      <point x="264" y="98"/>
      <point x="339" y="98" type="curve" smooth="yes"/>
      <point x="399" y="98"/>
      <point x="455" y="119"/>
      <point x="499" y="177" type="curve" smooth="yes"/>
      <point x="511" y="193"/>
      <point x="523" y="197"/>
      <point x="538" y="197" type="curve" smooth="yes"/>
      <point x="564" y="197"/>
      <point x="588" y="179"/>
      <point x="588" y="147" type="curve" smooth="yes"/>
      <point x="588" y="137"/>
      <point x="586" y="127"/>
    </contour>
    <contour>
      <point x="503" y="821" type="curve" smooth="yes"/>
      <point x="384" y="721" type="line" smooth="yes"/>
      <point x="373" y="712"/>
      <point x="361" y="709"/>
      <point x="352" y="709" type="curve" smooth="yes"/>
      <point x="340" y="709"/>
      <point x="326" y="715"/>
      <point x="314" y="727" type="curve" smooth="yes"/>
      <point x="218" y="823" type="line" smooth="yes"/>
      <point x="208" y="833"/>
      <point x="204" y="844"/>
      <point x="204" y="857" type="curve" smooth="yes"/>
      <point x="204" y="882"/>
      <point x="225" y="904"/>
      <point x="250" y="904" type="curve" smooth="yes"/>
      <point x="262" y="904"/>
      <point x="272" y="902"/>
      <point x="283" y="892" type="curve" smooth="yes"/>
      <point x="356" y="826" type="line"/>
      <point x="445" y="895" type="line" smooth="yes"/>
      <point x="456" y="903"/>
      <point x="464" y="904"/>
      <point x="474" y="904" type="curve" smooth="yes"/>
      <point x="499" y="904"/>
      <point x="521" y="884"/>
      <point x="521" y="857" type="curve" smooth="yes"/>
      <point x="521" y="844"/>
      <point x="515" y="831"/>
    </contour>
  </outline>
</glyph>
<glyph name="dcroat" format="1">
  <advance width="583"/>
  <unicode hex="0111"/>
  <outline>
    <contour>
      <point x="470" y="628" type="curve" smooth="yes"/>
      <point x="470" y="613" type="line"/>
      <point x="507" y="613" type="line" smooth="yes"/>
      <point x="533" y="613"/>
      <point x="553" y="593"/>
      <point x="553" y="568" type="curve" smooth="yes"/>
      <point x="553" y="543"/>
      <point x="533" y="521"/>
      <point x="507" y="521" type="curve" smooth="yes"/>
      <point x="467" y="521" type="line"/>
      <point x="456" y="46" type="line" smooth="yes"/>
      <point x="455" y="20"/>
      <point x="434" y="0"/>
      <point x="407" y="0" type="curve" smooth="yes"/>
      <point x="378" y="0"/>
      <point x="361" y="22"/>
      <point x="359" y="45" type="curve"/>
      <point x="326" y="23"/>
      <point x="282" y="4"/>
      <point x="227" y="4" type="curve" smooth="yes"/>
      <point x="105" y="4"/>
      <point x="48" y="112"/>
      <point x="48" y="223" type="curve" smooth="yes"/>
      <point x="48" y="364"/>
      <point x="108" y="488"/>
      <point x="266" y="488" type="curve" smooth="yes"/>
      <point x="304" y="488"/>
      <point x="340" y="480"/>
      <point x="368" y="471" type="curve"/>
      <point x="369" y="521" type="line"/>
      <point x="329" y="521" type="line" smooth="yes"/>
      <point x="305" y="521"/>
      <point x="283" y="543"/>
      <point x="283" y="568" type="curve" smooth="yes"/>
      <point x="283" y="593"/>
      <point x="305" y="613"/>
      <point x="329" y="613" type="curve" smooth="yes"/>
      <point x="372" y="613" type="line"/>
      <point x="373" y="630" type="line" smooth="yes"/>
      <point x="374" y="657"/>
      <point x="396" y="679"/>
      <point x="423" y="679" type="curve" smooth="yes"/>
      <point x="448" y="679"/>
      <point x="470" y="659"/>
    </contour>
    <contour>
      <point x="144" y="226" type="curve" smooth="yes"/>
      <point x="144" y="169"/>
      <point x="162" y="94"/>
      <point x="227" y="94" type="curve" smooth="yes"/>
      <point x="308" y="94"/>
      <point x="363" y="148"/>
      <point x="363" y="170" type="curve" smooth="yes"/>
      <point x="367" y="367" type="line"/>
      <point x="345" y="377"/>
      <point x="304" y="393"/>
      <point x="267" y="393" type="curve" smooth="yes"/>
      <point x="163" y="393"/>
      <point x="144" y="296"/>
    </contour>
  </outline>
</glyph>
<glyph name="Eogonek" format="1">
  <advance width="636"/>
  <unicode hex="0118"/>
  <outline>
    <contour>
      <point x="461" y="-196" type="curve" smooth="yes"/>
      <point x="393" y="-196"/>
      <point x="342" y="-147"/>
      <point x="342" y="-79" type="curve" smooth="yes"/>
      <point x="342" y="-49"/>
      <point x="353" y="-22"/>
      <point x="369" y="0" type="curve"/>
      <point x="111" y="0" type="line" smooth="yes"/>
      <point x="83" y="0"/>
      <point x="61" y="22"/>
      <point x="61" y="50" type="curve" smooth="yes"/>
      <point x="61" y="632" type="line" smooth="yes"/>
      <point x="61" y="660"/>
      <point x="83" y="682"/>
      <point x="111" y="682" type="curve" smooth="yes"/>
      <point x="510" y="682" type="line" smooth="yes"/>
      <point x="538" y="682"/>
      <point x="559" y="660"/>
      <point x="559" y="632" type="curve" smooth="yes"/>
      <point x="559" y="605"/>
      <point x="538" y="582"/>
      <point x="510" y="582" type="curve" smooth="yes"/>
      <point x="160" y="582" type="line"/>
      <point x="160" y="401" type="line"/>
      <point x="464" y="401" type="line" smooth="yes"/>
      <point x="492" y="401"/>
      <point x="513" y="380"/>
      <point x="513" y="352" type="curve" smooth="yes"/>
      <point x="513" y="324"/>
      <point x="492" y="302"/>
      <point x="464" y="302" type="curve" smooth="yes"/>
      <point x="160" y="302" type="line"/>
      <point x="160" y="100" type="line"/>
      <point x="508" y="100" type="line" smooth="yes"/>
      <point x="536" y="100"/>
      <point x="557" y="78"/>
      <point x="557" y="50" type="curve" smooth="yes"/>
      <point x="557" y="4"/>
      <point x="525" y="8"/>
      <point x="478" y="-21" type="curve" smooth="yes"/>
      <point x="452" y="-37"/>
      <point x="433" y="-51"/>
      <point x="433" y="-76" type="curve" smooth="yes"/>
      <point x="433" y="-95"/>
      <point x="446" y="-104"/>
      <point x="461" y="-104" type="curve" smooth="yes"/>
      <point x="474" y="-104"/>
      <point x="489" y="-100"/>
      <point x="501" y="-90" type="curve" smooth="yes"/>
      <point x="512" y="-82"/>
      <point x="520" y="-80"/>
      <point x="530" y="-80" type="curve" smooth="yes"/>
      <point x="551" y="-80"/>
      <point x="574" y="-102"/>
      <point x="574" y="-126" type="curve" smooth="yes"/>
      <point x="574" y="-168"/>
      <point x="500" y="-196"/>
    </contour>
  </outline>
</glyph>
<glyph name="eogonek" format="1">
  <advance width="547"/>
  <unicode hex="0119"/>
  <outline>
    <contour>
      <point x="317" y="-196" type="curve" smooth="yes"/>
      <point x="249" y="-196"/>
      <point x="198" y="-147"/>
      <point x="198" y="-79" type="curve" smooth="yes"/>
      <point x="198" y="-46"/>
      <point x="211" y="-17"/>
      <point x="231" y="7" type="curve"/>
      <point x="118" y="35"/>
      <point x="49" y="133"/>
      <point x="49" y="239" type="curve" smooth="yes"/>
      <point x="49" y="376"/>
      <point x="138" y="499"/>
      <point x="275" y="499" type="curve" smooth="yes"/>
      <point x="407" y="499"/>
      <point x="467" y="402"/>
      <point x="467" y="355" type="curve" smooth="yes"/>
      <point x="467" y="338"/>
      <point x="457" y="321"/>
      <point x="436" y="309" type="curve" smooth="yes"/>
      <point x="168" y="155" type="line"/>
      <point x="197" y="114"/>
      <point x="240" y="93"/>
      <point x="297" y="93" type="curve" smooth="yes"/>
      <point x="330" y="93"/>
      <point x="374" y="112"/>
      <point x="396" y="135" type="curve" smooth="yes"/>
      <point x="405" y="144"/>
      <point x="416" y="151"/>
      <point x="429" y="151" type="curve" smooth="yes"/>
      <point x="456" y="151"/>
      <point x="476" y="131"/>
      <point x="476" y="104" type="curve" smooth="yes"/>
      <point x="476" y="92"/>
      <point x="471" y="81"/>
      <point x="464" y="74" type="curve" smooth="yes"/>
      <point x="435" y="43"/>
      <point x="401" y="24"/>
      <point x="370" y="7" type="curve" smooth="yes"/>
      <point x="325" y="-17"/>
      <point x="289" y="-36"/>
      <point x="289" y="-75" type="curve" smooth="yes"/>
      <point x="289" y="-95"/>
      <point x="302" y="-104"/>
      <point x="317" y="-104" type="curve" smooth="yes"/>
      <point x="330" y="-104"/>
      <point x="345" y="-100"/>
      <point x="357" y="-90" type="curve" smooth="yes"/>
      <point x="368" y="-82"/>
      <point x="376" y="-80"/>
      <point x="386" y="-80" type="curve" smooth="yes"/>
      <point x="407" y="-80"/>
      <point x="430" y="-102"/>
      <point x="430" y="-126" type="curve" smooth="yes"/>
      <point x="430" y="-168"/>
      <point x="356" y="-196"/>
    </contour>
    <contour>
      <point x="140" y="247" type="curve"/>
      <point x="366" y="372" type="line"/>
      <point x="350" y="394"/>
      <point x="321" y="405"/>
      <point x="275" y="405" type="curve" smooth="yes"/>
      <point x="198" y="405"/>
      <point x="144" y="335"/>
    </contour>
  </outline>
</glyph>
<glyph name="Hcircumflex" format="1">
  <advance width="711"/>
  <unicode hex="0124"/>
  <outline>
    <contour>
      <point x="576" y="681" type="curve" smooth="yes"/>
      <point x="602" y="681"/>
      <point x="626" y="660"/>
      <point x="626" y="632" type="curve" smooth="yes"/>
      <point x="626" y="49" type="line" smooth="yes"/>
      <point x="626" y="23"/>
      <point x="602" y="0"/>
      <point x="576" y="0" type="curve" smooth="yes"/>
      <point x="548" y="0"/>
      <point x="526" y="23"/>
      <point x="526" y="49" type="curve" smooth="yes"/>
      <point x="526" y="322" type="line"/>
      <point x="162" y="271" type="line"/>
      <point x="162" y="49" type="line" smooth="yes"/>
      <point x="162" y="23"/>
      <point x="139" y="0"/>
      <point x="111" y="0" type="curve" smooth="yes"/>
      <point x="83" y="0"/>
      <point x="62" y="23"/>
      <point x="62" y="49" type="curve" smooth="yes"/>
      <point x="62" y="632" type="line" smooth="yes"/>
      <point x="62" y="660"/>
      <point x="83" y="681"/>
      <point x="111" y="681" type="curve" smooth="yes"/>
      <point x="139" y="681"/>
      <point x="162" y="660"/>
      <point x="162" y="632" type="curve" smooth="yes"/>
      <point x="162" y="372" type="line"/>
      <point x="526" y="423" type="line"/>
      <point x="526" y="632" type="line" smooth="yes"/>
      <point x="526" y="660"/>
      <point x="548" y="681"/>
    </contour>
    <contour>
      <point x="202" y="786" type="curve" smooth="yes"/>
      <point x="321" y="886" type="line" smooth="yes"/>
      <point x="332" y="895"/>
      <point x="344" y="898"/>
      <point x="353" y="898" type="curve" smooth="yes"/>
      <point x="365" y="898"/>
      <point x="379" y="892"/>
      <point x="391" y="880" type="curve" smooth="yes"/>
      <point x="487" y="784" type="line" smooth="yes"/>
      <point x="497" y="774"/>
      <point x="501" y="763"/>
      <point x="501" y="750" type="curve" smooth="yes"/>
      <point x="501" y="725"/>
      <point x="480" y="703"/>
      <point x="455" y="703" type="curve" smooth="yes"/>
      <point x="443" y="703"/>
      <point x="433" y="705"/>
      <point x="422" y="715" type="curve" smooth="yes"/>
      <point x="349" y="781" type="line"/>
      <point x="260" y="712" type="line" smooth="yes"/>
      <point x="249" y="704"/>
      <point x="241" y="703"/>
      <point x="231" y="703" type="curve" smooth="yes"/>
      <point x="206" y="703"/>
      <point x="184" y="723"/>
      <point x="184" y="750" type="curve" smooth="yes"/>
      <point x="184" y="763"/>
      <point x="190" y="776"/>
    </contour>
  </outline>
</glyph>
<glyph name="hcircumflex" format="1">
  <advance width="529"/>
  <unicode hex="0125"/>
  <outline>
    <contour>
      <point x="456" y="45" type="curve" smooth="yes"/>
      <point x="455" y="20"/>
      <point x="435" y="0"/>
      <point x="409" y="0" type="curve" smooth="yes"/>
      <point x="380" y="0"/>
      <point x="362" y="21"/>
      <point x="362" y="47" type="curve" smooth="yes"/>
      <point x="362" y="73"/>
      <point x="364" y="100"/>
      <point x="364" y="163" type="curve" smooth="yes"/>
      <point x="364" y="380"/>
      <point x="333" y="406"/>
      <point x="310" y="406" type="curve" smooth="yes"/>
      <point x="245" y="406"/>
      <point x="183" y="297"/>
      <point x="169" y="269" type="curve" smooth="yes"/>
      <point x="160" y="249"/>
      <point x="157" y="225"/>
      <point x="157" y="198" type="curve" smooth="yes"/>
      <point x="157" y="49" type="line" smooth="yes"/>
      <point x="157" y="17"/>
      <point x="135" y="-1"/>
      <point x="109" y="-1" type="curve" smooth="yes"/>
      <point x="84" y="-1"/>
      <point x="61" y="22"/>
      <point x="61" y="47" type="curve" smooth="yes"/>
      <point x="61" y="623" type="line" smooth="yes"/>
      <point x="61" y="649"/>
      <point x="82" y="672"/>
      <point x="109" y="672" type="curve" smooth="yes"/>
      <point x="138" y="672"/>
      <point x="157" y="649"/>
      <point x="157" y="623" type="curve" smooth="yes"/>
      <point x="157" y="408" type="line"/>
      <point x="199" y="461"/>
      <point x="257" y="501"/>
      <point x="316" y="501" type="curve" smooth="yes"/>
      <point x="424" y="501"/>
      <point x="459" y="391"/>
      <point x="459" y="170" type="curve" smooth="yes"/>
      <point x="459" y="109"/>
      <point x="459" y="73"/>
    </contour>
    <contour>
      <point x="106" y="786" type="curve" smooth="yes"/>
      <point x="225" y="886" type="line" smooth="yes"/>
      <point x="236" y="895"/>
      <point x="248" y="898"/>
      <point x="257" y="898" type="curve" smooth="yes"/>
      <point x="269" y="898"/>
      <point x="283" y="892"/>
      <point x="295" y="880" type="curve" smooth="yes"/>
      <point x="391" y="784" type="line" smooth="yes"/>
      <point x="401" y="774"/>
      <point x="405" y="763"/>
      <point x="405" y="750" type="curve" smooth="yes"/>
      <point x="405" y="725"/>
      <point x="384" y="703"/>
      <point x="359" y="703" type="curve" smooth="yes"/>
      <point x="347" y="703"/>
      <point x="337" y="705"/>
      <point x="326" y="715" type="curve" smooth="yes"/>
      <point x="253" y="781" type="line"/>
      <point x="164" y="712" type="line" smooth="yes"/>
      <point x="153" y="704"/>
      <point x="145" y="703"/>
      <point x="135" y="703" type="curve" smooth="yes"/>
      <point x="110" y="703"/>
      <point x="88" y="723"/>
      <point x="88" y="750" type="curve" smooth="yes"/>
      <point x="88" y="763"/>
      <point x="94" y="776"/>
    </contour>
  </outline>
</glyph>
<glyph name="jcircumflex" format="1">
  <advance width="359"/>
  <unicode hex="0135"/>
  <outline>
    <contour>
      <point x="82" y="11" type="curve" smooth="yes"/>
      <point x="94" y="-24"/>
      <point x="120" y="-73"/>
      <point x="150" y="-73" type="curve" smooth="yes"/>
      <point x="184" y="-73"/>
      <point x="186" y="-10"/>
      <point x="186" y="16" type="curve" smooth="yes"/>
      <point x="186" y="28"/>
      <point x="184" y="122"/>
      <point x="183" y="220" type="curve" smooth="yes"/>
      <point x="182" y="328"/>
      <point x="180" y="437"/>
      <point x="180" y="452" type="curve" smooth="yes"/>
      <point x="180" y="480"/>
      <point x="199" y="501"/>
      <point x="228" y="501" type="curve" smooth="yes"/>
      <point x="253" y="501"/>
      <point x="276" y="479"/>
      <point x="276" y="453" type="curve" smooth="yes"/>
      <point x="276" y="445"/>
      <point x="278" y="362"/>
      <point x="279" y="272" type="curve" smooth="yes"/>
      <point x="281" y="164"/>
      <point x="281" y="35"/>
      <point x="281" y="21" type="curve" smooth="yes"/>
      <point x="281" y="-45"/>
      <point x="262" y="-164"/>
      <point x="152" y="-164" type="curve" smooth="yes"/>
      <point x="48" y="-164"/>
      <point x="-2" y="-43"/>
      <point x="-10" y="-20" type="curve" smooth="yes"/>
      <point x="-11" y="-16"/>
      <point x="-13" y="-9"/>
      <point x="-13" y="-3" type="curve" smooth="yes"/>
      <point x="-13" y="22"/>
      <point x="7" y="45"/>
      <point x="36" y="45" type="curve" smooth="yes"/>
      <point x="61" y="45"/>
      <point x="76" y="31"/>
    </contour>
    <contour>
      <point x="71" y="626" type="curve" smooth="yes"/>
      <point x="190" y="726" type="line" smooth="yes"/>
      <point x="201" y="735"/>
      <point x="213" y="738"/>
      <point x="222" y="738" type="curve" smooth="yes"/>
      <point x="234" y="738"/>
      <point x="248" y="732"/>
      <point x="260" y="720" type="curve" smooth="yes"/>
      <point x="356" y="624" type="line" smooth="yes"/>
      <point x="366" y="614"/>
      <point x="370" y="603"/>
      <point x="370" y="590" type="curve" smooth="yes"/>
      <point x="370" y="565"/>
      <point x="349" y="543"/>
      <point x="324" y="543" type="curve" smooth="yes"/>
      <point x="312" y="543"/>
      <point x="302" y="545"/>
      <point x="291" y="555" type="curve" smooth="yes"/>
      <point x="218" y="621" type="line"/>
      <point x="129" y="552" type="line" smooth="yes"/>
      <point x="118" y="544"/>
      <point x="110" y="543"/>
      <point x="100" y="543" type="curve" smooth="yes"/>
      <point x="75" y="543"/>
      <point x="53" y="563"/>
      <point x="53" y="590" type="curve" smooth="yes"/>
      <point x="53" y="603"/>
      <point x="59" y="616"/>
    </contour>
  </outline>
</glyph>
<glyph name="Lcaron" format="1">
  <advance width="503"/>
  <unicode hex="013D"/>
  <outline>
    <contour>
      <point x="311" y="821" type="curve" smooth="yes"/>
      <point x="192" y="721" type="line" smooth="yes"/>
      <point x="181" y="712"/>
      <point x="169" y="709"/>
      <point x="160" y="709" type="curve" smooth="yes"/>
      <point x="148" y="709"/>
      <point x="134" y="715"/>
      <point x="122" y="727" type="curve" smooth="yes"/>
      <point x="26" y="823" type="line" smooth="yes"/>
      <point x="16" y="833"/>
      <point x="12" y="844"/>
      <point x="12" y="857" type="curve" smooth="yes"/>
      <point x="12" y="882"/>
      <point x="33" y="904"/>
      <point x="58" y="904" type="curve" smooth="yes"/>
      <point x="70" y="904"/>
      <point x="80" y="902"/>
      <point x="91" y="892" type="curve" smooth="yes"/>
      <point x="164" y="826" type="line"/>
      <point x="253" y="895" type="line" smooth="yes"/>
      <point x="264" y="903"/>
      <point x="272" y="904"/>
      <point x="282" y="904" type="curve" smooth="yes"/>
      <point x="307" y="904"/>
      <point x="329" y="884"/>
      <point x="329" y="857" type="curve" smooth="yes"/>
      <point x="329" y="844"/>
      <point x="323" y="831"/>
    </contour>
    <contour>
      <point x="434" y="22" type="curve" smooth="yes"/>
      <point x="111" y="0" type="line" smooth="yes"/>
      <point x="109.943" y="-0.07828"/>
      <point x="108.89" y="-0.11673"/>
      <point x="107.84" y="-0.11673" type="curve" smooth="yes"/>
      <point x="82.0813" y="-0.11673"/>
      <point x="59" y="23.0568"/>
      <point x="59" y="49" type="curve" smooth="yes"/>
      <point x="59" y="632" type="line" smooth="yes"/>
      <point x="59" y="658"/>
      <point x="81" y="681"/>
      <point x="109" y="681" type="curve" smooth="yes"/>
      <point x="135" y="681"/>
      <point x="158" y="658"/>
      <point x="158" y="632" type="curve" smooth="yes"/>
      <point x="158" y="102" type="line"/>
      <point x="426" y="121" type="line" smooth="yes"/>
      <point x="427.379" y="121.092"/>
      <point x="428.744" y="121.137"/>
      <point x="430.093" y="121.137" type="curve" smooth="yes"/>
      <point x="458.067" y="121.137"/>
      <point x="479" y="101.575"/>
      <point x="479" y="72" type="curve" smooth="yes"/>
      <point x="479" y="48"/>
      <point x="459" y="24"/>
    </contour>
  </outline>
</glyph>
<glyph name="lcaron" format="1">
  <advance width="283"/>
  <unicode hex="013E"/>
  <outline>
    <contour>
      <point x="160" y="625" type="curve" smooth="yes"/>
      <point x="160" y="45" type="line" smooth="yes"/>
      <point x="160" y="20"/>
      <point x="135" y="0"/>
      <point x="112" y="0" type="curve" smooth="yes"/>
      <point x="87" y="0"/>
      <point x="64" y="20"/>
      <point x="64" y="45" type="curve" smooth="yes"/>
      <point x="64" y="625" type="line" smooth="yes"/>
      <point x="64" y="651"/>
      <point x="84" y="672"/>
      <point x="112" y="672" type="curve" smooth="yes"/>
      <point x="137" y="672"/>
      <point x="160" y="651"/>
    </contour>
    <contour>
      <point x="305" y="621" type="curve" smooth="yes"/>
      <point x="305" y="600"/>
      <point x="287" y="550"/>
      <point x="271" y="512" type="curve" smooth="yes"/>
      <point x="262" y="491"/>
      <point x="251" y="473"/>
      <point x="225" y="473" type="curve" smooth="yes"/>
      <point x="200" y="473"/>
      <point x="181" y="492"/>
      <point x="181" y="515" type="curve" smooth="yes"/>
      <point x="181" y="522"/>
      <point x="182" y="526"/>
      <point x="184" y="531" type="curve" smooth="yes"/>
      <point x="202" y="578" type="line"/>
      <point x="197" y="587"/>
      <point x="194" y="597"/>
      <point x="194" y="609" type="curve" smooth="yes"/>
      <point x="194" y="642"/>
      <point x="222" y="672"/>
      <point x="253" y="672" type="curve" smooth="yes"/>
      <point x="282" y="672"/>
      <point x="305" y="649"/>
    </contour>
  </outline>
</glyph>
